<svg width="168" height="168" viewBox="0 0 100 100" fill="none" xmlns="http://www.w3.org/2000/svg">
<g clip-path="url(#clip0_188_6131)">
<path d="M40.7079 5.83909C37.1481 5.48967 32.503 7.25652 32.5517 11.5483C32.5999 15.8401 33.0628 17.8696 31.4655 19.6658C29.8683 21.462 28.6177 21.8808 29.5373 23.6669C30.4572 25.453 31.2529 26.567 30.6424 27.1634C30.0323 27.7599 25.7821 28.8476 26.6374 31.2054C27.4927 33.5632 27.245 35.0665 25.3344 35.4733C23.4239 35.8801 21.0606 39.4354 22.903 41.0943C24.7451 42.7537 26.1719 44.6804 25.0055 46.1433C23.8391 47.6062 20.2442 48.906 21.1426 51.5793C22.0414 54.253 24.4982 54.2961 24.4982 54.2961C24.4982 54.2961 27.5599 53.7658 27.0183 55.0707C26.4763 56.3757 28.9035 56.0281 29.7385 54.9835C30.5739 53.9394 31.6135 56.0138 33.0497 55.9018C34.4859 55.7898 35.8189 54.118 36.4784 54.8108C37.1379 55.5042 37.9569 57.5176 39.4776 57.046C40.9983 56.5745 41.7796 54.7498 43.0446 55.866C44.3095 56.9822 45.2971 58.277 46.4331 57.4437C47.5691 56.6103 47.5171 55.8302 49.587 56.0216C51.657 56.2127 52.4053 55.5271 53.0365 56.3403C53.6677 57.1535 53.1633 58.7996 55.0688 58.6903C56.9742 58.5805 58.5279 56.9698 59.1896 57.1535C59.8512 57.3372 60.3674 59.1389 61.7757 59.1467C63.1836 59.1545 62.9498 57.1516 64.1462 57.5589C65.3427 57.9667 65.7743 60.1279 66.7717 59.3836C67.769 58.6393 69.1232 58.3771 70.0055 58.6219C70.8878 58.8666 70.5855 59.6518 72.7489 59.9447C74.9123 60.2376 75.7172 59.3125 76.2732 58.446C76.8295 57.5796 74.7034 57.6278 75.1794 56.1011C75.6559 54.5744 78.0256 53.8278 77.9998 51.2689C77.9744 48.71 74.4683 48.631 74.1728 46.8903C73.8773 45.1496 77.1462 42.7386 76.1933 39.7949C75.2407 36.8512 72.6677 36.3012 72.4065 33.914C72.1452 31.5268 75.8829 29.6213 76.4901 26.5394C77.0972 23.458 72.3468 22.1751 72.2475 20.5993C72.1481 19.023 72.562 18.4714 73.3403 17.6596C74.1186 16.8478 76.5725 13.3344 74.1728 11.5483C71.7731 9.7617 68.2366 7.67665 65.8606 6.79001C63.4846 5.90292 63.2563 3.09836 61.7081 1.96561C58.9013 -0.0886755 53.3007 3.24622 51.3056 2.73701C49.3105 2.2278 48.2621 -0.359578 44.649 0.0421872C41.0368 0.443493 40.7079 5.83909 40.7079 5.83909Z" fill="#E88594"/>
<path d="M69.1516 48.3451C69.1516 48.3451 61.0602 43.3657 57.8491 43.026C54.6379 42.6863 43.3358 45.7422 38.8401 48.458C34.3449 51.1742 26.6385 81.2772 25.4825 91.4627C24.3264 101.648 25.611 120.095 25.611 120.095C25.611 120.095 36.3995 120.774 43.8489 120.774C51.2983 120.774 66.8391 121 66.8391 121C66.8391 121 71.9773 51.4006 69.1516 48.3451Z" fill="#FFF5E9"/>
<path d="M66.7857 46C66.7857 46 62.6075 51.4971 58.521 62.0486C54.4345 72.6002 52.7825 92.5025 52.5215 102.282C52.2606 112.062 52 128.962 52 128.962C52 128.962 62.5205 129.048 68.0854 128.962C73.6499 128.876 79.2148 128.962 79.2148 128.962C79.2148 128.962 79.3018 105.8 79.8233 97.736C80.3449 89.6722 82.0838 79.7211 81.9968 79.4636C81.9099 79.2061 79.9145 56.3031 77.4754 53.8136C74.9539 51.2396 66.7857 46 66.7857 46Z" fill="#FFB454"/>
<path d="M62.7662 26C62.7662 26 60.6086 34.3125 60.3007 36.8661C59.9923 39.4197 59.9923 42.0739 59.9923 42.0739C59.9923 42.0739 63.9375 44.9281 63.9992 45.529C64.0609 46.1298 60.5474 55.0431 53.4587 58.2978C47.2178 61.1632 42.6716 60.1504 40.8223 57.1963C38.8193 53.9961 40.884 49.3848 42.6716 46.8809C43.8339 45.2527 46.1234 42.8247 46.1234 42.8247L45.4454 36.4152L62.7662 26Z" fill="#FECDB3"/>
<path d="M43.1301 9.08273C43.1301 9.08273 40.2118 13.4965 39.5735 15.3882C38.9353 17.2799 39.3911 18.0905 38.6616 20.4324C37.9321 22.7742 36.8377 27.0979 37.0202 31.3319C37.2027 35.5654 39.0266 38.8981 42.7656 41.2404C46.5045 43.5827 53.8909 43.402 55.3502 41.7807C56.8092 40.1594 62.0983 32.4129 64.1959 27.4584C66.2935 22.5043 64.2871 8.90248 58.1773 6.20058C52.067 3.49781 45.2272 5.74954 43.1301 9.08273Z" fill="#FECDB3"/>
<path d="M43.6594 32.6822C43.0534 32.8215 42.4864 33.125 42.0377 33.5605C41.9387 33.6574 41.9361 33.816 42.033 33.9156C42.1298 34.0146 42.2888 34.016 42.3881 33.9203C42.9247 33.3981 43.6609 33.1 44.4091 33.0977C45.1569 33.0961 45.8948 33.3937 46.4329 33.9132C46.5324 34.0087 46.6918 34.007 46.7877 33.9069C46.8843 33.8071 46.881 33.6481 46.7814 33.552C46.1497 32.9426 45.2848 32.5944 44.4081 32.5959C44.1555 32.5956 43.9042 32.626 43.6594 32.6822Z" fill="#FF9C76" stroke="#FF9C76" stroke-width="2"/>
<path d="M56.0829 36.3505C56.0829 36.3505 57.3598 31.7993 58.5345 29.5232C59.7092 27.2476 60.7821 25.6462 61.7524 26.0674C62.7231 26.489 62.059 28.7647 61.5993 30.4081C61.1396 32.0518 58.3814 46.1273 58.3814 46.7595C58.3814 47.3918 64 71.919 64 71.919C64 71.919 61.7015 73.0992 57.8704 73.6467C54.0392 74.1947 50.3108 73.9417 50.3108 73.9417L50.3621 52.6597C50.3621 52.6597 48.6256 51.5638 48.2167 49.1195C47.8079 46.6752 49.5958 43.4304 49.3914 43.0931C49.187 42.7562 47.6548 41.6603 47.3995 41.6603C47.1443 41.6603 45.5094 43.3041 43.9772 43.0511C42.4451 42.7982 43.0835 41.3234 43.441 40.7755C43.7985 40.2276 44.3861 39.764 44.3861 39.764C44.3861 39.764 43.9007 39.3216 44.6927 37.8676C45.4136 36.5436 46.6337 36.3505 46.6337 36.3505C46.6337 36.3505 47.3457 34.1792 50.3626 34.1169C54.4486 34.0325 56.0829 36.3505 56.0829 36.3505Z" fill="#FECDB3"/>
<path d="M33.5574 100.503C33.5574 100.503 50.2716 102.578 50.5202 102.76C50.7689 102.946 54.571 106.787 56.1308 107.279C57.3605 107.664 59.9827 107.858 61.0677 108.221C61.1808 108.261 61.2757 108.301 61.3526 108.341C61.3797 108.354 61.4023 108.372 61.4249 108.385C61.5018 108.438 61.5515 108.496 61.556 108.558C61.5605 108.606 61.5605 108.66 61.547 108.713C61.4565 109.328 60.5297 110.235 60.2449 110.514C59.9375 110.819 60.1861 111.187 60.9954 111.612C61.2486 111.749 61.5696 111.802 61.8815 111.815C62.5687 111.846 63.2423 111.674 63.2423 111.674C63.2423 111.674 63.3102 111.731 63.4187 111.793C63.604 111.913 63.9205 112.054 64.237 111.979C64.4947 111.917 64.9965 111.625 65.426 111.359H65.4305C65.8374 111.111 66.172 110.881 66.172 110.881C66.172 110.881 66.2759 110.886 66.4523 110.85C66.8637 110.771 67.6865 110.479 68.6043 109.416C69.9108 107.889 70.2861 105.141 69.7888 104.043C69.2869 102.946 63.925 97.5727 63.2423 97.2673C62.5552 96.9619 39.9185 90 39.9185 90C39.9185 90 35.3025 91.465 33.7428 94.1515C32.1875 96.838 33.5574 100.503 33.5574 100.503Z" fill="#F3BBAF"/>
<path d="M62.9972 27.8238C62.9972 27.8238 64.8889 23.9193 67.0028 25.2928C69.1167 26.6668 67.5034 32.4513 65.5564 33.6083C63.6091 34.7652 61.9957 33.1024 61.1616 31.9454C60.327 30.7884 62.9972 27.8238 62.9972 27.8238Z" fill="#FECDB3"/>
<path d="M62.9791 72.9629L62.2696 68.8638C62.2696 68.8638 58.9876 68.437 55.0844 68.9492C51.1817 69.4614 49.7621 70.2304 49.7621 70.2304L49.5847 73.561C49.5847 73.561 48.6089 74.1587 48.4314 74.7564C48.2539 75.3541 46.6573 91.9216 51.0038 99.6076C55.3503 107.294 62.89 105.586 68.3897 101.742C73.8895 97.8996 78.6315 92.038 82.8893 80.9359C86.4239 66.7113 80.6498 57.777 77.7224 54.6173C75.078 52.2181 74.4434 52 74.4434 52L66.0832 79.0264L62.9791 72.9629Z" fill="#FFB454"/>
<path d="M40 48C40 48 34.4539 57.2656 30.8573 68.3486C26.2109 82.6661 29.7545 89.4303 29.1585 99.0127C28.5626 108.595 29.1585 129 29.1585 129H23.5595C23.5595 129 23.7978 86.0482 23.6787 84.2444C23.5595 82.4405 21.5345 74.8872 25.1081 68.3486C28.6822 61.81 27.3499 56.6445 29.8137 53.3547C31.4353 51.1904 40 48 40 48Z" fill="#FFB454"/>
<path d="M35.3486 51C35.3486 51 27.9676 54.4296 25.3084 57.1769C20.4177 62.2302 14.1528 76.8314 13.1487 86.6025C12.1446 96.3736 16.3839 99.4059 21.0691 100.529C25.7544 101.652 35.3482 103 35.3482 103C35.3482 103 35.2252 99.699 37.2448 96.5983C39.7407 92.7656 42 92.6394 42 92.6394C42 92.6394 33.5636 87.8382 30.6633 86.9396C27.7626 86.0411 35.3486 51 35.3486 51Z" fill="#FFB454"/>
<path d="M43.2858 42.0227C43.492 41.6057 43.779 41.2227 44.1277 40.8934C44.1145 40.5132 44.2374 40.1058 44.337 39.7538C44.4714 39.281 44.6753 38.8172 44.9984 38.423C45.1981 38.1794 45.4385 37.9812 45.7018 37.8174C45.6273 37.3818 45.9778 36.9297 46.2543 36.5996C46.6063 36.1793 47.0473 35.8174 47.5391 35.5348C48.4938 34.9867 49.7923 34.7125 50.9107 34.9015C52.0286 35.0906 53.1045 35.8476 53.9463 36.5069C54.317 36.7969 54.6552 37.1192 54.9715 37.4579C55.0858 36.4635 55.4633 35.4422 55.7512 34.5007C56.0926 33.3825 56.5008 32.288 56.9743 31.2096C57.4212 30.1924 57.9016 29.174 58.5757 28.2606C58.9601 27.7398 59.6658 26.6883 60.5241 27.0891C61.3143 27.4585 60.9025 28.9166 60.8129 29.5239C60.6603 30.5589 60.4455 31.5769 60.2119 32.5991C59.6703 34.9727 59.1927 37.3545 58.7179 39.7397C58.451 41.08 58.2005 42.4227 57.9674 43.7679C57.7297 45.1401 57.5657 46.5324 57.275 47.8955C57.2686 47.9248 57.253 47.9468 57.2398 47.9703C57.8116 50.0014 58.2325 52.0821 58.6585 54.1397C58.8883 55.25 59.1137 56.3615 59.3266 57.4742C59.4295 58.012 59.5296 58.5501 59.6256 59.0891C59.7064 59.5438 59.8463 60.0319 59.743 60.489C59.7106 60.6333 59.4734 60.654 59.3984 60.5299C59.1502 60.1183 59.1224 59.6108 59.0383 59.1541C58.9386 58.6143 58.8349 58.0753 58.7284 57.5367C58.5026 56.395 58.2645 55.2549 58.0209 54.1161C57.5949 52.1256 57.1251 50.1226 56.8198 48.1114C56.6712 48.0746 56.5465 47.972 56.5597 47.8078C56.7284 45.7184 57.1776 43.619 57.5625 41.5544C57.95 39.4754 58.4107 37.4153 58.8847 35.3516C59.339 33.3739 59.9976 31.3775 60.206 29.3626C60.2508 28.9295 60.28 28.4935 60.2672 28.0583C60.2618 27.8713 60.2988 27.8515 60.0958 27.751C59.8673 27.638 59.9395 27.6765 59.7672 27.8014C59.5072 27.9901 59.3116 28.3032 59.1265 28.5514C58.5168 29.3671 58.0634 30.271 57.6525 31.1794C57.1676 32.2512 56.7357 33.3453 56.3444 34.4477C56.1379 35.0297 55.9532 35.6184 55.7837 36.2103C55.6287 36.7489 55.5231 37.3086 55.3193 37.834C55.6356 38.2046 55.9715 38.5901 56.1136 39.0439C56.1827 39.2644 55.8559 39.3682 55.722 39.1933C55.4295 38.8106 55.2434 38.3709 54.9294 37.9982C54.6164 37.6267 54.2576 37.2879 53.8709 36.9789C53.1063 36.3684 52.1415 35.7222 51.1598 35.436C50.1639 35.1456 48.9189 35.4227 48.0427 35.8993C47.572 36.1553 47.1447 36.4966 46.8156 36.8962C46.6744 37.0679 46.5793 37.2677 46.4787 37.4625C46.864 37.3417 47.2754 37.2772 47.6931 37.2697C50.013 37.2279 52.5117 38.5033 53.9774 40.0781C54.099 40.2088 53.9162 40.373 53.7713 40.2646C52.2014 39.0878 50.2379 37.8704 48.1328 37.7727C47.1511 37.7272 46.0569 38.0718 45.492 38.8354C45.2351 39.1829 45.0861 39.5796 44.9824 39.9842C44.9554 40.0897 44.9362 40.198 44.9189 40.3072C45.0871 40.2104 45.2603 40.1211 45.4431 40.0479C46.5532 39.6015 47.7475 39.7596 48.8394 40.1712C49.5414 40.4355 50.2173 40.7619 50.8709 41.1131C51.1991 41.2897 51.5217 41.475 51.838 41.669C52.1008 41.8299 52.4171 41.9884 52.3851 42.3106C52.3792 42.371 52.3517 42.4446 52.2832 42.4715C51.7685 42.6717 51.1803 42.1042 50.7612 41.8709C50.1858 41.5503 49.5921 41.2549 48.9815 40.9927C47.8535 40.5083 46.6579 40.2675 45.486 40.7747C44.5299 41.1883 43.7077 42.0248 43.6519 43.0196C43.6359 43.3034 43.6899 43.6347 44.0551 43.6943C44.3873 43.7485 44.747 43.5379 45.0212 43.3903C45.6538 43.0494 46.2717 42.6986 46.9225 42.3851C46.9358 42.3789 46.9477 42.378 46.9605 42.3739C46.8878 42.239 46.8142 42.1046 46.7443 41.9689C46.6917 41.8676 46.6364 41.7671 46.5797 41.6678C46.508 41.5424 46.4874 41.4221 46.5144 41.2909C46.5235 41.2467 46.5893 41.2119 46.6364 41.2285C46.6657 41.2388 46.6894 41.2508 46.7159 41.2661C46.7374 41.2785 46.7635 41.2864 46.7909 41.3021C46.8581 41.3402 46.9102 41.4125 46.9454 41.475C47.0039 41.578 47.0592 41.6827 47.1122 41.7882C47.2242 42.0103 47.3037 42.2395 47.3745 42.4748C47.4285 42.4244 47.4847 42.3751 47.5331 42.3205C47.5574 42.2932 47.5811 42.2663 47.6053 42.239C47.6163 42.2262 47.6277 42.2134 47.6387 42.2006C47.6433 42.1952 47.6483 42.1894 47.6529 42.184C47.6748 42.1588 47.657 42.1795 47.6479 42.1898C47.7594 42.0579 47.8956 41.9267 48.0624 41.8527C48.1072 41.8328 48.1488 41.82 48.199 41.8196C48.1945 41.8196 48.1465 41.8258 48.1812 41.8175C48.1981 41.8138 48.2192 41.8126 48.2365 41.8117C48.2786 41.8097 48.3183 41.8117 48.3558 41.8316C48.396 41.8527 48.4203 41.9015 48.4198 41.9416C48.4198 41.9532 48.4189 41.9648 48.4189 41.9764C48.4189 41.9917 48.4161 42.0115 48.4125 42.0264C48.4084 42.0421 48.4079 42.0384 48.4088 42.0318C48.3942 42.1369 48.3151 42.2258 48.2429 42.3052C48.1863 42.3677 48.1058 42.4277 48.0331 42.474C47.9618 42.5195 47.886 42.56 47.8119 42.6018C47.737 42.644 47.6661 42.6912 47.593 42.7359C47.5811 42.7433 47.5679 42.7454 47.5546 42.7495C47.9157 42.9663 48.237 43.2699 48.514 43.5429C48.8608 43.8846 49.327 44.3198 49.4555 44.7806C49.6191 45.3667 49.2891 45.9678 49.0702 46.5068C48.8014 47.1682 48.5094 47.8268 48.3736 48.5242C47.9326 50.7923 49.1538 53.3037 51.2361 54.6108C51.3837 54.7035 51.2539 54.9141 51.0935 54.8317C50.886 54.7254 50.6881 54.6084 50.4961 54.4851C50.4948 54.7763 50.4934 55.0679 50.4875 55.3592C50.4651 56.4562 50.4107 57.5503 50.3426 58.6457C50.274 59.7469 50.2141 60.8489 50.1534 61.9504C50.1241 62.4795 50.0939 63.0086 50.0588 63.5377C50.03 63.9745 50.0715 64.4705 49.9367 64.892C49.8924 65.031 49.6534 65.0409 49.6145 64.892C49.5034 64.4643 49.5757 63.9757 49.5798 63.5377C49.5843 63.0355 49.5976 62.5341 49.6131 62.0324C49.647 60.9324 49.6881 59.8325 49.705 58.7322C49.7215 57.6624 49.737 56.5923 49.7489 55.5221C49.7548 54.9968 49.7553 54.4718 49.7502 53.9465C49.7502 53.9424 49.7493 53.937 49.7493 53.9324C48.4916 52.8553 47.7146 51.3744 47.6099 49.7607C47.5295 48.5238 47.9481 47.39 48.4235 46.247C48.5565 45.9268 48.6945 45.6054 48.7955 45.2757C48.9376 44.812 48.896 44.5444 48.5834 44.1713C48.1186 43.617 47.4888 43.3249 46.9308 42.8831C46.4088 43.2265 45.8768 43.5549 45.3302 43.8672C44.8896 44.1191 44.338 44.381 43.8005 44.2486C42.7095 43.9806 42.9426 42.7181 43.2858 42.0227ZM47.3279 42.6097C47.3234 42.6138 47.3188 42.618 47.3138 42.6217C47.3211 42.625 47.3284 42.6291 47.3357 42.6329C47.3334 42.6246 47.3288 42.6175 47.3279 42.6097Z" fill="#FECDB3"/>
<path d="M43.286 42.0227C43.4921 41.6057 43.7791 41.2227 44.1278 40.8934C44.1146 40.5132 44.2375 40.1058 44.3372 39.7538C44.4715 39.281 44.6754 38.8172 44.9985 38.423C45.1982 38.1794 45.4386 37.9812 45.7019 37.8174C45.6274 37.3818 45.9779 36.9297 46.2544 36.5996C46.6064 36.1793 47.0474 35.8174 47.5392 35.5348C48.4939 34.9867 49.7924 34.7125 50.9107 34.9015C52.0287 35.0906 53.1045 35.8476 53.9464 36.5069C54.3171 36.7969 54.6553 37.1192 54.9715 37.4579C55.0858 36.4635 55.4633 35.4422 55.7512 34.5007C56.0927 33.3825 56.5008 32.288 56.9743 31.2096C57.4213 30.1924 57.9016 29.174 58.5757 28.2606C58.9601 27.7398 59.6658 26.6883 60.5241 27.0891C61.3143 27.4585 60.9025 28.9166 60.8129 29.5239C60.6603 30.5589 60.4455 31.5769 60.2119 32.5991C59.6703 34.9727 59.1927 37.3545 58.7179 39.7397C58.451 41.08 58.2005 42.4227 57.9674 43.7679C57.7298 45.1401 57.5657 46.5324 57.275 47.8955C57.2686 47.9248 57.2531 47.9468 57.2398 47.9703C57.8116 50.0014 58.2325 52.0821 58.6585 54.1397C58.8884 55.25 59.1137 56.3615 59.3267 57.4742C59.4295 58.012 59.5296 58.5501 59.6256 59.0891C59.7065 59.5438 59.8463 60.0319 59.743 60.489C59.7106 60.6333 59.4734 60.654 59.3984 60.5299C59.1502 60.1183 59.1224 59.6108 59.0383 59.1541C58.9386 58.6143 58.8349 58.0753 58.7284 57.5367C58.5026 56.395 58.2645 55.2549 58.0209 54.1161C57.5949 52.1256 57.1251 50.1226 56.8198 48.1114C56.6713 48.0746 56.5465 47.972 56.5597 47.8078C56.7284 45.7184 57.1777 43.619 57.5625 41.5544C57.9501 39.4754 58.4108 37.4153 58.8847 35.3516C59.339 33.3739 59.9976 31.3775 60.206 29.3626C60.2508 28.9295 60.28 28.4935 60.2672 28.0583C60.2618 27.8713 60.2988 27.8515 60.0959 27.751C59.8673 27.638 59.9395 27.6765 59.7672 27.8014C59.5072 27.9901 59.3116 28.3032 59.1265 28.5514C58.5168 29.3671 58.0634 30.271 57.6525 31.1794C57.1676 32.2512 56.7357 33.3453 56.3445 34.4477C56.1379 35.0297 55.9533 35.6184 55.7837 36.2103C55.6288 36.7489 55.5232 37.3086 55.3193 37.834C55.6356 38.2046 55.9715 38.5901 56.1137 39.0439C56.1827 39.2644 55.8559 39.3682 55.722 39.1933C55.4295 38.8106 55.2435 38.3709 54.9295 37.9982C54.6164 37.6267 54.2576 37.2879 53.871 36.9789C53.1064 36.3684 52.1416 35.7222 51.1598 35.436C50.1639 35.1456 48.919 35.4227 48.0428 35.8993C47.5721 36.1553 47.1447 36.4966 46.8157 36.8962C46.6745 37.0679 46.5794 37.2677 46.4788 37.4625C46.8641 37.3417 47.2755 37.2772 47.6932 37.2697C50.0131 37.2279 52.5118 38.5033 53.9775 40.0781C54.099 40.2088 53.9162 40.373 53.7714 40.2646C52.2014 39.0878 50.238 37.8704 48.1329 37.7727C47.1511 37.7272 46.057 38.0718 45.4921 38.8354C45.2352 39.1829 45.0862 39.5796 44.9825 39.9842C44.9555 40.0897 44.9363 40.198 44.919 40.3072C45.0872 40.2104 45.2604 40.1211 45.4432 40.0479C46.5533 39.6015 47.7476 39.7596 48.8394 40.1712C49.5415 40.4355 50.2174 40.7619 50.871 41.1131C51.1991 41.2897 51.5218 41.475 51.8381 41.669C52.1009 41.8299 52.4171 41.9884 52.3852 42.3106C52.3792 42.371 52.3518 42.4446 52.2832 42.4715C51.7686 42.6717 51.1804 42.1042 50.7613 41.8709C50.1859 41.5503 49.5922 41.2549 48.9816 40.9927C47.8536 40.5083 46.658 40.2675 45.4862 40.7747C44.53 41.1883 43.7078 42.0248 43.6521 43.0196C43.6361 43.3034 43.69 43.6347 44.0552 43.6943C44.3874 43.7485 44.7471 43.5379 45.0213 43.3903C45.5547 43.1028 46.0812 42.8128 46.6219 42.5398C46.6722 42.539 46.7224 42.5336 46.7727 42.5365C47.0469 42.5534 47.3111 42.6353 47.5579 42.7478C47.5565 42.7483 47.5552 42.7491 47.5533 42.7495C47.9144 42.9663 48.2357 43.2699 48.5127 43.5429C48.8596 43.8846 49.3257 44.3198 49.4542 44.7806C49.6178 45.3667 49.2878 45.9678 49.0689 46.5068C48.8001 47.1682 48.5081 47.8268 48.3724 48.5242C47.9313 50.7923 49.1525 53.3037 51.2348 54.6108C51.3824 54.7035 51.2526 54.9141 51.0922 54.8317C50.8847 54.7254 50.6868 54.6084 50.4948 54.4851C50.4935 54.7763 50.4921 55.0679 50.4862 55.3592C50.4638 56.4562 50.4094 57.5503 50.3413 58.6457C50.2727 59.7469 50.2128 60.8489 50.1521 61.9504C50.1228 62.4795 50.0926 63.0086 50.0575 63.5377C50.0287 63.9745 50.0702 64.4705 49.9354 64.892C49.8911 65.031 49.6521 65.0409 49.6132 64.892C49.5022 64.4643 49.5744 63.9757 49.5785 63.5377C49.583 63.0355 49.5963 62.5341 49.6118 62.0324C49.6457 60.9324 49.6868 59.8325 49.7037 58.7322C49.7202 57.6624 49.7357 56.5923 49.7476 55.5221C49.7535 54.9968 49.754 54.4718 49.749 53.9465C49.749 53.9424 49.748 53.937 49.748 53.9324C48.4903 52.8553 47.7133 51.3744 47.6086 49.7607C47.5282 48.5238 47.9468 47.39 48.4222 46.247C48.5552 45.9268 48.6932 45.6054 48.7942 45.2757C48.9363 44.812 48.8947 44.5444 48.5821 44.1713C48.1173 43.617 47.4875 43.3249 46.9295 42.8831C46.4075 43.2265 45.8755 43.5549 45.3289 43.8672C44.8883 44.1191 44.3367 44.381 43.7992 44.2486C42.7096 43.9806 42.9427 42.7181 43.286 42.0227Z" fill="#FEBF9F"/>
<path d="M50.1932 72.0466L50.1931 72.0466C50.1406 72.0656 50.0676 72.0892 49.9844 72.1163C49.8087 72.1733 49.5869 72.2453 49.4131 72.3191C49.1386 72.4359 48.7874 72.6278 48.5883 72.9854C48.4863 73.168 48.4722 73.3883 48.5486 73.5813C48.6314 73.7902 48.8162 73.9547 49.0632 73.9999L49.1533 73.5081M50.1932 72.0466L63.9293 74.5242C63.6937 74.0384 63.4425 73.5581 63.1765 73.0839L63.6126 72.8393L63.1765 73.0839C63.1356 73.0109 63.09 72.9411 63.0339 72.8554C63.0112 72.8207 62.9868 72.7834 62.9603 72.7423C62.9223 72.6831 62.8809 72.6173 62.8404 72.5463C60.5103 72.1145 58.1642 72.0692 55.8003 72.3699L55.7372 71.8739L55.8003 72.3699C54.6627 72.5146 53.543 72.751 52.4422 73.0587L52.442 73.0587C51.8907 73.2126 51.3481 73.3814 50.8189 73.5734C50.7209 73.609 50.6171 73.6544 50.492 73.7091L50.4895 73.7102C50.3706 73.7623 50.2335 73.8224 50.0919 73.8742C49.8104 73.9773 49.4511 74.0716 49.0624 73.9998L49.1533 73.5081M50.1932 72.0466C50.779 71.8359 51.3781 71.6453 51.9877 71.4839C53.2016 71.1617 54.4517 70.9526 55.7014 70.8288L55.7508 71.3263L55.7015 70.8288C58.0111 70.5999 60.399 70.7448 62.6661 71.1852M50.1932 72.0466L62.6661 71.1852M49.1533 73.5081C49.5411 73.5798 49.9293 73.4098 50.2953 73.2494C50.4156 73.1968 50.5334 73.1451 50.6482 73.1034L49.0249 73.2291C48.9675 73.3316 49.0091 73.4817 49.1533 73.5081ZM62.6661 71.1852C62.6647 71.1587 62.6635 71.1331 62.6623 71.1088C62.6592 71.0473 62.6566 70.9944 62.6536 70.9566L62.6536 70.9562C62.6297 70.6573 62.5993 70.3585 62.5622 70.0609L62.5622 70.0606C62.5253 69.7624 62.4808 69.4646 62.4297 69.1675M62.6661 71.1852L62.4297 69.1675M62.4297 69.1675C62.4162 69.0897 62.4008 69.0262 62.382 68.949C62.3676 68.8901 62.3514 68.8232 62.3325 68.7357C62.2968 68.57 62.2591 68.3537 62.2803 68.1297C62.2804 68.1294 62.2804 68.1292 62.2804 68.129L62.7781 68.1763C62.7976 67.969 63.1457 67.8309 63.2677 68.0587C63.3879 68.2825 63.4218 68.5523 63.454 68.8084C63.463 68.8798 63.4719 68.9501 63.4824 69.0181C63.529 69.3207 63.5706 69.6241 63.6045 69.9283C63.6384 70.2336 63.6659 70.5394 63.6863 70.8456L64.1852 70.8121C64.1852 70.8122 64.1852 70.8123 64.1852 70.8125M62.4297 69.1675L63.7082 67.8221C63.8222 68.0343 63.8752 68.2572 63.9073 68.4439C63.9236 68.5385 63.9357 68.6316 63.9461 68.7142C63.9475 68.7251 63.9489 68.7358 63.9502 68.7463C63.9593 68.8185 63.9671 68.8811 63.9765 68.9414L63.9766 68.942C64.024 69.25 64.0666 69.5604 64.1014 69.8729L64.1014 69.8731C64.1361 70.1853 64.1643 70.4985 64.1852 70.8125M64.1852 70.8125C64.1874 70.8457 64.1906 70.8835 64.1942 70.9251C64.2095 71.1056 64.2309 71.3573 64.2049 71.611C64.3004 71.7463 64.3759 71.886 64.4372 72.0093C64.4795 72.0944 64.5189 72.1798 64.5537 72.2551C64.5579 72.2642 64.562 72.2732 64.5661 72.282C64.6054 72.3672 64.6379 72.4363 64.6691 72.4954L64.6692 72.4955C64.9136 72.9589 65.1439 73.4271 65.362 73.8992L64.9082 74.1089L65.362 73.8992C65.8569 74.9702 66.2849 76.0672 66.647 77.1779L66.647 77.1782C66.7569 77.5157 66.8602 77.8551 66.9567 78.1961M64.1852 70.8125L66.9567 78.1961M66.9567 78.1961C67.0103 78.0275 67.0648 77.8591 67.1201 77.691L67.1202 77.6908C67.5375 76.4243 68.0058 75.1713 68.5229 73.9348M66.9567 78.1961L73.427 67.4368C73.5133 67.2708 73.5236 67.0808 73.4553 66.9103C73.3919 66.7522 73.2746 66.6424 73.1549 66.5787C72.9166 66.4519 72.5313 66.4547 72.3042 66.7837L72.3041 66.7838C70.7567 69.0281 69.5424 71.4963 68.5229 73.9348M68.5229 73.9348L68.9842 74.1277M68.5229 73.9348L68.9842 74.1277M68.9842 74.1277C69.7067 72.3997 70.5243 70.6649 71.4862 69.0114L68.9842 74.1277ZM68.1066 80.0672C68.2771 79.4543 68.4597 78.8436 68.654 78.2361C69.0425 77.021 69.4784 75.8178 69.961 74.6292L69.961 74.6292C70.938 72.2224 72.1343 69.9223 73.3547 67.5758C73.3788 67.5295 73.4028 67.4832 73.4269 67.4369L68.1066 80.0672ZM68.1066 80.0672C68.0728 80.1891 68.0394 80.326 68.0038 80.4716C67.9231 80.8023 67.8314 81.1778 67.6987 81.5236C67.8357 82.2798 67.9489 83.1141 67.8489 83.9098L67.8488 83.91C67.8028 84.275 67.4972 84.4527 67.2756 84.4901C67.1512 84.5111 66.9969 84.5024 66.8491 84.4248C66.6901 84.3414 66.5758 84.197 66.5273 84.022L66.5272 84.0213C66.3518 83.3844 66.2747 82.7204 66.2028 82.1016C66.1966 82.0484 66.1905 81.9956 66.1844 81.9431C66.141 81.8611 66.1104 81.7643 66.1056 81.6541L66.1056 81.6534C66.1012 81.5521 66.1042 81.4548 66.1099 81.3649C66.0822 81.1688 66.0523 80.9795 66.0151 80.7952L66.015 80.7947C65.7993 79.7207 65.5249 78.6591 65.1809 77.6151L65.1809 77.615C64.8344 76.563 64.4173 75.5313 63.9294 74.5243L68.1066 80.0672ZM62.8111 72.2345C60.9735 71.8508 59.05 71.6697 57.1594 71.7341L62.8111 72.2345Z" fill="#F29F34" stroke="#F29F34"/>
<path d="M33.4033 58.0795L33.4033 58.0794C33.3655 57.8478 33.2221 57.6788 33.0502 57.5873C32.8928 57.5036 32.724 57.4888 32.5848 57.5069C32.4455 57.5251 32.287 57.5825 32.1568 57.7024C32.0151 57.833 31.9174 58.0321 31.9397 58.2668L33.4033 58.0795ZM33.4033 58.0795C33.5038 58.6963 33.5318 59.3259 33.4595 59.9595L33.4033 58.0795ZM21.2001 82.1398C21.2678 82.1734 21.3267 82.2027 21.3887 82.2305L33.2811 60.8931C33.2435 61.0216 33.1854 61.2096 33.0855 61.3865C33.0051 61.5289 32.8857 61.6856 32.708 61.802C32.0382 62.8732 31.3227 63.9185 30.6143 64.9534C30.3982 65.2691 30.1827 65.5839 29.9694 65.8982C29.0285 67.2843 28.1234 68.669 27.3506 70.1266C26.6022 71.5385 25.9739 72.9775 25.575 74.4828L25.575 74.4829C25.1712 76.0058 24.9983 77.5631 24.9319 79.1545L24.9319 79.1546C24.8826 80.3305 25.0248 81.4425 25.1741 82.6099C25.2321 83.0637 25.2912 83.526 25.3405 84.0036C26.9715 84.7377 28.5945 85.4906 30.2113 86.2448L30.2116 86.245C30.3784 86.3229 30.5255 86.4705 30.5748 86.6815C30.6207 86.8777 30.5649 87.0557 30.4853 87.1795C30.3295 87.422 29.9868 87.5954 29.6277 87.4448C27.9705 86.7502 26.3195 86.0423 24.6717 85.3357L24.5385 85.2785L24.5385 85.2785C23.9889 85.0429 23.44 84.8018 22.8933 84.5616C22.6261 84.4443 22.3594 84.3272 22.0934 84.211L22.0934 84.211L21.4831 83.9447L20.8724 83.6781C20.8024 83.6475 20.727 83.6192 20.6355 83.5847C20.6257 83.581 20.6157 83.5772 20.6055 83.5734C20.5061 83.5359 20.3898 83.4915 20.2756 83.4384C20.0528 83.3348 19.7738 83.1702 19.5938 82.8703C19.4804 82.6826 19.4777 82.4649 19.544 82.2906C19.6153 82.1035 19.785 81.9229 20.0439 81.8807C20.3608 81.8288 20.631 81.8942 20.8518 81.9801C20.959 82.0218 21.0596 82.0704 21.146 82.113C21.1647 82.1223 21.1827 82.1312 21.2001 82.1398ZM20.4492 82.3523L20.4511 82.3555C20.4505 82.3545 20.4499 82.3534 20.4492 82.3523ZM23.1871 79.8793C23.0964 78.2082 23.2666 76.539 23.6165 74.9145L23.1871 79.8793ZM31.715 60.4664C31.7826 60.2181 31.8425 59.9773 31.8859 59.7396L31.8859 59.7395C31.9735 59.2598 31.9866 58.7635 31.9397 58.2671L31.715 60.4664ZM32.9352 58.1722L32.9352 58.1727C32.9352 58.1725 32.9352 58.1724 32.9352 58.1722ZM33.4595 59.9596C33.425 60.2627 33.3737 60.5769 33.2812 60.8928L33.4595 59.9596Z" fill="#F29F34" stroke="#F29F34"/>
<path d="M30.9426 96.4638L30.9426 96.4639C30.8023 97.0583 30.6894 97.6614 30.6052 98.2683L30.6051 98.2686C30.5982 98.3191 30.5901 98.3728 30.5817 98.4293C30.5149 98.8762 30.4224 99.495 30.62 100.063L30.6203 100.064C30.6937 100.274 30.8732 100.445 31.1077 100.489C31.3737 100.54 31.6358 100.412 31.766 100.168L30.9426 96.4638ZM30.9426 96.4638C31.2071 95.3442 31.6009 94.2476 32.1805 93.2493L30.9426 96.4638ZM37.1778 90.6815C37.1598 90.6914 37.1418 90.7013 37.1239 90.7112C36.3572 91.1322 35.6817 91.5031 35.0941 92.0713C34.4598 92.6846 33.9195 93.3907 33.4944 94.1905L37.1778 90.6815ZM37.1778 90.6815C37.3213 90.6028 37.436 90.4697 37.4806 90.2971M37.1778 90.6815L37.4806 90.2971M36.7712 89.5065L36.7706 89.5066C35.7546 89.657 34.8403 90.1977 34.0747 90.8814C33.307 91.567 32.6617 92.4202 32.1805 93.2492L36.7712 89.5065ZM36.7712 89.5065C37.1111 89.4566 37.3504 89.6838 37.4403 89.8771M36.7712 89.5065L37.4403 89.8771M32.4212 97.0313L32.4212 97.0311C32.6718 96.0372 33.0262 95.072 33.4943 94.1906L32.4212 97.0313ZM32.4212 97.0313C32.3016 97.5049 32.2116 97.9913 32.139 98.4858L32.4212 97.0313ZM37.4403 89.8771C37.4913 89.9869 37.5224 90.1359 37.4806 90.2971M37.4403 89.8771L37.4806 90.2971" fill="#F29F34" stroke="#F29F34"/>
<path d="M68.678 101.594L68.6779 101.594C68.6406 101.615 68.5977 101.637 68.5509 101.661C68.2932 101.795 67.9137 101.992 67.649 102.341L67.6476 102.343C67.517 102.517 67.4784 102.736 67.511 102.924C67.5457 103.124 67.6913 103.4 68.0255 103.468M68.678 101.594L68.1264 102.979M68.678 101.594C69.0072 101.412 69.3268 101.211 69.6375 100.991L69.6375 100.991M68.678 101.594L69.6375 100.991M68.0255 103.468C68.0256 103.468 68.0257 103.468 68.0258 103.468L68.1264 102.979M68.0255 103.468C68.0254 103.468 68.0254 103.468 68.0253 103.468L68.1264 102.979M68.0255 103.468C68.5331 103.573 69.0201 103.401 69.3994 103.209C69.718 103.048 70.027 102.835 70.2718 102.667C70.3208 102.633 70.3672 102.601 70.4105 102.572M68.1264 102.979C68.7481 103.107 69.4375 102.633 69.9797 102.261C70.0313 102.225 70.0815 102.191 70.1302 102.158M70.4105 102.572L70.1302 102.158M70.4105 102.572C70.4106 102.572 70.4106 102.572 70.4106 102.572L70.1302 102.158M70.4105 102.572C71.1084 102.099 71.747 101.544 72.3485 100.968C73.5971 99.7729 74.736 98.4594 75.8346 97.1269C77.9813 94.5236 79.9455 91.5978 81.4341 88.4434L70.1302 102.158M69.6375 100.991C70.2917 100.526 70.9129 99.9933 71.5128 99.4212L71.5129 99.4211M69.6375 100.991L71.5129 99.4211M71.5129 99.4211C72.6613 98.3259 73.7773 97.1612 74.8159 95.9417L74.8159 95.9417M71.5129 99.4211L74.8159 95.9417M74.8159 95.9417C76.9241 93.467 78.6744 90.7462 80.3085 87.8297L74.8159 95.9417ZM81.1812 88.318L81.181 88.3183L81.1812 88.318ZM80.3087 87.8295C80.3927 87.6795 80.5368 87.5542 80.7296 87.5134C80.9122 87.4746 81.0811 87.5239 81.2042 87.6046C81.4546 87.7689 81.59 88.1129 81.4341 88.4432L80.3087 87.8295Z" fill="#F29F34" stroke="#F29F34"/>
<path d="M40.8988 24.1446C40.741 24.7977 41.059 25.4347 41.6093 25.5677C42.1594 25.7004 42.7329 25.2784 42.8907 24.6256C43.0482 23.9724 42.7302 23.3355 42.1802 23.2025C41.6298 23.0694 41.0563 23.4917 40.8988 24.1446Z" fill="#4F4F4F"/>
<path d="M44.6331 23.2477C44.6686 23.383 42.9062 22.5712 41.6697 22.365C40.8456 22.2271 39.8358 21.9103 39.832 21.8493C39.8276 21.7886 40.8076 21.2499 42.5111 21.6015C43.5735 21.821 44.4415 22.5002 44.6331 23.2477Z" fill="#4F4F4F"/>
<path d="M50.5736 26.0795C50.4158 26.7327 50.7338 27.3696 51.2841 27.5026C51.8342 27.6354 52.4077 27.2134 52.5655 26.5605C52.723 25.9073 52.4051 25.2704 51.855 25.1374C51.3047 25.0044 50.7311 25.4266 50.5736 26.0795Z" fill="#4F4F4F"/>
<path d="M54.3075 25.1826C54.3429 25.318 52.5805 24.5061 51.344 24.2999C50.5199 24.162 49.5102 23.8453 49.5063 23.7843C49.502 23.7235 50.4819 23.1848 52.1854 23.5365C53.2478 23.756 54.1158 24.4352 54.3075 25.1826Z" fill="#4F4F4F"/>
<path d="M35.8843 39C35.8843 39 36.8372 40.9391 33.2734 41.5552C29.7096 42.1714 27.2707 43.1732 28.1978 44.0076C29.125 44.8423 31.3852 46.9386 28.6016 48" stroke="#FFC7D0" stroke-width="2" stroke-miterlimit="10" stroke-linecap="round"/>
<path d="M71.5007 45.834C71.5007 45.834 71.1129 45.4777 71.038 45.0232C70.963 44.5686 71.3847 43.1908 69.1493 43.2582C66.9139 43.3256 66.7771 41.3428 67.5587 40.4704C68.34 39.5981 68.3108 37.5541 66.3051 37.2771" stroke="#FFC7D0" stroke-width="2" stroke-miterlimit="10" stroke-linecap="round"/>
<ellipse cx="63.3119" cy="29.4973" rx="1.61251" ry="1.075" transform="rotate(-31.7263 63.3119 29.4973)" fill="#FEBF9F"/>
<path d="M64.6877 27C64.6877 27 63.4332 25.7858 62.4855 25.3231C61.5382 24.8605 62.0191 22.0705 60.9135 21.4515C59.8083 20.8322 56.8256 20.7913 55.2519 19.7242C53.6782 18.6566 52.9611 14.8192 52.6736 13.1867C52.386 11.5541 52.7613 11.1503 52.7613 11.1503C52.7613 11.1503 51.4904 18.778 49.6026 17.8821C47.6225 17.8821 39.7315 18.0834 37.6007 16.8341C35.4699 15.5848 39.6928 12.2227 39.6928 12.2227C39.6928 12.2227 42.5733 4.43627 48.1694 3.36212C53.7659 2.28796 60.7689 3.62507 62.4568 7.08633C64.1443 10.5476 67.4111 14.5962 66.9572 19.46C66.5032 24.3237 64.6877 27 64.6877 27Z" fill="#E88594"/>
</g>
<defs>
<clipPath id="clip0_188_6131">
<rect width="100" height="100" fill="white"/>
</clipPath>
</defs>
</svg>
