<svg width="168" height="168" viewBox="0 0 100 100" fill="none" xmlns="http://www.w3.org/2000/svg">
<g clip-path="url(#clip0_188_6016)">
<path d="M88.8407 18.2344C88.8407 12.5209 86.4766 2.53452 76.6257 1.61839C53.786 -0.50568 0.919341 -4.76311 4.14089 21.7261C7.36243 48.2154 -3.91298 99.147 21.5909 100.833C41.9941 102.181 74.5925 102.839 89 103L88.8407 18.2344Z" fill="#CDEBEA"/>
<path d="M61.5847 12.4458C61.5847 12.4458 68.1639 10.6034 71.9686 15.605C75.7728 20.6066 75.3868 28.0581 79.6745 29.2831C83.9627 30.5081 85.4452 33.8767 85.956 37.7554C86.4662 41.6341 82.5865 72.5627 72.0702 77.7685C61.5539 82.9743 60.46 81.3424 60.46 81.3424C60.46 81.3424 44.0272 83.7811 38.3099 79.266C32.5926 74.7504 36.7443 64.7031 34.7023 60.4165C32.6604 56.1292 27.3511 53.5776 28.0657 44.391C28.7802 35.2043 34.7023 32.7544 34.3959 28.1613C34.0894 23.5677 34.4672 14.0449 45.3203 9.48159C56.2447 4.88698 61.5847 12.4458 61.5847 12.4458Z" fill="#72453D"/>
<path d="M68.6397 58.9638C68.6397 58.9638 65.9068 61.0642 63.1054 62.2833C60.3039 63.5028 56 65.0215 56 73.9358C56.7067 89.5224 89 103 89 103V32C89 32 82.1677 42.2976 78.6831 43.9239L68.6397 58.9638Z" fill="#E49085"/>
<path d="M70.9031 39C70.9031 39 74.1269 44.3431 78.2865 43.6376C78.2865 43.6376 81.1982 45.7546 79.4305 52.4079C77.6628 59.0611 71.6309 59.6663 68.0955 58.5573L63 52.0049L70.9031 39Z" fill="#FECDB3"/>
<path d="M75 43.1638C72.4326 41.9553 70.6853 39 70.6853 39L63 51.9199L64.5831 54C65.179 53.8817 65.7885 53.6969 66.4042 53.4219C69.6772 51.9617 73.1378 46.4836 75 43.1638Z" fill="#FEBF9F"/>
<path d="M43 34.6271C43 34.6271 43.9669 60.2333 60.0407 57.8424C69.2879 58.0458 71.6773 44.2832 70.8462 38.9975C70.8462 38.9975 66.207 47.5616 66.9402 39.6717C66.9402 33.4123 57.2865 27 57.2865 27C57.2865 27 47.0218 41.5844 43 34.6271Z" fill="#FECDB3"/>
<path fill-rule="evenodd" clip-rule="evenodd" d="M82.0361 23.2623C82.0361 21.036 83.6587 19.1887 85.7858 18.8384C85.9332 18.7995 86.088 18.7788 86.2476 18.7788L86.4779 18.7788L86.5199 18.7786H87.5712L87.6179 18.7788L92.5046 18.7788C93.5014 18.7788 94.3095 19.5868 94.3095 20.5837C94.3095 21.045 94.1364 21.466 93.8516 21.7851C94.774 22.0924 95.4391 22.9628 95.4391 23.9885C95.4391 24.4219 95.3204 24.8275 95.1137 25.1747C96.0054 25.4989 96.6422 26.3538 96.6422 27.3575C96.6422 28.2167 96.1756 28.9669 95.4819 29.3684C95.7577 29.7503 95.9203 30.2195 95.9203 30.7266C95.9203 32.0089 94.8807 33.0485 93.5983 33.0485H88.4492C87.8749 33.0485 87.3492 32.8399 86.9438 32.4944C84.0763 31.4157 82.0361 28.6475 82.0361 25.4029V23.2623Z" fill="#FECDB3"/>
<path fill-rule="evenodd" clip-rule="evenodd" d="M82.0361 86.5546C82.0361 84.3282 83.6587 82.4809 85.7858 82.1306C85.9332 82.0917 86.088 82.071 86.2476 82.071L86.4779 82.071L86.5199 82.0708H87.5712L87.6179 82.071L92.5046 82.071C93.5014 82.071 94.3095 82.8791 94.3095 83.8759C94.3095 84.3373 94.1363 84.7583 93.8514 85.0775C94.774 85.3847 95.4391 86.2551 95.4391 87.2809C95.4391 87.7142 95.3204 88.1198 95.1138 88.4669C96.0054 88.7912 96.6422 89.6461 96.6422 90.6498C96.6422 91.509 96.1755 92.2592 95.4818 92.6607C95.7577 93.0427 95.9203 93.5118 95.9203 94.019C95.9203 95.3014 94.8807 96.3409 93.5983 96.3409H88.4492C87.8747 96.3409 87.3488 96.1322 86.9434 95.7865C84.0761 94.7076 82.0361 91.9396 82.0361 88.6951V86.5546Z" fill="#FECDB3"/>
<path d="M61.9927 47.5659C61.2896 48.7165 57.9785 50.422 55.5257 49.5386" stroke="#FF9C76" stroke-width="4" stroke-linecap="round"/>
<path d="M64.9502 67.1504L83.9619 80.1457" stroke="#FDAAAA" stroke-width="2" stroke-linecap="round"/>
<path d="M48.9439 42.703C49.1192 43.3636 49.7122 43.7791 50.2688 43.6315C50.8251 43.4837 51.1336 42.8284 50.9583 42.1681C50.7828 41.5076 50.1898 41.0921 49.6334 41.2396C49.0768 41.3873 48.7684 42.0428 48.9439 42.703Z" fill="#4F4F4F"/>
<path d="M51.8494 40.0916C51.9467 40.1954 49.9772 40.3232 48.7714 40.7379C47.9676 41.0138 46.9111 41.2198 46.8781 41.167C46.8448 41.1148 47.4602 40.1583 49.154 39.6475C50.2105 39.3291 51.3159 39.5159 51.8494 40.0916Z" fill="#4F4F4F"/>
<path d="M58.3976 40.0695C58.573 40.7302 59.1661 41.1459 59.7228 40.9982C60.2793 40.8504 60.5878 40.1949 60.4126 39.5344C60.2369 38.8738 59.6439 38.4581 59.0873 38.6057C58.5306 38.7534 58.2221 39.4091 58.3976 40.0695Z" fill="#4F4F4F"/>
<path d="M60.9251 37.2039C61.0224 37.3077 59.0529 37.4355 57.8471 37.8502C57.0433 38.1261 55.9868 38.3321 55.9538 38.2793C55.9205 38.2271 56.5359 37.2706 58.2297 36.7598C59.2862 36.4414 60.3916 36.6282 60.9251 37.2039Z" fill="#4F4F4F"/>
</g>
<defs>
<clipPath id="clip0_188_6016">
<rect width="100" height="100" fill="white"/>
</clipPath>
</defs>
</svg>
