<svg width="168" height="168" viewBox="0 0 100 100" fill="none" xmlns="http://www.w3.org/2000/svg">
<g clip-path="url(#clip0_188_6097)">
<path d="M96 91.7048V91.8897C96 102.273 95.2055 106.993 85.8578 112.027C76.5101 117.061 19.4558 115.176 15.3344 110.295C13.1433 107.701 12.566 100.19 13.3047 91.3844C13.9378 83.6635 15.5888 74.9382 18.0282 67.661C23.2606 52.0836 43.9112 48.4357 43.9112 48.4357L63.0783 47C63.0783 47 79.204 50.198 86.6523 58.2209C93.4055 65.4981 95.969 81.322 96 91.7048Z" fill="#C0D492"/>
<path d="M44.8042 47.7065C44.8042 47.7065 51.9338 55.9726 57.1372 53.558C62.3336 51.1447 63 46.2479 63 46.2479L62.3289 41.4476L61.745 37.2129L61.7114 36.9844L43 34L44.8042 47.7065Z" fill="#FECDB3"/>
<path d="M68.3283 19.9C65.4547 10.8338 55.6948 -3.68407 39.6448 10.7741C36.5008 12.6605 33.4981 21.1307 46.6393 39.9205C51.3259 42.3225 61.5981 46.2029 65.1931 42.5089C69.6869 37.8914 70.9871 32.7385 68.3283 19.9Z" fill="#FECDB3"/>
<path d="M41.1825 28.0513C40.3782 27.9355 39.485 27.9853 38.8625 28.5215C38.5452 28.7949 38.3261 29.174 38.1867 29.5747C37.6992 30.9765 38.2043 32.6281 39.2599 33.6486C40.3156 34.6692 41.8347 35.0941 43.2809 34.9827C44.1282 34.9176 45.0217 34.6406 45.5401 33.9498C46.0015 33.3352 46.0821 32.4889 45.9299 31.729C45.4724 29.4492 43.2989 28.3569 41.1825 28.0513Z" fill="#FECDB3"/>
<path d="M44 34C43.6351 32.8534 43.021 31.7795 42.1428 31.0248C41.2647 30.2701 40.1091 29.8593 39 30.0439" fill="#FEBF9F"/>
<path d="M44 32.386C43.8571 32.2173 43.5761 32.1368 43.3083 32.087C42.6853 31.9711 42.013 31.9627 41.4041 32.1126C40.7953 32.2624 40.2578 32.5797 40 33" fill="#FEBF9F"/>
<path d="M62 35.3135C60.3577 34.7165 58.388 34.9866 57 36" stroke="#FF9C76" stroke-width="4" stroke-linecap="round"/>
<path d="M96 91.5007V91.6872C96 102.161 95.2126 106.922 85.9478 112.001C76.683 117.079 20.1347 115.177 16.0498 110.254C13.8782 107.637 13.6415 98.1145 14.3736 89.2319L27.6103 91.1245C27.6103 91.1245 30.556 93.0609 31.2881 93.5893C32.0202 94.1176 40.6082 97.1883 49.0917 97.611C57.569 98.0337 69.1961 97.1883 69.1961 97.1883C69.1961 97.1883 79.4575 80.7907 80.085 81.002C80.6941 81.2072 76.8614 88.7906 76.6399 89.2319C76.886 88.8465 80.9524 82.5933 81.9675 82.7984C82.9826 83.0035 78.9592 90.0089 78.7377 90.4005C79.033 90.0648 83.8746 84.5016 84.4836 84.9118C85.0988 85.3345 80.6694 92.9801 80.5095 93.266C80.7002 93.0796 83.8746 90.0089 84.4836 90.3135C85.1111 90.6305 84.3791 92.2155 84.3791 92.2155L96 91.5007Z" fill="#FECDB3"/>
<path d="M38.3932 25.0345C38.5163 25.65 39.2633 27.6516 39.5194 27.8656C41.2533 29.3142 42.976 28.5268 43.9324 30.5737C44.567 29.3279 45.7056 23.1373 46.1075 21.7978C48.3906 21.1537 50.6318 20.223 52.5873 18.8802C54.5428 17.5374 57.5275 17.3386 58.1367 15.0466C58.1803 14.8834 58.3673 14.7141 58.4572 14.5717C58.6028 14.3413 58.7107 14.2104 58.9496 14.0793C62.5421 12.1056 68.5026 8.28536 68.1815 4.19928C64.2903 3.9824 55.1119 1.60123 51.251 2.13263C49.0593 2.43426 46.8681 2.86084 44.8195 3.69575C42.7714 4.53086 40.8606 5.79873 39.5194 7.55793C37.0774 10.7623 36.7531 15.2977 36.7463 19.3269C36.7463 20.7578 37.7777 23.9267 38.3932 25.0345Z" fill="#4A214A"/>
<path d="M51.3759 25.4821C51.3807 26.2514 51.9097 26.8715 52.558 26.8676C53.206 26.8634 53.727 26.2362 53.7222 25.4671C53.7171 24.6978 53.1881 24.0777 52.5401 24.0816C51.8918 24.0855 51.3708 24.713 51.3759 25.4821Z" fill="#4F4F4F"/>
<path d="M55.2787 23.4549C55.3554 23.5955 53.1729 23.1794 51.7418 23.2914C50.7879 23.3654 49.5784 23.2919 49.5574 23.2252C49.5358 23.1589 50.4762 22.2899 52.4663 22.2108C53.7075 22.1617 54.8595 22.6771 55.2787 23.4549Z" fill="#4F4F4F"/>
<path d="M62.9467 23.0202C62.9515 23.7895 63.4805 24.4096 64.1288 24.4057C64.7768 24.4015 65.2978 23.7743 65.293 23.0052C65.2879 22.2359 64.7589 21.6158 64.1109 21.6197C63.4626 21.6236 62.9416 22.2511 62.9467 23.0202Z" fill="#4F4F4F"/>
<path d="M66.3966 18.4022C66.5373 18.4788 64.4775 19.3117 63.3354 20.1813C62.5738 20.7604 61.5175 21.354 61.4636 21.3093C61.4095 21.2653 61.7291 20.0253 63.3588 18.8805C64.3754 18.1667 65.6229 17.9756 66.3966 18.4022Z" fill="#4F4F4F"/>
<path d="M52 44.4568C52.435 45.0698 52.8759 45.6818 53.4373 46.1538C54.2816 46.8714 55.3393 47.2142 56.3782 47.4849C58.0997 47.923 59.898 48.1995 61.6327 47.8228C62.1205 47.7142 62.5763 47.5551 63 47.3139L62.5528 44C59.0957 44.4268 55.4549 44.6076 52 44.4568Z" fill="#FEBF9F"/>
<path fill-rule="evenodd" clip-rule="evenodd" d="M76.1611 90.8196C75.782 90.9717 75.3395 90.955 74.9578 90.7359C74.2959 90.3559 74.0674 89.5114 74.4473 88.8496L78.6014 81.613C78.9813 80.9512 79.8258 80.7227 80.4877 81.1026C81.021 81.4087 81.273 82.0166 81.1519 82.5874C81.5815 82.4348 82.0727 82.4638 82.4991 82.7086C83.2318 83.1292 83.5108 84.0363 83.1626 84.7889C83.5821 84.6524 84.0556 84.6872 84.4684 84.9241C85.243 85.3688 85.5105 86.3573 85.0658 87.1319L83.7695 89.3902C84.0081 89.4058 84.247 89.4747 84.4684 89.6018C85.243 90.0465 85.5105 91.0349 85.0658 91.8096L81.1463 98.6376C80.7016 99.4122 79.7131 99.6797 78.9385 99.235C78.1638 98.7903 77.8963 97.8019 78.341 97.0272L79.6374 94.7689C79.3987 94.7534 79.1599 94.6845 78.9385 94.5574C78.2057 94.1368 77.9268 93.2296 78.275 92.4771C77.8554 92.6136 77.382 92.5788 76.9692 92.3419C76.4118 92.0219 76.117 91.4204 76.1611 90.8196Z" fill="#FECDB3"/>
<path fill-rule="evenodd" clip-rule="evenodd" d="M10.7383 91.1002C10.6066 90.8098 10.5593 90.4776 10.6215 90.1402C10.7835 89.2618 11.6269 88.681 12.5053 88.843L20.2477 90.2708C21.1261 90.4328 21.7069 91.2762 21.5449 92.1546C21.383 93.033 20.5395 93.6138 19.6611 93.4518L19.4196 93.4072C19.6474 93.8084 19.7406 94.289 19.6504 94.7782C19.5594 95.2717 19.2972 95.6904 18.9364 95.9844C19.7959 96.347 20.319 97.2693 20.1428 98.2246C20.0525 98.7142 19.7937 99.1303 19.4372 99.4239L21.2532 99.5465C22.1349 99.6061 22.8014 100.369 22.7419 101.251C22.6823 102.133 21.9192 102.799 21.0375 102.74L12.9068 102.19C12.0251 102.131 11.3586 101.368 11.4181 100.486C11.4777 99.6044 12.2407 98.9378 13.1225 98.9974L13.1333 98.9981L10.8491 98.5769C9.7455 98.3734 9.01585 97.3138 9.21935 96.2102C9.31036 95.7167 9.57255 95.298 9.93331 95.0041C9.07379 94.6414 8.55076 93.7191 8.72692 92.7639C8.90843 91.7796 9.77095 91.0928 10.7383 91.1002Z" fill="#FECDB3"/>
<path d="M82 96L79.871 98.64L71 99L73.7964 98.5744C76.6465 98.1407 79.4132 97.2725 82 96Z" fill="#FEBF9F"/>
<path d="M31.9917 71.3171L30.5146 91.9966" stroke="#95AE59" stroke-width="2" stroke-linecap="round"/>
<path d="M71.6274 70.5786L73.8431 88.5501" stroke="#95AE59" stroke-width="2" stroke-linecap="round"/>
<path d="M26.742 41.1946C24.7516 40.4083 22.7519 39.5549 21.0045 38.4619C22.2847 37.4455 23.2752 36.1798 23.8639 34.7799C24.4713 33.3417 24.6208 31.7308 24.3592 30.2254C24.6395 29.5926 24.8264 28.9502 24.9198 28.2981C25.1721 26.5339 24.6582 24.7121 23.4808 23.1492C22.5557 21.9218 21.2848 20.9726 19.9112 20.4548C19.8551 20.3973 19.799 20.3398 19.7336 20.2822C17.2666 17.8755 13.3513 17.3002 10.4171 18.9015C8.26782 20.0713 6.5858 22.3533 5.67003 25.3353C4.64213 28.7009 4.80098 32.2677 6.11856 35.0963C7.58566 38.2797 10.5759 40.5234 13.725 40.8206C15.4725 40.9836 17.3414 40.5905 19.1262 39.67C19.5374 39.4687 19.9205 39.2385 20.2943 38.9892C22.1538 40.1974 24.3124 41.1179 26.4524 41.9712C26.4991 41.9904 26.5458 42 26.5925 42C26.7607 42 26.9102 41.8945 26.9756 41.7315C27.0504 41.5206 26.9476 41.2809 26.742 41.1946ZM22.8453 23.6573C23.8826 25.0381 24.3405 26.6393 24.1255 28.1735C24.0882 28.394 24.0414 28.6146 23.9854 28.8351C23.6303 27.8475 23.0789 26.9462 22.3501 26.2175C22.2566 24.7121 21.8081 23.2354 21.0605 21.9698C21.7333 22.4204 22.3398 22.9957 22.8453 23.6573ZM21.9015 30.1008C21.8828 30.0528 21.8642 29.9953 21.8361 29.9377C21.8642 29.8802 21.8829 29.8131 21.9109 29.746C22.1539 29.0077 22.3034 28.2406 22.3501 27.464C22.9201 28.231 23.3126 29.1419 23.5181 30.1104C23.1911 30.7816 22.7519 31.4527 22.1912 32.1047C22.237 31.4336 22.1529 30.7624 21.9015 30.1008ZM17.5834 35.4895C17.4993 35.3744 17.4152 35.2497 17.3311 35.1347C18.7141 34.3772 19.9102 33.2937 20.7886 31.9897C20.7138 32.6129 20.583 33.2362 20.4055 33.8402C19.4336 34.6361 18.4992 35.1826 17.5834 35.4895ZM19.8915 35.2497C19.8541 35.3265 19.8261 35.4031 19.7887 35.4799C19.3963 35.8826 18.9664 36.2278 18.4992 36.5154C18.3777 36.4004 18.2656 36.2757 18.1534 36.1607C18.7234 35.9401 19.3028 35.6333 19.8915 35.2497ZM15.7239 33.9265C15.8547 34.2238 15.9948 34.5114 16.1537 34.7895C15.6304 35.0196 15.0884 35.1922 14.5277 35.3073L14.2754 35.3552C14.2287 35.3648 14.1913 35.3744 14.1446 35.384C13.668 35.1826 13.2195 34.9238 12.799 34.6073C12.0982 33.6485 12.0701 32.2486 12.0982 31.5966C12.2009 29.4296 12.9952 27.5407 14.2941 26.4092C15.4061 25.4408 16.9293 25.0573 18.4244 25.2299C18.7982 25.5367 19.144 25.8819 19.4336 26.2654C19.9196 26.9078 20.2653 27.6078 20.4989 28.3269C20.1532 28.0872 19.77 27.8954 19.3682 27.7708C18.3684 27.4544 17.3872 27.5886 16.6209 28.1352C14.9025 29.3625 14.8744 31.9705 15.7239 33.9265ZM16.5938 35.4991C16.6406 35.5662 16.6779 35.6333 16.7247 35.7004C16.4724 35.7388 16.2014 35.7867 15.9584 35.7579C16.1733 35.6812 16.3873 35.5949 16.5938 35.4991ZM13.7708 25.7764C12.3037 27.0612 11.3973 29.1611 11.2945 31.5582C11.2665 32.2102 11.3132 32.8143 11.4253 33.3608C10.9301 32.8239 10.5002 32.2582 10.1358 31.7212C9.5938 30.9158 9.0238 29.9665 8.89297 28.9214C8.62198 26.7065 10.4442 24.7121 12.3598 24.0601C12.9765 23.8587 13.6213 23.7532 14.2661 23.7532C15.2286 23.7532 16.1817 23.9738 17.0601 24.3765C15.8547 24.5011 14.6969 24.971 13.7708 25.7764ZM9.47233 32.191C10.1638 33.217 11.0889 34.358 12.2383 35.221C12.3972 35.4223 12.5747 35.6045 12.771 35.7579C12.3131 35.9497 11.8926 36.2182 11.6216 36.6496C9.93956 35.6524 8.6687 33.9265 8.27623 31.9801C8.11737 31.2034 8.08934 30.3788 8.19213 29.5447C8.42575 30.5514 8.95932 31.4335 9.47233 32.191ZM14.0708 36.2373C14.6034 36.4387 15.1641 36.5538 15.7622 36.5825C16.2668 36.6017 16.7807 36.5538 17.2947 36.4291C17.4442 36.5921 17.5843 36.7551 17.7432 36.9086C16.2855 37.5702 14.6128 37.7331 13.0803 37.2825C12.8373 37.2154 12.5943 37.1291 12.3514 37.0236C12.7055 36.573 13.3784 36.3908 14.0708 36.2373ZM16.8919 34.4443C16.7331 34.1663 16.5929 33.8786 16.4621 33.5814C15.7425 31.9513 15.7238 29.7844 17.0788 28.8159C17.4339 28.5666 17.8638 28.4324 18.3216 28.4324C18.5833 28.4324 18.8543 28.4803 19.1346 28.5666C19.8074 28.7776 20.4055 29.209 20.8073 29.7652C20.826 29.9186 20.8353 30.072 20.8447 30.2254C20.042 32.0089 18.6207 33.5047 16.8919 34.4443ZM20.07 25.7572C20.042 25.7093 20.0046 25.6613 19.9672 25.6134C20.5466 25.8531 21.0886 26.1791 21.5651 26.601C21.5838 27.2434 21.5278 27.8954 21.3969 28.5283C21.1437 27.5502 20.7232 26.6106 20.07 25.7572ZM21.4614 25.4791C20.6297 24.9134 19.6859 24.5587 18.7141 24.4148C16.8452 23.0149 14.3128 22.5355 12.1075 23.2738C11.687 23.4176 11.2758 23.6094 10.874 23.8587C12.8364 21.7588 15.565 20.5794 18.1067 20.8575C18.5646 20.9055 19.0131 21.0109 19.4617 21.1643C20.527 22.3341 21.21 23.8683 21.4614 25.4791ZM6.84651 34.7416C5.61303 32.0952 5.47285 28.7584 6.44469 25.5846C7.29504 22.8136 8.8369 20.7041 10.7993 19.6302C11.7991 19.0837 12.9205 18.8248 14.0512 18.8248C15.4622 18.8248 16.8919 19.2371 18.1067 20.0233C14.4717 19.6686 10.6965 21.8547 8.68739 25.4983C7.48194 27.6749 7.06143 30.0336 7.48194 32.1527C7.93047 34.3676 9.39757 36.3236 11.3226 37.4263C11.2758 37.714 11.2852 38.0304 11.3506 38.3468C11.444 38.7975 11.659 39.2098 11.958 39.5741C9.80874 38.7879 7.90245 37.0236 6.84651 34.7416ZM15.4622 39.9289C14.6959 40.1111 13.7989 39.9577 13.1261 39.5166C12.7616 39.2865 12.285 38.855 12.1355 38.1646C12.1168 38.0496 12.0982 37.9249 12.0982 37.8099C12.3505 37.9153 12.6028 38.0112 12.8551 38.0783C14.6773 38.6153 16.677 38.3756 18.3684 37.5222C18.4151 37.5605 18.4618 37.6085 18.4992 37.6468C17.5554 38.9029 16.5378 39.67 15.4622 39.9289ZM18.7608 38.9317C18.5926 39.018 18.4244 39.0947 18.2562 39.1714C18.5552 38.8742 18.8543 38.5386 19.1346 38.1646C19.2748 38.2701 19.4149 38.3756 19.5551 38.481C19.3028 38.644 19.0328 38.7879 18.7608 38.9317ZM20.284 37.9824C20.0504 37.829 19.8261 37.6564 19.6112 37.4934C19.9196 37.014 20.1999 36.5058 20.4522 35.9593C20.4615 35.9593 20.4709 35.9497 20.4709 35.9401C21.0409 35.3265 21.5455 34.5306 21.8539 33.6485C22.5921 32.9389 23.1995 32.2102 23.6761 31.4815C23.6948 32.4883 23.5172 33.5047 23.1247 34.4443C22.5547 35.8059 21.5642 37.0236 20.284 37.9824Z" fill="#4A214A"/>
</g>
<defs>
<clipPath id="clip0_188_6097">
<rect width="100" height="100" fill="white"/>
</clipPath>
</defs>
</svg>
