<svg width="168" height="168" viewBox="0 0 100 100" fill="none" xmlns="http://www.w3.org/2000/svg">
<g clip-path="url(#clip0_188_5980)">
<path d="M49.3412 111C44.1933 111 39.2067 110.285 34.4869 108.937C34.4369 108.921 34.3868 108.909 34.3368 108.893L38.7008 87.5288C38.7008 87.5288 38.5952 87.6014 38.395 87.7356C36.8796 88.7435 32.2689 89.5375 25.0264 89.3761C18.5739 89.2323 15.452 84.7571 12.3056 79.1219V79.1163L12.9403 76.8485L12.3056 79.1051V79.0995L12.308 79.0966C12.7164 78.5946 27.2835 60.6914 33.3028 60.128L34.4424 61.6931C34.4424 61.6931 47.9903 48.63 59.6646 44.4489C59.7703 44.4097 59.8703 44.3762 59.9704 44.3427C60.026 44.3259 60.076 44.3035 60.1316 44.2868L74.3243 41C74.3243 41 75.0025 41.3466 76.131 41.967C76.2089 42.0062 76.2922 42.0509 76.3756 42.1012C81.2288 44.7619 93.2256 51.7881 96.0386 57.5567C101.384 71.2869 101.257 99.9726 96.0386 104.874C90.8204 109.775 65.9035 111 49.3412 111Z" fill="#808080"/>
<path d="M82 98.8007C81.9486 98.8707 81.8971 98.9354 81.8457 99L81.0002 78.1413C80.997 78.0713 81.0323 78.0067 81.0741 78.0013C81.1191 77.9905 81.1577 78.0497 81.1609 78.1251L82 98.8007Z" fill="#9A9999" stroke="#9A9999" stroke-width="2"/>
<path d="M75.3952 17.2555C75.3952 17.2555 86.011 16.0057 86.2366 17.3723C86.4623 18.7389 75.2506 20.899 75.2506 20.899L75.3952 17.2555Z" fill="#AE9DD8"/>
<path d="M74 41.133C74 41.133 72.8172 45.496 68.3536 47.3384C63.89 49.1807 61.4628 46.5907 61.4628 46.5907L61.324 43.7818L61 37.1812L70.0918 30.7089L72.4881 29L74 41.133Z" fill="#FECDB3"/>
<path d="M71.8886 33.2835C70.3642 38.27 66.285 42.3856 61.3346 44L61 37.4363L70.3907 31C70.8582 31.2177 71.2884 31.5257 71.6336 31.9134C71.793 32.094 71.9417 32.3064 71.9842 32.5453C72.032 32.7949 71.963 33.0445 71.8886 33.2835Z" fill="#FEBF9F"/>
<path d="M49.1586 20.2728C50.3465 15.5659 55.3571 6.82155 65.8968 9.49924C79.0713 12.8464 76.9115 27.0716 73.024 30.2095C73.132 31.7785 73.1536 35.1047 72.376 35.8578C71.4041 36.7991 55.673 46.4341 51.5344 39.5187C46.5408 31.1746 47.9348 24.875 49.1586 20.2728Z" fill="#FECDB3"/>
<path d="M76.3374 16.9631C74.4259 10.8184 69.6119 8.28823 64.5862 8.07134C64.5213 8.06851 64.457 8.07304 64.3921 8.07134C63.9435 8.02434 63.4887 8 63.0279 8C57.6822 8 53.0795 11.2391 51 15.8996C51.1442 15.928 51.2939 15.9506 51.4436 15.9563C52.4418 16.0072 53.4233 15.7071 54.3771 15.4127C55.7579 14.9823 57.1443 14.5576 58.5251 14.1272C59.4844 13.8327 60.6434 13.5779 61.392 14.2631C61.9521 14.7728 62.0408 15.6222 62.0907 16.3867C62.2571 18.8273 62.4235 21.2737 62.5954 23.7144C62.6453 24.5128 62.7728 25.4302 63.4383 25.8549C64.0372 25.1697 64.6361 24.4845 65.235 23.7993C65.5122 23.4822 65.8061 23.1537 66.1943 23.0178C66.8598 22.78 67.6139 23.1821 68.0298 23.7597C68.4457 24.3373 68.6066 25.0621 68.7785 25.7586C69.6136 29.1026 70.94 32.3105 72.7024 35.249L74.1436 38L75.4179 30.482C75.4168 30.482 78.2488 23.1079 76.3374 16.9631Z" fill="#434343"/>
<path d="M66.313 22.4405C67.4398 21.9546 68.8354 21.8337 69.996 22.2655C71.7884 22.9331 72.2556 25.3833 71.8787 27.1007C71.2965 29.753 68.6005 31.6891 65.9818 30.7669C64.3094 30.1777 63.1229 28.4537 63.0057 26.6606C62.8831 24.7858 64.7556 23.112 66.313 22.4405Z" fill="#FECDB3"/>
<path d="M34 60C34 60 31.0294 64.4995 23.5155 71.5007C16.188 78.3284 12.1922 78.972 12 79V78.9944C12.367 78.5635 27.6802 60.5652 34 60Z" fill="#434343"/>
<path d="M15.6317 45.7198C15.2627 45.0311 14.5908 44.4581 13.649 44.0008C10.7687 42.6179 7.06235 43.1358 4.42988 45.2955C3.41103 46.1275 2.56842 47.1798 1.92958 48.3699C1.64871 47.9622 1.40088 47.5324 1.1916 47.0861C0.293918 45.1633 0.0571057 42.8328 0.475658 40.1441C1.00986 36.7448 2.4803 33.709 4.61162 31.5878C6.76496 29.4502 9.60671 28.2491 12.3769 28.2711C12.6963 28.2766 13.0157 28.2987 13.3351 28.3317L13.3627 28.0562C13.0543 28.0232 12.7403 28.0011 12.4209 28.0011C9.56265 27.9571 6.63278 29.1912 4.41886 31.395C2.24349 33.5547 0.751021 36.6456 0.205801 40.1056C-0.223766 42.8438 0.018555 45.2294 0.938269 47.2018C1.17508 47.7087 1.46146 48.1936 1.79189 48.6453C0.993341 50.2376 0.569281 52.0668 0.580295 53.9565C0.602325 56.1493 1.27972 57.9619 2.48581 59.0583C3.74697 60.1988 5.47626 60.5459 7.15047 60.8765C8.8412 61.2126 10.5925 61.5652 11.7821 62.7497C13.4122 64.3695 13.3682 66.9259 13.1974 68.3033C12.7348 71.9727 10.7853 75.3555 7.83888 77.5924C7.12293 78.1378 6.33539 78.6227 5.5809 79.091C4.90901 79.5042 4.21509 79.9339 3.55973 80.4022C2.96494 80.8375 2.44726 81.2838 2.01218 81.7466C2.05624 81.8347 2.1003 81.9174 2.14987 82C2.59045 81.5317 3.11364 81.0689 3.72495 80.6281C4.36379 80.1598 5.0577 79.7356 5.72408 79.3224C6.48959 78.8541 7.27713 78.3692 8.00409 77.8128C11.0056 75.5318 12.9992 72.0774 13.4673 68.3364C13.649 66.9094 13.6931 64.2593 11.9803 62.5514C10.7247 61.3062 8.93482 60.9536 7.20554 60.6065C5.56988 60.2815 3.87364 59.9454 2.67306 58.8545C1.12001 57.444 0.866673 55.1796 0.855659 53.951C0.844644 52.1604 1.24117 50.4194 1.97363 48.8933C3.009 50.2156 4.40785 51.2403 5.99945 51.8133C8.21888 52.6067 10.7082 52.48 12.834 51.4607C14.0346 50.8877 14.9488 50.0943 15.4775 49.1687C16.1163 48.0668 16.1714 46.7115 15.6317 45.7198ZM15.2406 49.0365C14.7395 49.9125 13.8638 50.6673 12.7183 51.2128C10.6586 52.199 8.24091 52.3257 6.09307 51.5544C4.50698 50.9869 3.11915 49.9511 2.11132 48.6178C2.73914 47.4112 3.58176 46.3479 4.6006 45.5104C7.15597 43.4168 10.7412 42.9099 13.5279 44.2487C14.4201 44.6785 15.0479 45.2184 15.3893 45.852C15.885 46.7611 15.8299 48.0062 15.2406 49.0365Z" fill="#1E1E1E"/>
<path d="M16 78C16 78 20.1537 63.7453 22.2309 57.856C24.308 51.9673 27.9897 43.0867 27.9897 43.0867L31.2937 30L43 36.3561L37.7131 45.7968L33.276 61.4541C33.276 61.4541 29.4052 66.5488 24.6852 71.2222C19.9646 75.8967 16 78 16 78Z" fill="#FECDB3"/>
<path d="M40.9607 37L12 29.6274L12.4157 27L42 30.2117L40.9607 37Z" fill="#BA6A4C"/>
<path d="M37.0357 46.8596C37.0357 46.8596 39.854 43.4507 41.3354 42.5719C42.8167 41.6931 47.7306 36.808 48.3448 35.7183C48.9589 34.6286 49.4288 32.8364 48.381 33.012C47.3332 33.1877 38.4451 37.7567 38.4451 37.7567L37 47L37.0357 46.8596Z" fill="#FECDB3"/>
<path d="M32 40L40.6761 35L43 38.3784L32 40Z" fill="#FEBF9F"/>
<path d="M43 38C45.7614 38 48 35.7614 48 33C48 30.2386 45.7614 28 43 28C40.2386 28 38 30.2386 38 33C38 35.7614 40.2386 38 43 38Z" fill="#D9D9D9"/>
<path d="M31 29.0359C31 29.0359 34.6646 25.9749 36.9278 27.5765C36.9278 27.5765 39.3705 25.9749 40.7719 28.1108C40.7719 28.1108 42.64 27.1499 43.6818 28.4309C43.6818 28.4309 44.2564 29.3566 43.8613 30.9225C43.4662 32.489 41.059 37.401 39.4425 36.9738C37.826 36.5466 37.5024 35.7636 37.5024 35.7636C37.5024 35.7636 35.9214 36.3687 35.3468 35.4787C34.7721 34.5886 34.9877 33.6635 34.9877 33.6635C34.9877 33.6635 33.0836 34.162 32.868 32.5955C32.6525 31.029 33.6222 29.2138 33.6222 29.2138L31 29.0359Z" fill="#FECDB3"/>
<path d="M42.6036 70.2768L41.146 78.0632L39.6884 85.8496" stroke="#9A9999" stroke-width="2" stroke-linecap="round"/>
<path d="M35.0188 62.8221L35.4043 70.7809" stroke="#9A9999" stroke-width="2" stroke-linecap="round"/>
<path d="M50.4065 17.7225C49.9479 9.86859 51.3613 3.22226 63.4409 2.33439C78.5403 1.22454 78.5627 13.0495 78.5558 16.2684C78.5496 19.1817 59.7973 20.8157 50.4065 17.7225Z" fill="#6E58A6"/>
<circle cx="1" cy="1" r="1" transform="matrix(-1 0 0 1 54 23)" fill="#4F4F4F"/>
<path d="M54.2063 35.8738C54.2063 35.8738 51.3222 38.6697 49.7304 33.6821C50.2114 33.1037 51.456 31.8554 52.9901 31.7265C54.5242 31.5976 54.3176 34.5314 54.2063 35.8738Z" fill="#FF9C76"/>
<ellipse cx="68.5242" cy="26.1359" rx="1.27733" ry="1.62195" transform="rotate(40.4783 68.5242 26.1359)" fill="#FEBF9F"/>
<path d="M57.1558 47.3338C48.8846 80.8843 66.1904 71.5271 79 46" stroke="#F1C20D" stroke-width="2"/>
<path d="M59.977 21.7815C58.893 23.9345 57.2923 28.159 59.5611 27.8325C62.3971 27.4245 61.6116 24.2006 59.977 21.7815Z" fill="#77BBFF"/>
<path d="M62.8583 28.0054C62.0796 29.552 60.9298 32.5865 62.5595 32.352C64.5966 32.0589 64.0324 29.7431 62.8583 28.0054Z" fill="#77BBFF"/>
<path d="M35.712 21.9934C36.7883 22.0193 37.6662 21.7551 38.3791 21.1202C38.9761 20.5889 39.1446 19.9389 38.8759 19.2237C38.6025 18.4959 37.9746 18.1158 37.1682 18.0301C35.9131 17.8969 34.7674 18.209 33.7607 18.8979C32.6368 19.6671 32.7822 21.077 34.0385 21.6773C34.5877 21.9401 35.1807 22.0261 35.712 21.9934Z" fill="#FFE2BF"/>
<path d="M42.1742 24C43.1947 23.9991 43.9903 23.5655 43.9999 23.0043C44.0091 22.4849 43.1228 22.004 42.1479 22C40.9996 21.9952 40.0005 22.4816 40 23.0458C39.9989 23.6042 40.9035 24.0009 42.1742 24Z" fill="#FFE2BF"/>
<path d="M19.7961 24.9864C22.4195 25.0818 24.9056 24.5389 27.211 23.3887C30.9581 21.5192 33.7106 18.7195 34.748 14.5456C35.3954 11.94 34.7603 9.51821 33.2466 7.3587C31.426 4.76095 29.1679 2.59396 26.2446 1.26912C22.7988 -0.292432 19.2788 -0.475472 15.7491 1.0698C15.608 1.13184 15.4602 1.21544 15.3125 1.2216C13.2647 1.30608 11.6576 2.38144 10.1585 3.60023C8.27521 5.13099 6.90755 7.03706 6.34478 9.45177C5.70747 12.1855 5.95841 14.8303 7.05837 17.4078C7.68422 18.8743 8.45252 20.2357 9.62525 21.352C11.1715 22.8238 13.027 23.7271 15.0373 24.3466C16.5924 24.8258 18.1877 25.0612 19.7961 24.9864Z" fill="#FFE2BF"/>
<path d="M16 7.56604C16.9486 5.68663 19.4259 4.59477 21.5746 5.1407C23.7234 5.68663 25.2705 7.83344 24.9604 9.89028C24.6503 11.9471 22.4924 13.6218 20.2693 13.4959V17" stroke="#4A214A" stroke-miterlimit="10" stroke-linecap="round" stroke-linejoin="round"/>
<path d="M21 19.5C21 19.7761 20.7761 20 20.5 20C20.2239 20 20 19.7761 20 19.5C20 19.2239 20.2239 19 20.5 19C20.7761 19 21 19.2239 21 19.5Z" fill="#4A214A"/>
<path d="M51.684 14.2603C51.5996 14.7993 51.3807 15.3368 50.9665 15.6974C50.6368 15.9891 50.7266 16.2094 50.3002 16.1299C50.4894 14.7857 50.2378 12.9063 50.6825 11.1533C51.7673 11.3658 51.8327 13.2693 51.684 14.2603Z" fill="#AE9DD8"/>
<path d="M54.808 20.6966C54.9031 20.7471 52.4063 21.3438 50.7916 21.9531C49.7152 22.3589 48.3407 22.7787 48.3129 22.7489C48.2846 22.7195 49.2994 21.8682 51.5493 21.0643C52.9526 20.563 54.2877 20.4156 54.808 20.6966Z" fill="#4F4F4F"/>
</g>
<defs>
<clipPath id="clip0_188_5980">
<rect width="100" height="100" fill="white"/>
</clipPath>
</defs>
</svg>
