<svg width="301" height="218" viewBox="0 0 301 218" fill="none" xmlns="http://www.w3.org/2000/svg">
<g clip-path="url(#clip0_27_13078)">
<path d="M265.584 213.848H197.901V221.959H265.584V213.848Z" fill="#215E66"/>
<path d="M186.115 115.894L189.282 110.031L181.788 102.951L172.228 74.3529L172.184 74.3509C172.078 73.543 171.987 71.7159 172.831 69.4715C174.287 65.5924 172.396 62.1271 172.396 62.1271C172.896 59.6517 173.732 57.2576 174.286 54.7941C174.344 54.5373 174.399 54.2612 174.3 54.0169C174.189 53.7448 173.913 53.5787 173.64 53.4711C172.048 52.8456 170.484 53.6729 169.651 55.0405C169.163 55.842 168.841 56.7252 168.589 57.6254C168.47 58.0532 167.955 59.3568 167.96 59.9848L165.428 44.7314C165.203 43.3772 164.085 42.424 162.943 42.6134C162.373 42.7081 161.9 43.0714 161.598 43.58C161.406 43.9026 161.293 44.2868 161.258 44.6952C161.216 44.5996 161.191 44.5426 161.191 44.5426C151.203 43.574 155.853 67.0551 155.853 67.0551L157.238 73.831L162.008 113.923C162.159 115.193 162.526 116.298 163.065 117.251L163.064 117.252L163.066 117.253C163.952 118.819 178.065 130.798 178.065 130.798L185.556 116.927L186.317 116.499L186.115 115.894Z" fill="#FBD1C2"/>
<path opacity="0.16" d="M178.554 93.0888L179.997 103.96L181.788 102.951L178.554 93.0888Z" fill="#FF887C"/>
<path opacity="0.16" d="M164.275 112.137C164.275 112.137 161.018 115.516 166.774 118.869C166.774 118.869 163.573 114.339 164.275 112.137Z" fill="#FF887C"/>
<path d="M278.751 162.146L265.469 125.939C265.461 125.918 265.453 125.897 265.445 125.875L265.398 125.747L265.395 125.748C263.128 119.761 257.345 115.503 250.564 115.503H219.332C218.364 115.503 217.409 115.564 216.47 115.671L189.081 109.381L175.098 129.728L194.267 144.004L194.294 143.971L195.519 215.937H266.667L266.514 163.643L277.024 162.358L278.751 162.146Z" fill="#9380BD"/>
<path d="M180.171 133.506L197.597 140.832L194.552 166.771L194.267 144.004L180.171 133.506Z" fill="#695C92"/>
<path d="M252.302 165.383L247.146 165.783L243.445 155.471L245.245 166.709C245.367 167.475 246.038 168.032 246.814 168.012L251.318 167.892L255.368 179.01L252.302 165.383Z" fill="#695C92"/>
<path d="M282.892 182.955C282.803 181.257 277.023 162.358 277.023 162.358L252.301 165.383L255.367 179.009C255.33 179.065 221.46 221.959 221.46 221.959L249.396 221.949C250.456 221.949 253.684 217.592 254.488 216.758C256.176 215.008 257.853 213.248 259.542 211.498C263.207 207.701 266.874 203.913 270.92 200.507C276.234 196.032 284.05 190.91 282.892 182.955Z" fill="#FBD1C2"/>
<path opacity="0.16" d="M277.484 188.972C277.484 188.972 282.176 189.02 280.663 182.533C280.663 182.533 279.567 187.972 277.484 188.972Z" fill="#FF887C"/>
<path opacity="0.16" d="M265.584 182.674L255.368 179.009L252.234 182.982L265.584 182.674Z" fill="#FF887C"/>
<path d="M237.526 88.3382C237.526 84.7188 237.091 86.602 233.59 86.1516L237.485 87.0262C239.65 75.5879 235.71 73.9823 227.905 66.2387C232.278 62.0991 228.883 59.9133 226.156 59.0379C223.429 58.1624 213.505 54.9046 206.477 56.8513C202.349 57.9948 203.519 61.1272 203.937 63.1983C204.108 64.0494 203.227 64.7321 202.44 64.3661C198.168 64.723 197.232 61.3095 193.794 65.5976C189.417 71.0583 194.841 77.4031 194.841 77.4031C194.841 77.4031 193.873 79.1639 194.916 84.3518C195.959 89.5397 203.951 90.6601 203.951 90.6601L212.677 103.702C212.821 104.573 224.51 107.983 224.941 108.718C223.021 109.993 230.346 95.5927 230.346 98.0679C230.346 100.518 227.768 90.1192 229.654 91.3994C228.615 93.0866 231.749 88.614 232.278 90.5248C231.841 87.4635 233.59 93.2828 233.59 89.6501C233.59 88.3392 236.833 89.8304 236.214 88.7755C238.133 87.5005 237.526 90.814 237.526 88.3382Z" fill="#915457"/>
<path d="M233.245 82.6724L232.334 82.5911L232.341 82.5157C231.151 84.5202 230.167 86.0861 229.983 86.1059C216.716 87.5543 215.208 72.6349 215.208 72.6349C209.326 75.4434 206.931 75.9069 205.253 75.5609L205.154 76.6732L202.104 94.8979L201.666 98.3964C201.233 103.258 206.388 107.367 211.249 107.802L213.448 107.998L215.181 120.618C215.661 124.115 218.885 126.56 222.382 126.08L228.101 125.295C231.598 124.815 234.043 121.591 233.563 118.094L230.898 98.6841L231.394 93.1246L232.305 93.2059C235.135 93.4587 237.634 91.369 237.887 88.5382L237.912 88.2546C238.165 85.4239 236.075 82.9247 233.245 82.6724Z" fill="#FBD1C2"/>
<path opacity="0.41" d="M225.132 103.246C225.132 103.246 221.805 108.656 213.447 107.753L214.093 112.457C214.527 112.458 225.167 112.934 225.132 103.246Z" fill="#FF887C"/>
<path d="M208.754 100.313C208.754 100.313 206.572 102.25 204.166 100.317" stroke="#FF9C76" stroke-width="2" stroke-linecap="round"/>
<path d="M210.588 85.9975C210.095 86.8532 209.112 87.2103 208.391 86.7955C207.671 86.3806 207.486 85.3508 207.979 84.4954C208.471 83.64 209.454 83.2829 210.175 83.6975C210.896 84.1123 211.08 85.1424 210.588 85.9975Z" fill="#4F4F4F"/>
<path d="M207.806 80.3899C207.631 80.4982 210.33 81.4156 211.857 82.4465C212.874 83.1331 214.271 83.8168 214.337 83.7556C214.403 83.6953 213.903 82.13 211.732 80.7819C210.378 79.9413 208.766 79.7871 207.806 80.3899Z" fill="#4F4F4F"/>
<path d="M218.184 68.0238C218.184 68.0238 217.184 63.4721 219.589 59.6514C222.138 55.6004 229.995 53.1265 237.899 58.2592C245.804 63.3919 248.515 74.4905 249.334 81.3411C250.153 88.192 247.572 92.2742 251.083 93.1487C254.594 94.0234 257.008 83.9114 255.322 83.4611C255.322 83.4611 260.712 86.5177 261.427 92.315C262.598 101.81 250.732 107.951 243.211 102.332C233.767 95.2764 237.147 84.4821 237.147 84.4821L218.184 68.0238Z" fill="#915457"/>
<path d="M216.099 165.614L216.099 165.614C217.622 167.493 219.266 168.144 220.876 168.095C222.543 168.045 224.328 167.239 226.045 165.899C227.752 164.566 229.312 162.764 230.515 160.873C231.723 158.973 232.529 157.048 232.79 155.488C232.969 154.408 232.99 153.449 232.655 152.669L232.655 152.669C232.376 152.021 231.792 151.667 231.023 151.609C230.228 151.548 229.362 151.828 228.783 152.329L228.783 152.329C227.945 153.056 227.429 154.121 226.849 155.387C226.658 155.806 226.205 156.039 225.753 155.953C225.301 155.867 224.966 155.483 224.942 155.024C224.853 153.338 224.591 151.788 223.778 150.592C222.964 149.394 221.526 148.74 220.405 149.073L220.405 149.073C219.698 149.282 219.144 149.81 218.715 150.613C218.282 151.423 218.021 152.438 217.889 153.439C217.829 153.9 217.459 154.258 216.997 154.304C216.535 154.35 216.102 154.071 215.952 153.631C215.53 152.394 214.765 151.267 213.765 150.411L213.765 150.411C213.395 150.095 212.977 149.839 212.58 149.707C212.188 149.578 211.88 149.587 211.639 149.693L216.099 165.614ZM216.099 165.614C214.04 163.074 212.522 160.107 211.645 156.967M216.099 165.614L211.645 156.967M211.645 156.967C211.612 156.85 211.577 156.726 211.54 156.596M211.645 156.967L211.54 156.596M211.54 156.596C211.23 155.5 210.803 153.993 210.691 152.584M211.54 156.596L210.691 152.584M210.691 152.584C210.629 151.799 210.675 151.131 210.843 150.629M210.691 152.584L210.843 150.629M210.843 150.629C211.001 150.158 211.252 149.862 211.638 149.693L210.843 150.629Z" stroke="#74CEF5" stroke-width="2" stroke-linejoin="round"/>
<path d="M148.463 13.9941C148.463 13.9941 158.379 26.3129 156.358 38.9938" stroke="#FFB380" stroke-width="2" stroke-miterlimit="10" stroke-linecap="round"/>
<path d="M139.567 29.4814C139.567 29.4814 149.285 36.489 149.944 42.2364" stroke="#FFB380" stroke-width="2" stroke-miterlimit="10" stroke-linecap="round"/>
<path d="M170.493 26.5777C170.493 26.5777 162.985 35.9141 163.876 41.6308" stroke="#FFB380" stroke-width="2" stroke-miterlimit="10" stroke-linecap="round"/>
<path opacity="0.36" d="M123.089 43.5916L126.448 45.3847L123.021 47.3022L121.104 50.7288L119.311 47.3705L115.952 45.5773L119.379 43.6598L121.296 40.2332L123.089 43.5916Z" fill="#FFB380"/>
<path opacity="0.36" d="M45.2466 89.0726L48.605 90.8657L45.1784 92.7832L43.2609 96.2099L41.4677 92.8515L38.1094 91.0584L41.536 89.1409L43.4535 85.7142L45.2466 89.0726Z" fill="#FFB380"/>
<path opacity="0.36" d="M188.091 28.4429L191.171 30.0866L188.03 31.8443L186.272 34.9854L184.628 31.9069L181.55 30.2632L184.69 28.5055L186.448 25.3644L188.091 28.4429Z" fill="#FFB380"/>
<path opacity="0.36" d="M266.808 62.5537L269.888 64.1974L266.747 65.9551L264.989 69.0962L263.345 66.0177L260.267 64.374L263.407 62.6163L265.164 59.4752L266.808 62.5537Z" fill="#FFB380"/>
<path d="M171.03 12.8786L167.852 12.2449C168.011 13.3269 168.001 14.4295 167.793 15.5373C167.589 16.64 167.212 17.6756 166.681 18.6082L169.858 19.242C170.295 18.2887 170.623 17.248 170.826 16.1453C171.03 15.0375 171.094 13.9349 171.03 12.8786Z" fill="#8BACE7"/>
<path d="M141.316 42.3846L139.006 40.2332C138.652 41.2379 138.143 42.1766 137.48 43.0189C136.818 43.8561 136.048 44.5512 135.194 45.0789L137.504 47.2303C138.288 46.6366 139.025 45.911 139.683 45.0688C140.346 44.2265 140.892 43.3131 141.312 42.3795L141.316 42.3846Z" fill="#129D8C"/>
<path d="M175.66 34.9854L172.803 37.5057C173.912 38.0812 174.919 38.835 175.791 39.7671C176.656 40.6936 177.338 41.7408 177.818 42.8571L180.675 40.3368C180.112 39.2953 179.389 38.2883 178.517 37.3619C177.646 36.4297 176.674 35.6356 175.66 34.9854Z" fill="#D94E2B"/>
<path d="M43.8457 222.637H114.895V212.361H45.9444L43.8457 222.637Z" fill="#252166"/>
<path d="M98.18 75.8196C96.7468 76.5261 95.1628 76.9484 93.4882 77.0102C90.0851 77.1367 86.9595 75.7598 84.6614 73.439C83.5963 78.2634 81.7215 82.8614 79.0902 86.9875C77.7089 89.1539 79.3303 86.3238 77.7089 89.1539C77.7089 89.1539 75.2264 92.2763 69.7565 87.4981L69.8814 87.9143L71.1449 89.9478C68.1441 90.7807 65.6421 93.1578 65.6421 96.8264L65.72 97.1487C66.4962 100.369 68.8207 100.995 71.8215 100.162L72.0337 100.103C71.855 100.723 71.7125 101.361 71.6314 102.026L68.2828 129.56C67.513 135.892 71.6713 141.695 77.572 142.521L78.2956 142.623C84.1957 143.449 89.6029 138.986 90.3734 132.654L92.6702 113.769C92.821 113.723 92.9724 113.678 93.1226 113.626L93.9006 113.357C101.674 110.674 105.949 101.734 103.448 93.3914L98.18 75.8196Z" fill="#FECDB3"/>
<path d="M80.7129 106.481C80.7129 106.481 83.2577 114.46 92.9705 113.41L92.4811 120.021C92.4811 120.021 80.7129 117.74 80.7129 106.481Z" fill="#FEBF9F"/>
<path d="M92.5332 89.0163C93.0257 89.872 94.0087 90.2291 94.7298 89.8143C95.4503 89.3994 95.6347 88.3696 95.1424 87.5142C94.6497 86.6588 93.6667 86.3017 92.9459 86.7163C92.2249 87.1311 92.0407 88.1612 92.5332 89.0163Z" fill="#4F4F4F"/>
<path d="M95.6058 84.2833C95.7804 84.3917 93.0812 85.309 91.5549 86.3399C90.5371 87.0265 89.1407 87.7102 89.0749 87.649C89.0088 87.5887 89.5083 86.0235 91.6793 84.6753C93.0335 83.8347 94.6455 83.6806 95.6058 84.2833Z" fill="#4F4F4F"/>
<path d="M101.655 101.527C100.635 102.804 97.0413 103.668 95.0776 101.331" stroke="#FF9C76" stroke-width="2" stroke-linecap="round"/>
<path d="M41.6447 171.597L51.8695 160.801L35.072 150.028L22.1721 163.756C21.6973 164.349 21.2978 164.98 20.9652 165.637C17.8662 170.198 18.1686 176.469 22.0844 180.724L52.3805 212.972L63.9723 203.788L41.6447 171.597Z" fill="#FECDB3"/>
<path d="M57.7967 127.354L32.9234 148.576C32.145 149.24 32.2285 150.467 33.0898 151.019L49.8872 161.792L50.9569 162.478L53.6935 138.753C53.693 134.507 55.2375 130.388 57.7967 127.354Z" fill="#09866D"/>
<path opacity="0.46" d="M39.7808 172.994L41.6445 171.597L46.9685 179.273L39.7808 172.994Z" fill="#FEBF9F"/>
<path d="M150.745 47.6595C150.745 47.6595 150.721 47.7111 150.681 47.7978C150.656 47.4231 150.559 47.0696 150.39 46.7708C150.122 46.2994 149.696 45.9583 149.175 45.8617C148.133 45.6679 147.092 46.5209 146.862 47.7572L144.273 61.6806C144.289 61.1057 145.354 60.3066 145.252 59.9125C145.038 59.0833 143.94 58.1633 142.812 57.1224C141.316 55.9767 140.655 55.0698 139.187 55.6146C138.935 55.7083 138.679 55.8555 138.573 56.1028C138.478 56.3244 138.523 56.5782 138.572 56.8146C139.035 59.0808 141.34 60.2603 141.754 62.5364C141.754 62.5364 138.379 66.7038 139.644 70.2816C140.637 73.0906 140.07 75.1719 140.07 75.1719L140.141 75.1888L129.379 105.806L117.543 113.878L123.775 139.397C128.128 135.621 132.572 131.951 136.904 128.149C138.67 126.599 140.231 124.897 142.108 123.466C144.248 121.836 146.531 120.08 147.728 117.594C149.081 114.781 148.86 111.458 149.255 108.435C149.541 106.247 149.79 104.053 150.057 101.863C150.638 97.1016 151.219 92.3406 151.8 87.5797C152.18 84.4604 152.561 81.3411 152.941 78.2218L153.016 78.2397L155.233 68.3708C155.233 68.3708 159.908 46.9497 150.745 47.6595Z" fill="#FECDB3"/>
<path d="M124.261 139.067L117.338 113.036L97.2361 118.169C97.012 118.162 96.7909 118.152 96.5604 118.152L67.677 122.476C63.7433 122.476 60.2885 124.4 57.7962 127.355C55.2371 130.388 53.6925 134.507 53.6925 138.753L50.9559 162.479L44.9424 214.62H114.788L112.554 146.255L124.261 139.067Z" fill="#01A786"/>
<path d="M112.537 146.149L95.6807 153.444L112.537 150.453V146.149Z" fill="#09866D"/>
<path d="M69.6779 72.3356C66.6008 70.7343 62.8907 69.4852 62.8907 69.4852C65.9593 68.4845 68.1251 68.8808 69.6308 69.7759C68.1204 65.2964 72.5182 62.5647 72.5182 62.5647C71.8197 64.5786 71.7264 66.9548 71.8467 69.0165C73.9407 65.0612 78.7742 58.6303 87.7016 59.8292C100.437 61.5393 111.085 75.2739 105.698 82.6871C105.698 82.6871 97.9691 77.2408 91.0686 77.7319C84.1681 78.223 84.9024 89.0307 81.2338 83.0692C81.2338 83.0692 78.4823 100.954 69.6779 90.4064C69.6779 90.4064 58.0049 77.9146 69.6779 72.3356Z" fill="#2D284F"/>
<path d="M74.3046 65.3032C76.9946 62.0388 81.293 58.9679 87.7016 59.8283C99.0816 61.3565 108.784 72.4813 106.879 80.1227C94.3383 58.6125 79.1557 63.1159 74.3046 65.3032Z" fill="#2D284F"/>
<path d="M130.801 21.5138C130.359 22.6559 130.074 23.8148 129.946 24.9569L133.496 26.239C133.513 25.0633 133.746 23.882 134.188 22.7399C134.637 21.5921 135.271 20.5564 136.068 19.6494L132.518 18.3673C131.831 19.3079 131.249 20.366 130.801 21.5138Z" fill="#FFDB4D"/>
</g>
<defs>
<clipPath id="clip0_27_13078">
<rect width="300" height="217.784" fill="white" transform="translate(0.5)"/>
</clipPath>
</defs>
</svg>
