<svg width="32" height="32" viewBox="0 0 32 33" fill="none" xmlns="http://www.w3.org/2000/svg">
<path d="M7.63516 2.49935L7.30424 9.77965M10.9444 2.49935L11.2753 9.77965M21.341 2.59126C23.8833 4.47876 27.435 9.68322 27.7922 17.7195C27.8292 18.5519 27.4246 19.3398 26.6688 19.6906C26.129 19.9413 25.3998 20.2257 24.481 20.4678C24.1465 20.5561 23.9228 20.8768 23.9717 21.2192L24.7827 26.896C25.0081 28.4735 24.3902 29.8868 22.8538 30.3095C21.4168 30.7049 19.8793 29.7508 19.8793 28.2604V3.49604C19.8793 2.64661 20.6589 2.08489 21.341 2.59126ZM14.5479 4.06016C14.8526 5.85904 15.2786 9.00171 15.2444 12.358C15.2267 14.09 14.0699 15.6423 12.2509 16.05C11.8755 16.1342 11.4748 16.2099 11.0564 16.269L12.2768 26.8454C12.4624 28.4546 11.4654 30.0332 9.86022 30.2506C9.64559 30.2797 9.45014 30.297 9.28945 30.297C9.12869 30.297 8.93324 30.2797 8.71861 30.2506C7.11343 30.0332 6.11641 28.4546 6.30208 26.8454L7.52245 16.269C7.1041 16.2099 6.70342 16.1342 6.32807 16.05C4.50903 15.6423 3.3521 14.0899 3.33446 12.3578C3.30027 9.00191 3.72556 5.85964 4.02977 4.06071C4.18481 3.14385 4.98653 2.49935 5.9164 2.49935H12.6615C13.5911 2.49935 14.3927 3.14356 14.5479 4.06016Z" stroke="#1D2939" stroke-width="2" stroke-linecap="round" stroke-linejoin="round"/>
</svg>
