<svg width="24" height="24" viewBox="0 0 24 24" fill="none" xmlns="http://www.w3.org/2000/svg">
<path d="M10.9103 12.2599L11.2638 11.9064L10.9103 11.5528L4.6292 5.27204C4.62918 5.27202 4.62917 5.27201 4.62915 5.27199C4.43375 5.07628 4.43368 4.73678 4.62894 4.54096C4.71287 4.45731 4.84375 4.40637 4.99422 4.40637C5.14477 4.40637 5.27572 4.45737 5.35964 4.54111C5.35968 4.54114 5.35971 4.54117 5.35974 4.5412L11.6407 10.8219L11.9942 11.1755L12.3478 10.8219L18.6286 4.54129C18.6286 4.54125 18.6287 4.54122 18.6287 4.54118C18.7128 4.45731 18.8438 4.40637 18.9942 4.40637C19.1448 4.40637 19.2758 4.45742 19.3597 4.5412L19.7128 4.18755L19.3592 4.5407C19.5547 4.73642 19.5548 5.07598 19.3595 5.2718C19.3594 5.27188 19.3593 5.27196 19.3592 5.27204L13.0782 11.5528L12.7246 11.9064L13.0782 12.2599L19.3592 18.5407C19.5547 18.7364 19.5548 19.0759 19.3595 19.2718C19.1641 19.4666 18.824 19.4666 18.6287 19.2715L12.3478 12.9908L11.9942 12.6373L11.6407 12.9908L5.35974 19.2715C5.35972 19.2716 5.35969 19.2716 5.35967 19.2716C5.16431 19.4666 4.82424 19.4666 4.62883 19.2717C4.43366 19.0758 4.43378 18.7364 4.6292 18.5407L10.9103 12.2599Z" fill="#1D2939" stroke="#1D2939"/>
</svg>
