<svg width="24" height="24" viewBox="0 0 24 24" fill="none" xmlns="http://www.w3.org/2000/svg">
<path d="M11.9989 2.01416C6.4761 2.01416 1.9989 6.49116 1.9989 12.0142C1.9989 17.5372 6.4761 22.0142 11.9989 22.0142C17.5217 22.0142 21.9989 17.5372 21.9989 12.0142C21.9989 6.49116 17.5217 2.01416 11.9989 2.01416ZM11.9989 4.01416C16.4172 4.01416 19.9989 7.59616 19.9989 12.0142C19.9989 16.4322 16.4172 20.0142 11.9989 20.0142C7.5806 20.0142 3.9989 16.4322 3.9989 12.0142C3.9989 7.59616 7.5806 4.01416 11.9989 4.01416ZM11.9989 7.01416C11.4466 7.01416 10.9989 7.46216 10.9989 8.01416C10.9989 8.56616 11.4466 9.01416 11.9989 9.01416C12.5512 9.01416 12.9989 8.56616 12.9989 8.01416C12.9989 7.46216 12.5512 7.01416 11.9989 7.01416ZM11.9989 10.0142C11.4466 10.0142 10.9989 10.4622 10.9989 11.0142V16.0142C10.9989 16.5662 11.4466 17.0142 11.9989 17.0142C12.5512 17.0142 12.9989 16.5662 12.9989 16.0142V11.0142C12.9989 10.4622 12.5512 10.0142 11.9989 10.0142Z" fill="#1D2939"/>
</svg>
