<svg width="32" height="32" viewBox="0 0 32 32" fill="none" xmlns="http://www.w3.org/2000/svg">
<g clip-path="url(#clip0_188_19877)">
<path d="M0 5C0 4.73479 0.105357 4.48043 0.292893 4.2929C0.48043 4.10536 0.734784 4 1 4H10.996C13.084 4 14.9227 5.06667 15.9973 6.68533C16.5442 5.85908 17.2875 5.1813 18.1605 4.71268C19.0335 4.24405 20.0091 3.99918 21 4H31C31.2652 4 31.5196 4.10536 31.7071 4.2929C31.8946 4.48043 32 4.73479 32 5V25.084C31.9997 25.2158 31.9733 25.3462 31.9225 25.4678C31.8717 25.5894 31.7975 25.6998 31.704 25.7927C31.6105 25.8856 31.4996 25.9591 31.3777 26.0091C31.2557 26.0591 31.1251 26.0845 30.9933 26.084L20.7507 26.0147C20.2208 26.0109 19.6955 26.1125 19.2052 26.3134C18.7149 26.5144 18.2694 26.8108 17.8947 27.1853L16.708 28.3733C16.6151 28.4663 16.5049 28.54 16.3835 28.5903C16.2621 28.6406 16.132 28.6665 16.0007 28.6665C15.8693 28.6665 15.7392 28.6406 15.6178 28.5903C15.4965 28.54 15.3862 28.4663 15.2933 28.3733L14.0907 27.172C13.7195 26.8003 13.2787 26.5055 12.7934 26.3044C12.3081 26.1032 11.788 25.9998 11.2627 26H1C0.734784 26 0.48043 25.8946 0.292893 25.7071C0.105357 25.5196 0 25.2652 0 25L0 5ZM17 25.3093C18.071 24.4623 19.3986 24.0057 20.764 24.0147L30 24.0773V6H21C19.9391 6 18.9217 6.42143 18.1716 7.17157C17.4214 7.92172 17 8.93914 17 10V25.3093ZM14.996 9.996C14.9949 8.93583 14.573 7.91944 13.823 7.17016C13.073 6.42088 12.0562 6 10.996 6H2V24H11.2627C12.62 24 13.9373 24.4613 15 25.3067L14.996 9.996Z" fill="#98A2B3"/>
</g>
<defs>
<clipPath id="clip0_188_19877">
<rect width="32" height="32" fill="white"/>
</clipPath>
</defs>
</svg>
