<svg width="24" height="24" viewBox="0 0 24 24" fill="none" xmlns="http://www.w3.org/2000/svg">
<path d="M10.1766 18.3532C11.8286 18.3532 13.3766 17.8545 14.6649 17.0026L19.2156 21.5636C19.5169 21.8545 19.9013 22 20.3169 22C21.1792 22 21.813 21.3247 21.813 20.4727C21.813 20.0779 21.6779 19.6935 21.387 19.4026L16.8675 14.8623C17.8026 13.5325 18.3532 11.9221 18.3532 10.1766C18.3532 5.67792 14.6753 2 10.1766 2C5.68831 2 2 5.67792 2 10.1766C2 14.6753 5.67792 18.3532 10.1766 18.3532ZM10.1766 16.1714C6.88312 16.1714 4.18182 13.4701 4.18182 10.1766C4.18182 6.88312 6.88312 4.18182 10.1766 4.18182C13.4701 4.18182 16.1714 6.88312 16.1714 10.1766C16.1714 13.4701 13.4701 16.1714 10.1766 16.1714Z" fill="#1D2939"/>
</svg>
