<svg width="20" height="20" viewBox="0 0 20 20" fill="none" xmlns="http://www.w3.org/2000/svg">
<path d="M14.0332 4.83032C14.3496 4.83032 14.6111 5.06545 14.6525 5.37051L14.6582 5.45532V16.8035C14.6582 17.1486 14.3784 17.4285 14.0332 17.4285C13.7168 17.4285 13.4553 17.1933 13.4139 16.8883L13.4082 16.8035V5.45532C13.4082 5.11014 13.688 4.83032 14.0332 4.83032Z" fill="#475467"/>
<path d="M16.9881 12.9492C17.2316 12.7046 17.6273 12.7037 17.872 12.9472C18.0944 13.1686 18.1154 13.5157 17.9344 13.7608L17.874 13.8311L14.4759 17.2449C14.2538 17.4681 13.9052 17.4884 13.6601 17.3058L13.59 17.2449L10.1918 13.8311C9.94829 13.5864 9.94921 13.1907 10.1938 12.9472C10.4162 12.7258 10.7635 12.7064 11.0078 12.8885L11.0777 12.9492L14.0325 15.9175L16.9881 12.9492Z" fill="#475467"/>
<path d="M5.75928 2.56909C6.07569 2.56909 6.33719 2.80422 6.37857 3.10928L6.38428 3.19409V14.5422C6.38428 14.8874 6.10446 15.1672 5.75928 15.1672C5.44286 15.1672 5.18137 14.9321 5.13998 14.627L5.13428 14.5422V3.19409C5.13428 2.84891 5.4141 2.56909 5.75928 2.56909Z" fill="#475467"/>
<path d="M5.31651 2.75268C5.53861 2.52956 5.88716 2.50927 6.13225 2.69183L6.20244 2.75268L9.60059 6.16657C9.8441 6.41121 9.84319 6.80694 9.59854 7.05045C9.37614 7.27183 9.02888 7.2912 8.78462 7.10909L8.71466 7.04841L5.75929 4.07916L2.80429 7.04841C2.58291 7.27081 2.23574 7.29179 1.99065 7.11081L1.92041 7.05045C1.69801 6.82908 1.67703 6.48191 1.85801 6.23681L1.91837 6.16657L5.31651 2.75268Z" fill="#475467"/>
</svg>
