<svg width="32" height="32" viewBox="0 0 32 32" fill="none" xmlns="http://www.w3.org/2000/svg">
<path d="M3.3335 3.6665C3.3335 3.40129 3.22814 3.14693 3.0406 2.9594C2.85307 2.77186 2.59871 2.6665 2.3335 2.6665C2.06828 2.6665 1.81393 2.77186 1.62639 2.9594C1.43885 3.14693 1.3335 3.40129 1.3335 3.6665V28.3332C1.3335 28.8852 1.7815 29.3332 2.3335 29.3332H26.6668C26.932 29.3332 27.1864 29.2278 27.3739 29.0403C27.5615 28.8527 27.6668 28.5984 27.6668 28.3332C27.6668 28.068 27.5615 27.8136 27.3739 27.6261C27.1864 27.4385 26.932 27.3332 26.6668 27.3332H3.3335V3.6665Z" fill="#98A2B3"/>
<path d="M29.7067 10.3731C29.8833 10.1836 29.9795 9.93283 29.9749 9.67377C29.9704 9.4147 29.8654 9.16752 29.6822 8.9843C29.499 8.80108 29.2518 8.69613 28.9927 8.69156C28.7337 8.68699 28.4829 8.78316 28.2934 8.95979L20.6667 16.5865L15.7067 11.6265C15.5192 11.4392 15.265 11.334 15 11.334C14.735 11.334 14.4809 11.4392 14.2934 11.6265L6.29337 19.6265C6.19513 19.718 6.11632 19.8284 6.06167 19.9511C6.00701 20.0737 5.97762 20.2062 5.97525 20.3404C5.97288 20.4747 5.99758 20.6081 6.04788 20.7326C6.09817 20.8571 6.17303 20.9702 6.26799 21.0652C6.36295 21.1601 6.47606 21.235 6.60058 21.2853C6.7251 21.3356 6.85847 21.3603 6.99274 21.3579C7.12701 21.3555 7.25943 21.3262 7.38209 21.2715C7.50476 21.2168 7.61516 21.138 7.70671 21.0398L15 13.7465L19.96 18.7065C20.1475 18.8937 20.4017 18.9989 20.6667 18.9989C20.9317 18.9989 21.1859 18.8937 21.3734 18.7065L29.7067 10.3731Z" fill="#98A2B3"/>
</svg>
