<svg width="32" height="32" viewBox="0 0 32 32" fill="none" xmlns="http://www.w3.org/2000/svg">
<path d="M16 3.3335C17.5681 3.33302 19.0951 3.83522 20.3569 4.76639C21.6186 5.69756 22.5486 7.00866 23.0104 8.50726C23.4722 10.0059 23.4414 11.613 22.9227 13.0928C22.4039 14.5727 21.4244 15.8473 20.128 16.7295C22.3782 17.5548 24.3299 19.0347 25.7319 20.9787C27.1339 22.9227 27.9219 25.2418 27.9947 27.6375C28.0015 27.7705 27.9816 27.9035 27.9364 28.0287C27.8911 28.1539 27.8212 28.2688 27.7309 28.3667C27.6406 28.4645 27.5317 28.5434 27.4105 28.5986C27.2894 28.6538 27.1584 28.6842 27.0253 28.6881C26.8922 28.692 26.7597 28.6693 26.6355 28.6213C26.5113 28.5733 26.3979 28.501 26.302 28.4086C26.2062 28.3162 26.1297 28.2056 26.0772 28.0833C26.0246 27.9609 25.997 27.8293 25.996 27.6962C25.9166 25.0981 24.8287 22.633 22.9629 20.8234C21.0971 19.0137 18.5999 18.0016 16.0007 18.0016C13.4014 18.0016 10.9043 19.0137 9.03844 20.8234C7.17261 22.633 6.08473 25.0981 6.00533 27.6962C5.99738 27.9614 5.88439 28.2126 5.69123 28.3945C5.49806 28.5764 5.24055 28.6741 4.97533 28.6662C4.71012 28.6582 4.45892 28.5452 4.27701 28.3521C4.0951 28.1589 3.99738 27.9014 4.00533 27.6362C4.07833 25.2407 4.86653 22.9219 6.26848 20.9782C7.67044 19.0344 9.622 17.5547 11.872 16.7295C10.5756 15.8473 9.59611 14.5727 9.07734 13.0928C8.55856 11.613 8.52782 10.0059 8.98961 8.50726C9.45141 7.00866 10.3814 5.69756 11.6431 4.76639C12.9049 3.83522 14.4319 3.33302 16 3.3335ZM10.6667 10.6668C10.6667 12.0813 11.2286 13.4379 12.2288 14.4381C13.229 15.4383 14.5855 16.0002 16 16.0002C17.4145 16.0002 18.771 15.4383 19.7712 14.4381C20.7714 13.4379 21.3333 12.0813 21.3333 10.6668C21.3333 9.25234 20.7714 7.89579 19.7712 6.89559C18.771 5.8954 17.4145 5.3335 16 5.3335C14.5855 5.3335 13.229 5.8954 12.2288 6.89559C11.2286 7.89579 10.6667 9.25234 10.6667 10.6668Z" fill="#98A2B3"/>
</svg>
