<svg width="24" height="24" viewBox="0 0 24 24" fill="none" xmlns="http://www.w3.org/2000/svg">
<path d="M4.61278 18.5246C4.40865 18.7293 4.40862 19.083 4.61267 19.2877C4.81697 19.4916 5.17142 19.4916 5.37573 19.2878C5.37579 19.2877 5.37585 19.2877 5.37591 19.2876L11.6569 13.0069L11.9942 12.6695L12.3316 13.0069L18.6125 19.2876L4.61278 18.5246ZM4.61278 18.5246C4.61286 18.5246 4.61293 18.5245 4.613 18.5244L10.8941 12.2436L11.2315 11.9062M4.61278 18.5246L11.2315 11.9062M11.2315 11.9062L10.8941 11.5689M11.2315 11.9062L10.8941 11.5689M10.8941 11.5689L4.613 5.28809C4.61299 5.28807 4.61297 5.28806 4.61296 5.28804C4.40862 5.08339 4.40856 4.72939 4.61277 4.52464C4.7018 4.4359 4.83893 4.38336 4.99422 4.38336C5.14958 4.38336 5.28676 4.43595 5.37579 4.52477C5.37583 4.52481 5.37587 4.52484 5.37591 4.52488L11.6569 10.8056L11.9942 11.143L12.3316 10.8056L18.6124 4.52497C18.6125 4.52492 18.6125 4.52487 18.6126 4.52481C18.7018 4.43589 18.839 4.38336 18.9942 4.38336C19.1495 4.38336 19.2868 4.43597 19.3758 4.52478C19.5799 4.72953 19.5798 5.08339 19.3755 5.28801C19.3755 5.28803 19.3755 5.28806 19.3754 5.28809L13.0944 11.5689L12.757 11.9062M10.8941 11.5689L12.757 11.9062M12.757 11.9062L13.0944 12.2436M12.757 11.9062L13.0944 12.2436M13.0944 12.2436L19.3754 18.5244C19.5798 18.729 19.5799 19.0831 19.3757 19.2878M13.0944 12.2436L19.3757 19.2878M19.3757 19.2878C19.1714 19.4915 18.8171 19.4916 18.6128 19.2879L19.3757 19.2878Z" fill="#1D2939" stroke="#1D2939" stroke-width="0.954225"/>
</svg>
