<svg width="32" height="32" viewBox="0 0 32 32" fill="none" xmlns="http://www.w3.org/2000/svg">
<path d="M22.4526 7.72868C22.9589 7.72868 23.3773 8.10488 23.4435 8.59298L23.4526 8.72868V26.8857C23.4526 27.438 23.0049 27.8857 22.4526 27.8857C21.9464 27.8857 21.528 27.5095 21.4618 27.0214L21.4526 26.8857V8.72868C21.4526 8.17639 21.9004 7.72868 22.4526 7.72868Z" fill="#98A2B3"/>
<path d="M27.1808 20.7188C27.5704 20.3273 28.2036 20.3259 28.595 20.7155C28.9508 21.0697 28.9844 21.6252 28.6948 22.0173L28.5983 22.1297L23.1612 27.5919C22.8059 27.9489 22.2482 27.9814 21.8561 27.6893L21.7438 27.5919L16.3067 22.1297C15.9171 21.7383 15.9186 21.1051 16.31 20.7155C16.6658 20.3613 17.2215 20.3303 17.6123 20.6217L17.7242 20.7188L22.4519 25.4681L27.1808 20.7188Z" fill="#98A2B3"/>
<path d="M9.21472 4.1106C9.72098 4.1106 10.1394 4.48681 10.2056 4.97491L10.2147 5.1106V23.2676C10.2147 23.8199 9.767 24.2676 9.21472 24.2676C8.70846 24.2676 8.29007 23.8914 8.22385 23.4033L8.21472 23.2676V5.1106C8.21472 4.55832 8.66244 4.1106 9.21472 4.1106Z" fill="#98A2B3"/>
<path d="M8.50613 4.40439C8.86149 4.04739 9.41916 4.01493 9.8113 4.30703L9.92361 4.40439L15.3606 9.86661C15.7503 10.258 15.7488 10.8912 15.3574 11.2808C15.0015 11.635 14.4459 11.666 14.0551 11.3746L13.9432 11.2776L9.21457 6.52675L4.48657 11.2776C4.13237 11.6334 3.57689 11.667 3.18474 11.3774L3.07236 11.2808C2.71652 10.9266 2.68296 10.3711 2.97253 9.979L3.06909 9.86661L8.50613 4.40439Z" fill="#98A2B3"/>
</svg>
