<svg width="20" height="20" viewBox="0 0 20 20" fill="none" xmlns="http://www.w3.org/2000/svg">
<g clip-path="url(#clip0_370_7512)">
<path d="M5.69752 19.0068C6.20316 19.0068 6.58239 18.763 7.19639 18.2212L10.2935 15.4763H15.7562C18.474 15.4763 20 13.9233 20 11.2415V4.23476C20 1.55305 18.474 0 15.7562 0H4.24379C1.52596 0 0 1.55305 0 4.23476V11.2415C0 13.9233 1.56208 15.4763 4.18059 15.4763H4.55079V17.7065C4.55079 18.5102 4.97517 19.0068 5.69752 19.0068ZM6.13996 17.0203V14.447C6.13996 13.9142 5.91422 13.7065 5.39955 13.7065H4.28894C2.58239 13.7065 1.76975 12.8488 1.76975 11.1874V4.28894C1.76975 2.62754 2.58239 1.76975 4.28894 1.76975H15.702C17.4086 1.76975 18.2302 2.62754 18.2302 4.28894V11.1874C18.2302 12.8488 17.4086 13.7065 15.702 13.7065H10.1941C9.65237 13.7065 9.38149 13.7968 9.00226 14.1941L6.13996 17.0203ZM8.11738 11.1512L10.0226 9.75169L11.9278 11.1512C12.316 11.4402 12.7765 11.1783 12.5959 10.6546L11.8555 8.42438L13.7968 7.02483C14.1941 6.73589 14.0406 6.23928 13.553 6.23928H11.1512L10.4379 4.01806C10.2844 3.55756 9.75169 3.55756 9.60722 4.01806L8.88488 6.23928H6.47404C5.99549 6.23928 5.83296 6.73589 6.23928 7.02483L8.18962 8.42438L7.44018 10.6546C7.25959 11.1693 7.72009 11.4402 8.11738 11.1512Z" fill="#475467"/>
</g>
<defs>
<clipPath id="clip0_370_7512">
<rect width="20" height="20" fill="white"/>
</clipPath>
</defs>
</svg>
