<svg width="295" height="200" viewBox="0 0 295 200" fill="none" xmlns="http://www.w3.org/2000/svg">
<g clip-path="url(#clip0_188_5264)">
<rect x="63.5" y="16" width="168" height="168" rx="14.35" fill="white"/>
<path d="M151.207 203.136C142.763 203.136 134.584 201.969 126.842 199.772C126.76 199.744 126.678 199.726 126.596 199.699L133.754 164.848C133.754 164.848 133.581 164.966 133.253 165.185C130.761 166.833 123.17 168.13 111.245 167.859C100.709 167.62 95.6181 160.323 90.4593 151.133V151.124L91.5003 147.425L90.4593 151.106V151.097L90.4632 151.092C91.1331 150.273 115.027 121.068 124.9 120.149L126.769 122.702C126.769 122.702 148.991 101.392 168.14 94.5712C168.313 94.5074 168.477 94.4527 168.642 94.398C168.733 94.3706 168.815 94.3341 168.906 94.3068L192.186 88.9451C192.186 88.9451 193.298 89.5104 195.149 90.5226C195.277 90.5864 195.414 90.6594 195.55 90.7414C203.511 95.0818 223.189 106.544 227.803 115.954C236.57 138.352 236.362 185.147 227.803 193.143C219.243 201.138 178.373 203.136 151.207 203.136Z" fill="#808080"/>
<path d="M205.337 199.34L205.423 199.235L205.416 199.101L203.172 149.943L203.172 149.943L203.172 149.942C203.165 149.796 203.119 149.643 203.026 149.521C202.933 149.401 202.759 149.278 202.534 149.319C202.34 149.348 202.213 149.483 202.146 149.593C202.074 149.714 202.035 149.863 202.043 150.014C202.043 150.015 202.043 150.015 202.043 150.016L204.304 199.606L204.343 200.462L204.915 199.824L204.917 199.821C205.053 199.669 205.195 199.511 205.337 199.34Z" fill="#9A9999" stroke="#9A9999" stroke-width="0.7"/>
<path d="M193.435 49.7059C193.435 49.7059 210.941 47.6448 211.313 49.8985C211.685 52.1522 193.196 55.7143 193.196 55.7143L193.435 49.7059Z" fill="#AE9DD8"/>
<path d="M192.185 88.945C192.185 88.945 190.088 96.3949 182.173 99.5408C174.258 102.687 169.954 98.2642 169.954 98.2642L169.708 93.4678L169.134 82.1973L185.255 71.1457L189.505 68.2277L192.185 88.945Z" fill="#FECDB3"/>
<path d="M187.827 75.0666C185.21 83.6289 178.207 90.6957 169.708 93.4678L169.134 82.1973L185.255 71.1456C186.058 71.5195 186.796 72.0484 187.389 72.714C187.663 73.024 187.918 73.3888 187.991 73.7991C188.073 74.2277 187.954 74.6563 187.827 75.0666Z" fill="#FEBF9F"/>
<path d="M151.392 53.7602C153.317 45.8852 161.437 31.2552 178.517 35.7352C199.867 41.3352 196.367 65.1352 190.067 70.3852C190.242 73.0102 190.277 78.5752 189.017 79.8352C187.442 81.4102 161.949 97.5304 155.242 85.9602C147.15 72 149.409 61.4602 151.392 53.7602Z" fill="#FECDB3"/>
<path d="M194.631 48.9038C191.488 39.0092 183.572 34.9351 175.308 34.5858C175.201 34.5813 175.095 34.5886 174.989 34.5858C174.251 34.5101 173.503 34.4709 172.745 34.4709C163.955 34.4709 156.387 39.6867 152.967 47.1913C153.204 47.2369 153.451 47.2734 153.697 47.2825C155.338 47.3645 156.952 46.8813 158.52 46.4071C160.791 45.7141 163.071 45.0302 165.341 44.3372C166.919 43.863 168.824 43.4527 170.055 44.556C170.976 45.3767 171.122 46.7445 171.204 47.9755C171.478 51.9056 171.751 55.8448 172.034 59.7749C172.116 61.0606 172.326 62.5378 173.42 63.2217C174.405 62.1183 175.39 61.015 176.375 59.9116C176.83 59.401 177.314 58.8721 177.952 58.6533C179.046 58.2703 180.286 58.9177 180.97 59.8478C181.654 60.7779 181.919 61.9451 182.201 63.0667C183.575 68.4511 185.756 73.6168 188.654 78.3484L191.023 82.7782L193.119 70.6724C193.117 70.6724 197.774 58.7983 194.631 48.9038Z" fill="#434343"/>
<path d="M178.741 57.1588C180.652 56.3564 183.019 56.1567 184.988 56.8697C188.028 57.9722 188.821 62.018 188.181 64.8539C187.194 69.2335 182.621 72.4305 178.179 70.9077C175.343 69.9348 173.33 67.088 173.131 64.1272C172.923 61.0314 176.099 58.2676 178.741 57.1588Z" fill="#FECDB3"/>
<path d="M90.4497 151.106C90.4497 151.106 90.4497 151.106 90.4586 151.106V151.124L90.4497 151.106Z" fill="#434343"/>
<path d="M124.9 120.149C124.9 120.149 120.249 127.48 108.486 138.887C97.0152 150.012 90.7599 151.061 90.459 151.106V151.097C91.0335 150.395 115.006 121.07 124.9 120.149Z" fill="#434343"/>
<path d="M94.9819 96.4041C94.3709 95.2642 93.2585 94.3159 91.6992 93.5591C86.9302 91.2703 80.7934 92.1275 76.4348 95.7019C74.7478 97.0788 73.3527 98.8205 72.2949 100.79C71.8299 100.115 71.4196 99.4041 71.0731 98.6655C69.5867 95.4831 69.1946 91.6259 69.8877 87.1761C70.7722 81.55 73.2068 76.5257 76.7357 73.015C80.301 69.477 85.0062 67.4892 89.5928 67.5257C90.1217 67.5348 90.6506 67.5713 91.1794 67.626L91.225 67.17C90.7144 67.1153 90.1946 67.0789 89.6658 67.0789C84.9332 67.0059 80.0822 69.0485 76.4165 72.6959C72.8147 76.2703 70.3436 81.3858 69.4408 87.1123C68.7296 91.6442 69.1308 95.5925 70.6536 98.8569C71.0457 99.6959 71.5199 100.498 72.067 101.246C70.7448 103.881 70.0427 106.909 70.0609 110.036C70.0974 113.665 71.219 116.665 73.2159 118.48C75.3041 120.368 78.1673 120.942 80.9393 121.489C83.7387 122.045 86.6384 122.629 88.608 124.589C91.3071 127.27 91.2341 131.501 90.9515 133.781C90.1855 139.854 86.9575 145.453 82.0791 149.155C80.8937 150.058 79.5898 150.86 78.3405 151.635C77.2281 152.319 76.0791 153.03 74.994 153.805C74.0092 154.526 73.1521 155.264 72.4317 156.03C72.5047 156.176 72.5776 156.313 72.6597 156.45C73.3892 155.675 74.2554 154.909 75.2676 154.179C76.3253 153.404 77.4743 152.702 78.5776 152.018C79.8451 151.243 81.149 150.44 82.3527 149.52C87.3223 145.744 90.6232 140.027 91.3983 133.836C91.6992 131.474 91.7721 127.088 88.9363 124.261C86.8572 122.2 83.8937 121.617 81.0305 121.042C78.3223 120.504 75.5138 119.948 73.5259 118.143C70.9545 115.808 70.5351 112.061 70.5168 110.027C70.4986 107.064 71.1551 104.182 72.3679 101.656C74.0822 103.845 76.3983 105.541 79.0335 106.489C82.7083 107.802 86.8299 107.593 90.3496 105.906C92.3375 104.957 93.8512 103.644 94.7265 102.112C95.7843 100.289 95.8755 98.0454 94.9819 96.4041ZM94.3344 101.893C93.5047 103.343 92.0548 104.592 90.1582 105.495C86.7478 107.127 82.7448 107.337 79.1886 106.061C76.5624 105.121 74.2646 103.407 72.5959 101.2C73.6354 99.2035 75.0305 97.4436 76.7174 96.0575C80.9484 92.5925 86.8846 91.7536 91.4986 93.9694C92.9758 94.6807 94.0153 95.5743 94.5806 96.6229C95.4013 98.1275 95.3101 100.188 94.3344 101.893Z" fill="#1E1E1E"/>
<path d="M95.5688 149.092C95.5688 149.092 102.398 125.423 105.813 115.644C109.227 105.866 115.28 91.1208 115.28 91.1208L120.712 69.3913L139.958 79.9451L131.266 95.6208L123.971 121.619C123.971 121.619 117.607 130.078 109.848 137.838C102.087 145.599 95.5688 149.092 95.5688 149.092Z" fill="#FECDB3"/>
<path d="M137.824 81.8472L89.166 70.0897L89.8645 65.8998L139.571 71.0217L137.824 81.8472Z" fill="#BA6A4C"/>
<path d="M130.49 98.028C130.49 98.028 135.03 92.3827 137.416 90.9274C139.803 89.4721 147.719 81.3821 148.708 79.5776C149.697 77.773 150.454 74.8049 148.766 75.0958C147.079 75.3867 132.761 82.9532 132.761 82.9532L130.433 98.2605L130.49 98.028Z" fill="#FECDB3"/>
<path d="M122.595 86.8047L136.308 78.3347L139.981 84.0577L122.595 86.8047Z" fill="#FEBF9F"/>
<path d="M140.114 83.9819C144.636 83.9819 148.301 80.3162 148.301 75.7943C148.301 71.2725 144.636 67.6068 140.114 67.6068C135.592 67.6068 131.926 71.2725 131.926 75.7943C131.926 80.3162 135.592 83.9819 140.114 83.9819Z" fill="#D9D9D9"/>
<path d="M120.537 69.1004C120.537 69.1004 126.474 64.0952 130.141 66.7141C130.141 66.7141 134.098 64.0952 136.369 67.5876C136.369 67.5876 139.395 66.0165 141.083 68.111C141.083 68.111 142.014 69.6247 141.374 72.1852C140.734 74.7466 136.834 82.7782 134.215 82.0797C131.596 81.3812 131.072 80.101 131.072 80.101C131.072 80.101 128.51 81.0904 127.579 79.635C126.648 78.1797 126.998 76.667 126.998 76.667C126.998 76.667 123.913 77.4821 123.564 74.9207C123.214 72.3594 124.785 69.3913 124.785 69.3913L120.537 69.1004Z" fill="#FECDB3"/>
<path d="M139.358 137.144L136.954 149.984L134.55 162.825" stroke="#9A9999" stroke-width="2.45" stroke-linecap="round"/>
<path d="M126.85 124.85L127.486 137.975" stroke="#9A9999" stroke-width="2.45" stroke-linecap="round"/>
<path d="M152.225 50.4762C151.469 37.5242 153.8 26.5638 173.72 25.0996C198.621 23.2693 198.658 42.77 198.647 48.0782C198.636 52.8826 167.712 55.5771 152.225 50.4762Z" fill="#6E58A6"/>
<circle cx="1.78317" cy="1.78317" r="1.78317" transform="matrix(-1 0 0 1 158.259 58.7197)" fill="#4F4F4F"/>
<path d="M158.492 80.4095C158.492 80.4095 153.736 85.0203 151.111 76.7953C151.904 75.8414 153.956 73.7828 156.486 73.5702C159.016 73.3577 158.675 78.1957 158.492 80.4095Z" fill="#FF9C76"/>
<ellipse cx="182.104" cy="64.3507" rx="2.10645" ry="2.67476" transform="rotate(40.4783 182.104 64.3507)" fill="#FEBF9F"/>
<path d="M164.3 98.6339C150.65 155.859 179.21 139.899 200.35 96.3589" stroke="#F1C20D" stroke-width="0.7"/>
<path d="M168.008 57.1699C166.22 60.7205 163.58 67.687 167.322 67.1487C171.999 66.4758 170.703 61.1593 168.008 57.1699Z" fill="#77BBFF"/>
<path d="M172.76 67.4335C171.476 69.9839 169.579 74.9881 172.267 74.6014C175.626 74.1181 174.696 70.2992 172.76 67.4335Z" fill="#77BBFF"/>
<path d="M128.254 57.9867C130.201 58.0388 131.788 57.5071 133.077 56.2293C134.157 55.1602 134.462 53.852 133.976 52.4126C133.481 50.9479 132.346 50.183 130.888 50.0106C128.618 49.7426 126.546 50.3706 124.726 51.7571C122.693 53.3051 122.956 56.1424 125.228 57.3507C126.221 57.8795 127.294 58.0526 128.254 57.9867Z" fill="#FFE2BF"/>
<path d="M139.153 61.15C140.493 61.1479 141.537 60.1614 141.55 58.8847C141.562 57.7032 140.398 56.6091 139.119 56.6001C137.612 56.589 136.301 57.6955 136.3 58.9791C136.298 60.2496 137.486 61.1521 139.153 61.15Z" fill="#FFE2BF"/>
<path d="M102.387 61.9826C106.654 62.1382 110.697 61.2531 114.446 59.3781C120.54 56.3304 125.017 51.7663 126.704 44.9622C127.757 40.7144 126.724 36.7665 124.262 33.2461C121.301 29.0113 117.629 25.4787 112.875 23.3189C107.271 20.7733 101.546 20.4749 95.8055 22.994C95.576 23.0951 95.3357 23.2314 95.0954 23.2414C91.765 23.3792 89.1512 25.1322 86.7132 27.1191C83.6504 29.6145 81.4261 32.7218 80.5109 36.6582C79.4744 41.1147 79.8825 45.4263 81.6714 49.6281C82.6892 52.0188 83.9388 54.2381 85.846 56.0578C88.3608 58.4571 91.3784 59.9297 94.6478 60.9397C97.1769 61.7208 99.7713 62.1045 102.387 61.9826Z" fill="#FFE2BF"/>
<path d="M96.3999 33.8235C97.8386 30.7668 101.596 28.9909 104.855 29.8789C108.114 30.7668 110.46 34.2584 109.99 37.6037C109.52 40.949 106.247 43.6727 102.875 43.468V49.1671" stroke="#4A214A" stroke-width="1.05" stroke-miterlimit="10" stroke-linecap="round" stroke-linejoin="round"/>
<path d="M104.204 52.6595C104.204 53.2424 103.731 53.7151 103.148 53.7151C102.565 53.7151 102.092 53.2424 102.092 52.6595C102.092 52.0766 102.565 51.6039 103.148 51.6039C103.731 51.6039 104.204 52.0766 104.204 52.6595Z" fill="#4A214A"/>
<path d="M154.332 44.7668C154.193 45.6557 153.832 46.542 153.149 47.1368C152.605 47.6178 152.753 47.9811 152.05 47.85C152.362 45.6333 151.947 42.534 152.68 39.643C154.469 39.9935 154.577 43.1325 154.332 44.7668Z" fill="#AE9DD8"/>
<path d="M159.484 55.3809C159.641 55.4641 155.523 56.4481 152.86 57.453C151.085 58.1222 148.819 58.8144 148.773 58.7653C148.726 58.7169 150.4 57.313 154.11 55.9872C156.424 55.1605 158.626 54.9175 159.484 55.3809Z" fill="#4F4F4F"/>
</g>
<defs>
<clipPath id="clip0_188_5264">
<rect x="63.5" y="16" width="168" height="168" rx="14.35" fill="white"/>
</clipPath>
</defs>
</svg>
