<svg width="55" height="10" viewBox="0 0 55 10" fill="none" xmlns="http://www.w3.org/2000/svg">
<path opacity="0.35" d="M35.001 2.99919C35.001 1.80257 35.971 0.83252 37.1676 0.83252H49.764C50.9606 0.83252 51.9306 1.80257 51.9306 2.99919V6.90235C51.9306 8.09896 50.9606 9.06901 49.764 9.06901H37.1676C35.971 9.06901 35.001 8.09896 35.001 6.90235V2.99919Z" stroke="#2C2B2A"/>
<path opacity="0.4" d="M53.2456 3.3208V6.58074C53.9014 6.30464 54.3279 5.66236 54.3279 4.95077C54.3279 4.23918 53.9014 3.5969 53.2456 3.3208Z" fill="#2C2B2A"/>
<path d="M36.1309 3.29573C36.1309 2.55935 36.7278 1.9624 37.4642 1.9624H49.4673C50.2036 1.9624 50.8006 2.55936 50.8006 3.29574V6.60563C50.8006 7.34201 50.2036 7.93896 49.4672 7.93896H37.4642C36.7278 7.93896 36.1309 7.342 36.1309 6.60562V3.29573Z" fill="#2C2B2A"/>
<path fill-rule="evenodd" clip-rule="evenodd" d="M24.1754 2.18655C25.9813 2.18663 27.7182 2.88054 29.027 4.12486C29.1255 4.22092 29.2831 4.21971 29.3801 4.12214L30.3223 3.17133C30.3714 3.12184 30.3988 3.05481 30.3984 2.98506C30.398 2.91531 30.3698 2.8486 30.3201 2.79969C26.8848 -0.492476 21.4654 -0.492476 18.0301 2.79969C17.9804 2.84857 17.9521 2.91526 17.9517 2.985C17.9512 3.05475 17.9786 3.1218 18.0277 3.17133L18.9701 4.12214C19.0671 4.21986 19.2247 4.22107 19.3232 4.12486C20.6322 2.88046 22.3693 2.18655 24.1754 2.18655ZM24.1753 5.27999C25.1675 5.27992 26.1243 5.64873 26.8598 6.31474C26.9593 6.40927 27.116 6.40722 27.213 6.31013L28.154 5.35931C28.2036 5.30944 28.2311 5.24178 28.2304 5.17148C28.2297 5.10117 28.2008 5.03409 28.1502 4.98523C25.9105 2.90182 22.442 2.90182 20.2022 4.98523C20.1516 5.03409 20.1228 5.1012 20.1221 5.17153C20.1214 5.24186 20.149 5.30951 20.1987 5.35931L21.1395 6.31013C21.2364 6.40722 21.3931 6.40927 21.4926 6.31474C22.2276 5.64917 23.1837 5.2804 24.1753 5.27999ZM26.0604 7.3613C26.0618 7.43181 26.0341 7.49978 25.9838 7.54917L24.356 9.19191C24.3083 9.24019 24.2432 9.26736 24.1753 9.26736C24.1075 9.26736 24.0424 9.24019 23.9947 9.19191L22.3666 7.54917C22.3163 7.49974 22.2887 7.43175 22.2901 7.36125C22.2916 7.29074 22.3222 7.22398 22.3745 7.17672C23.4141 6.29745 24.9366 6.29745 25.9762 7.17672C26.0285 7.22402 26.059 7.2908 26.0604 7.3613Z" fill="#2C2B2A"/>
<path fill-rule="evenodd" clip-rule="evenodd" d="M13.0398 0.604492H12.2248C11.7747 0.604492 11.4098 0.969373 11.4098 1.41948V8.48268C11.4098 8.93278 11.7747 9.29766 12.2248 9.29766H13.0398C13.4899 9.29766 13.8547 8.93278 13.8547 8.48268V1.41948C13.8547 0.969373 13.4899 0.604492 13.0398 0.604492ZM8.42154 2.50611H9.23653C9.68663 2.50611 10.0515 2.87099 10.0515 3.32109V8.48266C10.0515 8.93277 9.68663 9.29765 9.23653 9.29765H8.42154C7.97144 9.29765 7.60656 8.93277 7.60656 8.48266V3.32109C7.60656 2.87099 7.97144 2.50611 8.42154 2.50611ZM5.4332 4.40777H4.61821C4.16811 4.40777 3.80323 4.77265 3.80323 5.22275V8.48269C3.80323 8.9328 4.16811 9.29768 4.61821 9.29768H5.4332C5.8833 9.29768 6.24818 8.9328 6.24818 8.48269V5.22275C6.24818 4.77265 5.8833 4.40777 5.4332 4.40777ZM1.62997 6.03774H0.814985C0.364881 6.03774 0 6.40262 0 6.85272V8.48269C0 8.9328 0.364881 9.29768 0.814985 9.29768H1.62997C2.08007 9.29768 2.44495 8.9328 2.44495 8.48269V6.85272C2.44495 6.40262 2.08007 6.03774 1.62997 6.03774Z" fill="#2C2B2A"/>
</svg>
