<svg width="33" height="33" viewBox="0 0 33 33" fill="none" xmlns="http://www.w3.org/2000/svg">
<g clip-path="url(#clip0_188_19929)">
<path d="M7.96414 25.0358H4.59217C3.74923 24.9656 2.96344 24.5812 2.39068 23.9587C1.81791 23.3363 1.5 22.5213 1.5 21.6755C1.5 20.8296 1.81791 20.0146 2.39068 19.3922C2.96344 18.7697 3.74923 18.3853 4.59217 18.3151H9.9408L13.3825 14.8734L3.94103 9.05968C3.21418 8.61034 2.68504 7.90179 2.46055 7.07729C2.23608 6.25276 2.33302 5.37377 2.73178 4.61799C2.90782 4.18544 3.1706 3.79355 3.50393 3.46652C3.83725 3.13946 4.23405 2.88417 4.66987 2.71638C5.10566 2.5486 5.5712 2.47188 6.03779 2.49096C6.5044 2.51005 6.96213 2.62453 7.38276 2.82736L19.7079 8.52481L25.6612 2.50178C26.3025 1.86035 27.1725 1.5 28.0797 1.5C28.9868 1.5 29.8568 1.86035 30.4982 2.50178C31.1395 3.1432 31.5 4.01317 31.5 4.9203C31.5 5.8274 31.1395 6.69737 30.4982 7.33881L24.4752 13.2921L30.1726 25.7335C30.36 26.1476 30.4624 26.5955 30.4733 27.0502C30.4845 27.5046 30.4042 27.9569 30.237 28.3799C30.0701 28.8027 29.8198 29.1878 29.5012 29.5122C29.1824 29.8366 28.802 30.0938 28.382 30.2682C27.6262 30.667 26.7472 30.7637 25.9228 30.5393C25.0982 30.3149 24.3896 29.7856 23.9403 29.0589L18.1265 19.6174L14.6848 23.0591V28.4078C14.6146 29.2508 14.2302 30.0366 13.6078 30.6093C12.9853 31.1821 12.1703 31.5 11.3245 31.5C10.4786 31.5 9.66363 31.1821 9.04121 30.6093C8.41877 30.0366 8.03432 29.2508 7.96414 28.4078V25.0358Z" stroke="#1D2939" stroke-width="2" stroke-linecap="round" stroke-linejoin="round"/>
</g>
<defs>
<clipPath id="clip0_188_19929">
<rect width="32" height="32" fill="white" transform="translate(0.5 0.5)"/>
</clipPath>
</defs>
</svg>
