<svg width="32" height="33" viewBox="0 0 32 33" fill="none" xmlns="http://www.w3.org/2000/svg">
<path d="M26.7573 25.9672H28.6457C29.9457 25.9672 31 24.913 31 23.6125V17.6437C31 16.3433 29.9457 15.289 28.6457 15.289H27.3459M27.3459 15.289V6.85469C27.3459 5.55424 26.2918 4.5 24.9915 4.5H3.35432C2.05408 4.5 1 5.55424 1 6.85469V23.9476C1 25.063 1.90404 25.9672 3.01923 25.9672H4.09694M27.3459 15.289L1.0018 15.2887M27.3459 8.81732H1.00183M9.89825 8.81732V15.2799M18.2964 8.81732V15.2799M10.6561 25.9347C10.6561 27.7502 9.18461 29.2219 7.36945 29.2219C5.55429 29.2219 4.08282 27.7502 4.08282 25.9347C4.08282 24.1193 5.55429 22.6476 7.36945 22.6476C9.18461 22.6476 10.6561 24.1193 10.6561 25.9347ZM10.6561 25.9347H20.1864M20.1864 25.9347C20.1864 27.7502 21.6578 29.2219 23.473 29.2219C25.2882 29.2219 26.7596 27.7502 26.7596 25.9347C26.7596 24.1193 25.2882 22.6476 23.473 22.6476C21.6578 22.6476 20.1864 24.1193 20.1864 25.9347Z" stroke="#1D2939" stroke-width="2" stroke-linecap="round" stroke-linejoin="round"/>
</svg>
