<svg width="32" height="32" viewBox="0 0 32 33" fill="none" xmlns="http://www.w3.org/2000/svg">
<path d="M7.63467 2.49935L7.30375 9.77965M10.9439 2.49935L11.2748 9.77965M21.3405 2.59126C23.8828 4.47876 27.4345 9.68322 27.7917 17.7195C27.8287 18.5519 27.4241 19.3398 26.6683 19.6906C26.1285 19.9413 25.3993 20.2257 24.4805 20.4678C24.146 20.5561 23.9223 20.8768 23.9713 21.2192L24.7822 26.896C25.0076 28.4735 24.3897 29.8868 22.8533 30.3095C21.4163 30.7049 19.8788 29.7508 19.8788 28.2604V3.49604C19.8788 2.64661 20.6585 2.08489 21.3405 2.59126ZM14.5475 4.06016C14.8521 5.85904 15.2781 9.00171 15.2439 12.358C15.2262 14.09 14.0694 15.6423 12.2505 16.05C11.8751 16.1342 11.4743 16.2099 11.0559 16.269L12.2763 26.8454C12.4619 28.4546 11.4649 30.0332 9.85974 30.2506C9.6451 30.2797 9.44966 30.297 9.28896 30.297C9.1282 30.297 8.93276 30.2797 8.71812 30.2506C7.11295 30.0332 6.11592 28.4546 6.3016 26.8454L7.52197 16.269C7.10361 16.2099 6.70293 16.1342 6.32758 16.05C4.50854 15.6423 3.35161 14.0899 3.33397 12.3578C3.29979 9.00191 3.72507 5.85964 4.02928 4.06071C4.18432 3.14385 4.98604 2.49935 5.91591 2.49935H12.661C13.5906 2.49935 14.3922 3.14356 14.5475 4.06016Z" stroke="#1D2939" stroke-width="2" stroke-linecap="round" stroke-linejoin="round"/>
</svg>
