<svg width="32" height="33" viewBox="0 0 32 33" fill="none" xmlns="http://www.w3.org/2000/svg">
<path d="M10.0577 11.9727V17.2548M12.6989 14.6139H7.4168M23.9228 13.1046C23.6104 13.1046 23.3571 12.8512 23.3571 12.5386C23.3571 12.2261 23.6104 11.9727 23.9228 11.9727C24.2355 11.9727 24.4888 12.2261 24.4888 12.5386C24.4888 12.8512 24.2355 13.1046 23.9228 13.1046ZM2.87166 12.413L1.92951 20.8924C1.58606 23.9835 4.00565 26.6868 7.11568 26.6868C9.09214 26.6868 10.899 25.57 11.7829 23.8022L12.6044 22.1593H19.3956L20.2171 23.8022C21.101 25.57 22.9079 26.6868 24.8843 26.6868C27.9943 26.6868 30.4139 23.9835 30.0704 20.8924L29.1282 12.413C28.7424 8.94033 25.8071 6.31311 22.3131 6.31311H9.68686C6.19282 6.31311 3.25751 8.94033 2.87166 12.413ZM19.9615 15.9343C19.9615 15.6217 20.2149 15.3684 20.5275 15.3684C20.84 15.3684 21.0934 15.6217 21.0934 15.9343C21.0934 16.2469 20.8402 16.5001 20.5277 16.5001C20.2151 16.5001 19.9615 16.2469 19.9615 15.9343Z" stroke="#1D2939" stroke-width="2" stroke-linecap="round" stroke-linejoin="round"/>
</svg>
