<svg width="33" height="33" viewBox="0 0 33 33" fill="none" xmlns="http://www.w3.org/2000/svg">
<path fill-rule="evenodd" clip-rule="evenodd" d="M18.7892 20.8884C20.3945 20.8884 21.7012 22.1857 21.7012 23.7804V27.8817C21.7012 28.2244 21.9758 28.499 22.3278 28.507H24.8692C26.8718 28.507 28.4998 26.899 28.4998 24.923V13.291C28.4905 12.611 28.1665 11.971 27.6105 11.5457L18.8198 4.53504C17.6398 3.60037 15.9892 3.60037 14.8052 4.53771L6.0745 11.543C5.49717 11.9817 5.17317 12.6217 5.1665 13.3137V24.923C5.1665 26.899 6.7945 28.507 8.79717 28.507H11.3625C11.7238 28.507 12.0172 28.2204 12.0172 27.8684C12.0172 27.791 12.0265 27.7137 12.0425 27.6404V23.7804C12.0425 22.195 13.3412 20.899 14.9345 20.8884H18.7892ZM24.8692 30.507H22.3038C20.8345 30.4724 19.7012 29.319 19.7012 27.8817V23.7804C19.7012 23.2884 19.2918 22.8884 18.7892 22.8884H14.9412C14.4492 22.891 14.0425 23.2924 14.0425 23.7804V27.8684C14.0425 27.9684 14.0292 28.0644 14.0012 28.155C13.8572 29.475 12.7292 30.507 11.3625 30.507H8.79717C5.69184 30.507 3.1665 28.0017 3.1665 24.923V13.3044C3.17984 11.979 3.7905 10.7657 4.84517 9.96704L13.5585 2.97371C15.4772 1.45371 18.1505 1.45371 20.0652 2.97104L28.8412 9.97104C29.8718 10.7564 30.4825 11.967 30.4998 13.2764V24.923C30.4998 28.0017 27.9745 30.507 24.8692 30.507Z" fill="#1D2939"/>
</svg>
