<svg width="21" height="20" viewBox="0 0 21 20" fill="none" xmlns="http://www.w3.org/2000/svg">
<path fill-rule="evenodd" clip-rule="evenodd" d="M16.6364 17.5C17.3895 17.5 18 16.8895 18 16.1364V3.86364C18 3.11051 17.3895 2.5 16.6364 2.5H4.36364C3.61052 2.5 3 3.11051 3 3.86364V8.63636C3 9.01292 3.30527 9.31818 3.68182 9.31818C4.05838 9.31818 4.36364 9.01292 4.36364 8.63636V3.86364H16.6364V16.1364H11.8636C11.4871 16.1364 11.1818 16.4417 11.1818 16.8182C11.1818 17.1947 11.4871 17.5 11.8636 17.5H16.6364ZM12.5455 8.63636C12.5455 8.63623 12.5455 8.6365 12.5455 8.63636V12.7273C12.5455 13.1038 12.2402 13.4091 11.8636 13.4091C11.4871 13.4091 11.1818 13.1038 11.1818 12.7273V10.2824L4.16393 17.3004C3.89767 17.5665 3.46597 17.5665 3.19971 17.3004C2.93343 17.034 2.93343 16.6023 3.19971 16.336L10.2176 9.31818H7.77273C7.39617 9.31818 7.09091 9.01292 7.09091 8.63636C7.09091 8.25981 7.39617 7.95454 7.77273 7.95454H11.8636C11.9561 7.95454 12.0442 7.97294 12.1246 8.00628C12.2039 8.03906 12.2782 8.08742 12.3429 8.15136C12.4671 8.2741 12.5444 8.44421 12.5454 8.63238" fill="#EC9427"/>
</svg>
