<svg width="16" height="16" viewBox="0 0 16 16" fill="none" xmlns="http://www.w3.org/2000/svg">
<path d="M0 4C0 1.79086 1.79086 0 4 0H12C14.2091 0 16 1.79086 16 4V12C16 14.2091 14.2091 16 12 16H4C1.79086 16 0 14.2091 0 12V4Z" fill="#EC9427"/>
<path d="M14.0202 3.81334C14.1139 3.90709 14.1665 4.03417 14.1665 4.16667C14.1665 4.29917 14.1139 4.42626 14.0202 4.52001L6.35357 12.1867C6.30662 12.234 6.25065 12.2714 6.18898 12.2967C6.12731 12.3219 6.06119 12.3346 5.99454 12.3338C5.9279 12.3331 5.86208 12.319 5.80099 12.2923C5.7399 12.2657 5.68478 12.227 5.6389 12.1787L1.97223 8.34534C1.92479 8.29832 1.88725 8.24226 1.86183 8.18049C1.83641 8.11871 1.82363 8.05247 1.82424 7.98567C1.82485 7.91888 1.83883 7.85288 1.86537 7.79158C1.89191 7.73027 1.93047 7.67491 1.97876 7.62876C2.02705 7.58261 2.0841 7.5466 2.14654 7.52286C2.20898 7.49912 2.27554 7.48814 2.3423 7.49055C2.40906 7.49297 2.47465 7.50874 2.53521 7.53692C2.59577 7.56511 2.65007 7.60515 2.6949 7.65467L6.00823 11.118L13.3136 3.81334C13.4073 3.71971 13.5344 3.66711 13.6669 3.66711C13.7994 3.66711 13.9265 3.71971 14.0202 3.81334Z" fill="white"/>
</svg>
