<svg width="24" height="24" viewBox="0 0 24 24" fill="none" xmlns="http://www.w3.org/2000/svg">
<path d="M14.0028 20.1858C13.4953 20.7125 12.858 21 12.198 21C11.508 21 10.842 20.683 10.324 20.106C10.047 19.797 9.57303 19.772 9.26503 20.05C8.95703 20.326 8.93203 20.801 9.20903 21.108C10.014 22.005 11.075 22.499 12.196 22.5H12.198C12.9439 22.5 13.663 22.2824 14.2984 21.8739C14.1232 21.3403 14.0207 20.7737 14.0028 20.1858Z" fill="#1D2939"/>
<path d="M6.31601 7.695C6.31601 5.238 8.75201 2.5 12.247 2.5C15.742 2.5 18.178 5.238 18.178 7.695C18.178 9.774 18.755 10.735 19.265 11.583C19.674 12.264 19.997 12.802 20 13.906C19.9973 13.9376 19.9942 13.9689 19.9908 14C19.9939 14 19.9969 14 20 14C20.5089 14 21.003 14.0634 21.4748 14.1826C21.4834 14.1132 21.4908 14.0427 21.497 13.971C21.497 12.387 20.994 11.549 20.55 10.811C20.101 10.063 19.678 9.358 19.678 7.695C19.678 4.462 16.692 1 12.247 1C7.80201 1 4.81601 4.462 4.81601 7.695C4.81601 9.358 4.39301 10.063 3.94401 10.811C3.50001 11.549 2.99701 12.387 3.00001 14.035C3.34501 18.018 7.57101 18.348 12.247 18.348C12.924 18.348 13.5916 18.3411 14.2393 18.317C14.4009 17.7627 14.6404 17.2416 14.9451 16.7663C14.1677 16.8205 13.274 16.848 12.247 16.848C5.90901 16.848 4.66401 15.857 4.49701 13.971C4.49701 12.802 4.82001 12.264 5.22901 11.583C5.73901 10.735 6.31601 9.774 6.31601 7.695Z" fill="#1D2939"/>
<circle cx="20" cy="20" r="4" fill="#ED1616"/>
</svg>
