<svg width="32" height="33" viewBox="0 0 32 33" fill="none" xmlns="http://www.w3.org/2000/svg">
<g clip-path="url(#clip0_188_18711)">
<path d="M1 8.40842H31M28.6923 1.5H3.30769C2.03319 1.5 1 2.53319 1 3.80769V29.1923C1 30.4668 2.03319 31.5 3.30769 31.5H28.6923C29.9668 31.5 31 30.4668 31 29.1923V3.80769C31 2.53319 29.9668 1.5 28.6923 1.5ZM14.3911 13.5816C13.8438 13.5816 13.4002 14.0252 13.4002 14.5725V17.3594H10.6133C10.0661 17.3594 9.62244 17.803 9.62244 18.3503V21.5706C9.62244 22.1179 10.0661 22.5615 10.6133 22.5615H13.4002V25.3484C13.4002 25.8955 13.8438 26.3393 14.3911 26.3393H17.6115C18.1587 26.3393 18.6023 25.8955 18.6023 25.3484V22.5615H21.3892C21.9365 22.5615 22.3801 22.1179 22.3801 21.5706V18.3503C22.3801 17.803 21.9365 17.3594 21.3892 17.3594H18.6023V14.5725C18.6023 14.0252 18.1587 13.5816 17.6115 13.5816H14.3911Z" stroke="#1D2939" stroke-width="2" stroke-linecap="round" stroke-linejoin="round"/>
</g>
<defs>
<clipPath id="clip0_188_18711">
<rect width="32" height="32" fill="white" transform="translate(0 0.5)"/>
</clipPath>
</defs>
</svg>
