<svg width="100" height="100" viewBox="0 0 100 100" fill="none" xmlns="http://www.w3.org/2000/svg">
<g clip-path="url(#clip0_188_6169)">
<path d="M57 47.2894C57 47.2894 51.6343 55.9442 45.9699 54.915C40.3133 53.8858 38.6378 49.7649 38.6378 49.7649L38.3102 45.4525L38.0135 41.65L38 41.4447L55.9539 35L57 47.2894Z" fill="#FECDB3"/>
<path d="M57 47.2894C57 47.2894 51.6343 55.9442 45.9699 54.915C40.3133 53.8858 38.6378 49.7649 38.6378 49.7649L38.3102 45.4525L38.0135 41.65L38 41.4447L55.9539 35L57 47.2894Z" fill="#FECDB3"/>
<path d="M48.3211 42.494C47.9522 43.3944 48.9768 41.6712 48.3211 42.494C48.3211 43.891 48.4072 45.9219 46.8549 46.8016C44.2769 48.2479 44.3335 47.9961 41.2758 48.5816C40.4142 48.7433 39.3769 48.7966 38.5463 48.7807L38.302 45.8702C44.214 44.3585 42.7374 44.6194 48.3211 42.494Z" fill="#FEBF9F"/>
<path d="M58.9942 23.427C59.0349 24.8643 58.8609 26.2632 58.5148 27.5865C58.3946 28.0355 58.2526 28.477 58.0949 28.9049C57.2844 31.5479 52.7407 40.7607 50.0383 41.7335C46.8691 42.8804 41.4002 48.4266 37.9637 46.6531C31.4529 47.0045 29.4492 37.7891 29.3221 34.3541C29.2464 32.1954 29.0423 26.0762 29.0423 26.0762L29.0311 25.1492C29.0079 24.8575 29.0142 24.5584 29.006 24.2593C28.8327 18.1467 32.4212 12.7908 37.7014 10.3738C39.4931 9.55022 41.4783 9.06412 43.5792 9.00591C51.8647 8.77679 58.7614 15.2356 58.9942 23.427Z" fill="#FECDB3"/>
<path d="M38.9825 39C38.333 39 37.6847 38.9128 37.1261 38.7453C37.0026 38.708 36.9628 38.6285 37.0382 38.5671C37.1136 38.506 37.2751 38.4869 37.3986 38.5236C38.067 38.7245 38.8863 38.7894 39.6486 38.7039C40.4103 38.6182 41.0918 38.3829 41.5181 38.0589C41.597 37.9993 41.7597 37.9817 41.8808 38.0211C42.0025 38.0601 42.0364 38.1406 41.9574 38.2005C41.4569 38.5806 40.6579 38.8561 39.765 38.9568C39.5079 38.9862 39.2449 39 38.9825 39Z" fill="#FF9C76" stroke="#FF9C76" stroke-width="2"/>
<path d="M58.0545 30.2667C58.854 29.9964 59.7815 29.858 60.5392 30.2132C60.9253 30.3946 61.2344 30.6916 61.4662 31.0245C62.2778 32.1892 62.1255 33.7828 61.2693 34.9208C60.4131 36.0588 58.9481 36.7549 57.4404 36.9515C56.5565 37.0668 55.5785 37.001 54.8931 36.4846C54.2833 36.0251 54.0126 35.2782 54.0005 34.5612C53.9641 32.41 55.9511 30.9772 58.0545 30.2667Z" fill="#FECDB3"/>
<path d="M58.0545 30.2667C58.854 29.9964 59.7815 29.858 60.5392 30.2132C60.9253 30.3946 61.2344 30.6916 61.4662 31.0245C62.2778 32.1892 62.1255 33.7828 61.2693 34.9208C60.4131 36.0588 58.9481 36.7549 57.4404 36.9515C56.5565 37.0668 55.5785 37.001 54.8931 36.4846C54.2833 36.0251 54.0126 35.2782 54.0005 34.5612C53.9641 32.41 55.9511 30.9772 58.0545 30.2667Z" fill="#FECDB3"/>
<path d="M92 106H8C8.92889 98.0698 12.4251 70.6962 17.1405 63.8937C19.4821 60.5167 22.7655 57.8611 26.0617 55.8362C27.8615 54.7267 29.6612 53.8112 31.3125 53.0655L31.3319 53.0594C35.3958 51.2284 38.5501 50.4281 38.5501 50.4281L38.2986 49.0007L44.5944 48.3399L56.6764 47.0667L57.3344 47L58.9728 49.4944C58.9728 49.4944 73.3254 51.5983 80.5243 58.5948C80.6534 58.71 80.763 58.8251 80.8791 58.9403C86.995 65.2214 91.0131 97.3241 92 106Z" fill="#8BD8E2"/>
<path d="M42.7027 74.0262C42.6264 74.1126 42.531 74.1865 42.4228 74.2358C42.3401 74.2852 42.2575 74.316 42.162 74.3406L31.2215 76.9669C30.5981 77.1211 29.9684 76.7203 29.8666 76.0977L28.868 70.0067L26.0183 55.4203C25.9166 54.8839 26.2473 54.3599 26.788 54.1996L37.595 51.0863L37.6459 51.074L37.754 51.0431C37.7985 51.0308 37.8367 51.0185 37.8812 51.0185L37.9067 51.0123C38.4855 50.926 39.0452 51.3021 39.147 51.8816L42.9826 73.12C43.0462 73.4591 42.9317 73.792 42.7027 74.0262Z" fill="#545454"/>
<path d="M29.4988 55C29.224 55 29 55.448 29 55.9977C29 56.552 29.224 57 29.4988 57C29.776 57 30 56.552 30 55.9977C30.0002 55.448 29.7762 55 29.4988 55ZM29.4988 56.7691C29.2887 56.7691 29.1155 56.4226 29.1155 55.9977C29.1155 55.5727 29.2887 55.2309 29.4988 55.2309C29.7113 55.2309 29.8845 55.5727 29.8845 55.9977C29.8848 56.4226 29.7115 56.7691 29.4988 56.7691Z" fill="#E2E2E2"/>
<path d="M30.0023 58C29.4527 58 29 58.8961 29 60.0046C29 61.1039 29.4527 62 30.0023 62C30.552 62 31 61.1039 31 60.0046C30.9995 58.8961 30.552 58 30.0023 58ZM30.0023 61.5381C29.5774 61.5381 29.2309 60.8453 29.2309 60.0046C29.2309 59.1547 29.5774 58.4619 30.0023 58.4619C30.4273 58.4619 30.7691 59.1547 30.7691 60.0046C30.7686 60.8453 30.4268 61.5381 30.0023 61.5381Z" fill="#E2E2E2"/>
<path d="M32.5035 55C31.679 55 31 55.6721 31 56.5035C31 57.3279 31.679 58 32.5035 58C33.3279 58 34 57.3279 34 56.5035C33.9993 55.6721 33.3279 55 32.5035 55ZM32.5035 57.6536C31.866 57.6536 31.3464 57.1339 31.3464 56.5035C31.3464 55.8661 31.866 55.3464 32.5035 55.3464C33.1409 55.3464 33.6536 55.8661 33.6536 56.5035C33.6529 57.1339 33.1402 57.6536 32.5035 57.6536Z" fill="#E2E2E2"/>
<path d="M23 79.2304L27.6568 65.9997L28.5656 70.3766C28.5656 70.3766 40.4909 61.5228 41.5131 62.0202C42.5354 62.5176 34.8125 70.9733 34.8125 70.9733C34.8125 70.9733 42.8763 63.6116 43.8986 64.109C44.9208 64.6064 37.8792 72.9628 37.8792 72.9628C37.8792 72.9628 40.1499 71.7244 41.5131 71.7244C42.8763 71.7244 40.9459 74.7535 40.9459 74.7535C40.9459 74.7535 41.3008 73.9796 42.5506 74.3776C43.7997 74.7756 38.4477 78.9317 38.4477 78.9317L35.6085 85L23 79.2304Z" fill="#FECDB3"/>
<path d="M32.5626 28.9968C32.553 29.7244 33.0665 30.3202 33.71 30.328C34.3531 30.3355 34.8819 29.7517 34.8914 29.0243C34.9007 28.2967 34.3872 27.7009 33.7441 27.6931C33.1006 27.6853 32.5719 28.2695 32.5626 28.9968Z" fill="#4F4F4F"/>
<path d="M36.4734 27.1494C36.5469 27.2838 34.3887 26.8515 32.9663 26.932C32.0183 26.9851 30.8193 26.8941 30.7996 26.8306C30.7794 26.7675 31.729 25.9625 33.7055 25.923C34.9382 25.8986 36.0719 26.4065 36.4734 27.1494Z" fill="#4F4F4F"/>
<path d="M42.6418 29.4085C42.4625 30.1159 42.8239 30.8056 43.4494 30.9497C44.0746 31.0935 44.7265 30.6364 44.9058 29.9294C45.0849 29.222 44.7235 28.5322 44.0983 28.3882C43.4728 28.2441 42.8208 28.7014 42.6418 29.4085Z" fill="#4F4F4F"/>
<path d="M46.8864 28.4371C46.9267 28.5836 44.9235 27.7044 43.5181 27.4811C42.5814 27.3318 41.4338 26.9887 41.4294 26.9226C41.4245 26.8569 42.5383 26.2735 44.4744 26.6543C45.6819 26.892 46.6685 27.6276 46.8864 28.4371Z" fill="#4F4F4F"/>
<path d="M25.4691 23.0384C24.6066 22.6111 23.8807 21.9143 23.4091 20.8895C22.2366 18.3392 23.1341 15.0579 24.5098 12.7358C26.6327 9.15278 30.3824 6.36667 34.5133 5.21768C39.2946 3.88822 44.5938 4.55377 48.9968 6.77252C48.5447 6.36584 48.0797 5.94195 47.8377 5.39619C47.5955 4.8499 47.6363 4.14373 48.1014 3.74978C48.7617 3.19059 49.8167 3.54211 50.5204 4.05044C51.9731 5.09993 52.9425 6.73723 53.133 8.46462C53.1267 8.40908 53.5062 8.16406 53.5607 8.12184C53.7298 7.99212 53.9029 7.86636 54.0841 7.75296C54.3894 7.56294 54.7255 7.39778 55.0841 7.32067C56.0836 7.10652 57.4544 7.69256 57.3152 8.82503C57.2093 9.68265 56.2487 10.3191 55.3836 10.328C55.1658 10.3303 54.9481 10.2932 54.7475 10.2113C57.0454 11.1477 58.2697 13.435 59.0283 15.5756C59.9385 18.1435 60.5819 20.9304 60.6379 23.6415C60.6957 26.4353 59.4882 29.5576 57.3152 31.434C54.4409 27.5948 51.5816 23.3481 46.8867 21.8536C44.3183 21.0363 41.5481 21.0833 38.8408 21.1386C36.1209 21.1944 34.0732 21.5164 31.6346 22.701C29.7017 23.6423 27.2827 23.9359 25.4691 23.0384Z" fill="#986541"/>
<path d="M58.7342 20.1188C58.7342 20.1188 56.424 22.0047 56.6887 24.7308C56.6887 24.7308 52.726 21.6656 51.7427 14.241C51.7427 14.241 37.8336 25.194 34.1475 24.2159C30.4615 23.2384 38.5163 16.8749 38.5163 16.8749C38.5163 16.8749 31.8139 26.0143 28.3433 25.7241C24.8727 25.4339 29.668 10.5917 40.7599 7.75976C51.8518 4.92786 57.9457 16.4329 57.9457 16.4329L58.7342 20.1188Z" fill="#986541"/>
<ellipse cx="1.80928" cy="1.18044" rx="1.80928" ry="1.18044" transform="matrix(0.861613 -0.507566 0.544308 0.838886 55.896 32.8047)" fill="#FEBF9F"/>
<path d="M64.1687 68.359L53.3125 67.9905L53.2082 70.7792L64.0644 71.1477L64.1687 68.359Z" fill="#DFB54E"/>
<path d="M21.6851 79.167L9.71099 103.848" stroke="#2FB6C8" stroke-width="2" stroke-linecap="round"/>
<path d="M70.3135 76.6057L73.979 106.177" stroke="#2FB6C8" stroke-width="2" stroke-linecap="round"/>
<path d="M36.1028 85.9196L35.8927 87.9049C35.0584 95.7881 33.2416 103.566 30.4824 111.067V111.067" stroke="#2FB6C8" stroke-width="2" stroke-linecap="round"/>
<rect width="5.56489" height="11.4123" rx="2.78244" transform="matrix(-0.733637 -0.679541 0.71415 -0.699993 37.7412 79.7605)" fill="#FECDB3"/>
<rect width="4.88061" height="15.5803" rx="2.4403" transform="matrix(-0.733637 -0.679541 0.71415 -0.699993 35.5288 76.1592)" fill="#FECDB3"/>
<rect width="3.9835" height="15.5803" rx="1.99175" transform="matrix(-0.733637 -0.679541 0.71415 -0.699993 31.9385 72.9883)" fill="#FECDB3"/>
</g>
<defs>
<clipPath id="clip0_188_6169">
<rect width="100" height="100" fill="white"/>
</clipPath>
</defs>
</svg>
