<svg width="168" height="168" viewBox="0 0 169 168" fill="none" xmlns="http://www.w3.org/2000/svg">
<g clip-path="url(#clip0_433_5056)">
<rect x="0.5" width="168" height="168" rx="14.35" fill="white"/>
<path d="M88.207 187.136C79.7632 187.136 71.5839 185.969 63.8422 183.771C63.7602 183.744 63.6781 183.726 63.596 183.699L70.7541 148.847C70.7541 148.847 70.5808 148.966 70.2526 149.185C67.7613 150.833 60.1702 152.13 48.2447 151.859C37.7091 151.62 32.6181 144.322 27.4593 135.133V135.124L28.5003 131.425L27.4593 135.106V135.097L27.4632 135.092C28.1331 134.273 52.0269 105.068 61.9 104.148L63.7693 106.702C63.7693 106.702 85.9912 85.3916 105.14 78.571C105.313 78.5071 105.477 78.4524 105.642 78.3977C105.733 78.3704 105.815 78.3339 105.906 78.3065L129.186 72.9448C129.186 72.9448 130.298 73.5102 132.149 74.5223C132.277 74.5862 132.414 74.6591 132.55 74.7412C140.511 79.0816 160.189 90.5436 164.803 99.9539C173.57 122.352 173.362 169.147 164.803 177.142C156.243 185.137 115.373 187.136 88.207 187.136Z" fill="#808080"/>
<path d="M142.337 183.339L142.423 183.235L142.416 183.1L140.172 133.943L140.172 133.943L140.172 133.942C140.165 133.795 140.119 133.643 140.026 133.521C139.933 133.401 139.759 133.278 139.534 133.319C139.34 133.348 139.213 133.482 139.146 133.593C139.074 133.714 139.035 133.863 139.043 134.014C139.043 134.014 139.043 134.015 139.043 134.015L141.304 183.606L141.343 184.462L141.915 183.823L141.917 183.821C142.053 183.669 142.195 183.511 142.337 183.339Z" fill="#9A9999" stroke="#9A9999" stroke-width="0.7"/>
<path d="M130.435 33.7058C130.435 33.7058 147.941 31.6447 148.313 33.8984C148.685 36.1521 130.196 39.7143 130.196 39.7143L130.435 33.7058Z" fill="#AE9DD8"/>
<path d="M129.185 72.9448C129.185 72.9448 127.088 80.3947 119.173 83.5406C111.258 86.6865 106.954 82.264 106.954 82.264L106.708 77.4676L106.134 66.1971L122.255 55.1455L126.505 52.2275L129.185 72.9448Z" fill="#FECDB3"/>
<path d="M124.827 59.0665C122.21 67.6288 115.207 74.6956 106.708 77.4677L106.134 66.1972L122.255 55.1455C123.058 55.5194 123.796 56.0482 124.389 56.7139C124.663 57.0239 124.918 57.3886 124.991 57.799C125.073 58.2275 124.954 58.6561 124.827 59.0665Z" fill="#FEBF9F"/>
<path d="M88.3923 37.7602C90.3173 29.8852 98.4373 15.2552 115.517 19.7352C136.867 25.3352 133.367 49.1352 127.067 54.3852C127.242 57.0102 127.277 62.5752 126.017 63.8352C124.442 65.4102 98.9491 81.5303 92.2423 69.9602C84.15 55.9999 86.4089 45.4602 88.3923 37.7602Z" fill="#FECDB3"/>
<path d="M131.631 32.9035C128.488 23.009 120.572 18.9348 112.308 18.5856C112.201 18.581 112.095 18.5883 111.989 18.5856C111.251 18.5099 110.503 18.4707 109.745 18.4707C100.955 18.4707 93.3867 23.6865 89.9673 31.191C90.2044 31.2366 90.4506 31.2731 90.6968 31.2822C92.3381 31.3643 93.9521 30.881 95.5205 30.4069C97.791 29.7139 100.071 29.0299 102.341 28.3369C103.919 27.8628 105.824 27.4525 107.055 28.5558C107.976 29.3765 108.122 30.7442 108.204 31.9752C108.478 35.9053 108.751 39.8445 109.034 43.7746C109.116 45.0603 109.326 46.5375 110.42 47.2214C111.405 46.1181 112.39 45.0147 113.375 43.9114C113.83 43.4008 114.314 42.8719 114.952 42.653C116.046 42.2701 117.286 42.9175 117.97 43.8476C118.654 44.7777 118.919 45.9448 119.201 47.0664C120.575 52.4509 122.756 57.6166 125.654 62.3482L128.023 66.7779L130.119 54.6722C130.117 54.6722 134.774 42.798 131.631 32.9035Z" fill="#434343"/>
<path d="M115.741 41.1586C117.652 40.3562 120.019 40.1565 121.988 40.8696C125.028 41.972 125.821 46.0179 125.181 48.8537C124.194 53.2334 119.621 56.4303 115.179 54.9075C112.343 53.9346 110.33 51.0878 110.131 48.127C109.923 45.0312 113.099 42.2674 115.741 41.1586Z" fill="#FECDB3"/>
<path d="M27.4497 135.106C27.4497 135.106 27.4497 135.106 27.4586 135.106V135.124L27.4497 135.106Z" fill="#434343"/>
<path d="M61.8997 104.148C61.8997 104.148 57.2492 111.48 45.4863 122.887C34.0152 134.012 27.7599 135.06 27.459 135.106V135.097C28.0335 134.395 52.0061 105.069 61.8997 104.148Z" fill="#434343"/>
<path d="M31.9819 80.4038C31.3709 79.2639 30.2585 78.3156 28.6992 77.5588C23.9302 75.27 17.7934 76.1272 13.4348 79.7016C11.7478 81.0785 10.3527 82.8202 9.29495 84.7898C8.8299 84.115 8.41957 83.4038 8.07307 82.6652C6.58675 79.4828 6.19465 75.6256 6.88766 71.1758C7.77216 65.5497 10.2068 60.5254 13.7357 57.0147C17.301 53.4767 22.0062 51.4889 26.5928 51.5254C27.1217 51.5345 27.6506 51.571 28.1794 51.6257L28.225 51.1697C27.7144 51.115 27.1946 51.0785 26.6658 51.0785C21.9332 51.0056 17.0822 53.0482 13.4165 56.6956C9.81471 60.27 7.34358 65.3855 6.44085 71.112C5.7296 75.6439 6.13082 79.5922 7.65361 82.8566C8.04571 83.6955 8.51987 84.498 9.06699 85.2457C7.7448 87.8809 7.04267 90.9083 7.06091 94.036C7.09738 97.6651 8.21896 100.665 10.2159 102.48C12.3041 104.367 15.1673 104.942 17.9393 105.489C20.7387 106.045 23.6384 106.629 25.608 108.589C28.3071 111.27 28.2341 115.501 27.9515 117.781C27.1855 123.854 23.9575 129.452 19.0791 133.154C17.8937 134.057 16.5898 134.86 15.3405 135.635C14.2281 136.319 13.0791 137.03 11.994 137.805C11.0092 138.525 10.1521 139.264 9.43173 140.03C9.50467 140.176 9.57762 140.313 9.65969 140.449C10.3892 139.674 11.2554 138.908 12.2676 138.179C13.3253 137.404 14.4743 136.702 15.5776 136.018C16.8451 135.243 18.149 134.44 19.3527 133.519C24.3223 129.744 27.6232 124.027 28.3983 117.835C28.6992 115.474 28.7721 111.088 25.9363 108.261C23.8572 106.2 20.8937 105.617 18.0305 105.042C15.3223 104.504 12.5138 103.948 10.5259 102.142C7.95452 99.808 7.53507 96.0603 7.51683 94.0268C7.4986 91.0633 8.15513 88.1819 9.3679 85.656C11.0822 87.8445 13.3983 89.5405 16.0335 90.4888C19.7083 91.8019 23.8299 91.5922 27.3496 89.9053C29.3375 88.9569 30.8512 87.6439 31.7265 86.112C32.7843 84.2883 32.8755 82.0451 31.9819 80.4038ZM31.3344 85.8931C30.5047 87.343 29.0548 88.5922 27.1582 89.4949C23.7478 91.1271 19.7448 91.3369 16.1886 90.0603C13.5624 89.1211 11.2646 87.4068 9.59586 85.2001C10.6354 83.2031 12.0305 81.4433 13.7174 80.0572C17.9484 76.5922 23.8846 75.7533 28.4986 77.9691C29.9758 78.6804 31.0153 79.574 31.5806 80.6226C32.4013 82.1272 32.3101 84.188 31.3344 85.8931Z" fill="#1E1E1E"/>
<path d="M32.5688 133.092C32.5688 133.092 39.3977 109.423 42.8126 99.644C46.2275 89.8662 52.2804 75.1206 52.2804 75.1206L57.7123 53.3911L76.9579 63.9449L68.2661 79.6206L60.9713 105.618C60.9713 105.618 54.6074 114.078 46.8476 121.838C39.0868 129.599 32.5688 133.092 32.5688 133.092Z" fill="#FECDB3"/>
<path d="M74.8243 65.8468L26.166 54.0894L26.8645 49.8994L76.5705 55.0213L74.8243 65.8468Z" fill="#BA6A4C"/>
<path d="M67.4901 82.0278C67.4901 82.0278 72.0302 76.3825 74.4165 74.9272C76.8028 73.4718 84.7186 65.3819 85.708 63.5773C86.6973 61.7727 87.4542 58.8047 85.7663 59.0956C84.0785 59.3864 69.7606 66.953 69.7606 66.953L67.4326 82.2603L67.4901 82.0278Z" fill="#FECDB3"/>
<path d="M59.5952 70.8045L73.3081 62.3345L76.9811 68.0575L59.5952 70.8045Z" fill="#FEBF9F"/>
<path d="M77.1138 67.9815C81.6356 67.9815 85.3013 64.3158 85.3013 59.794C85.3013 55.2721 81.6356 51.6064 77.1138 51.6064C72.5919 51.6064 68.9263 55.2721 68.9263 59.794C68.9263 64.3158 72.5919 67.9815 77.1138 67.9815Z" fill="#D9D9D9"/>
<path d="M57.5371 53.1C57.5371 53.1 63.4742 48.0948 67.1407 50.7136C67.1407 50.7136 71.0982 48.0948 73.3687 51.5872C73.3687 51.5872 76.3951 50.0161 78.083 52.1106C78.083 52.1106 79.014 53.6243 78.3739 56.1848C77.7337 58.7462 73.8337 66.7778 71.2149 66.0793C68.5961 65.3808 68.0717 64.1006 68.0717 64.1006C68.0717 64.1006 65.5104 65.0899 64.5794 63.6346C63.6483 62.1793 63.9976 60.6665 63.9976 60.6665C63.9976 60.6665 60.9128 61.4817 60.5636 58.9203C60.2143 56.3589 61.7854 53.3908 61.7854 53.3908L57.5371 53.1Z" fill="#FECDB3"/>
<path d="M76.3576 121.144L73.9538 133.984L71.5501 146.825" stroke="#9A9999" stroke-width="2.45" stroke-linecap="round"/>
<path d="M63.85 108.85L64.4857 121.975" stroke="#9A9999" stroke-width="2.45" stroke-linecap="round"/>
<path d="M89.2255 34.4761C88.4692 21.5242 90.8 10.5637 110.72 9.09951C135.621 7.26926 135.658 26.7699 135.647 32.0781C135.636 36.8825 104.712 39.5771 89.2255 34.4761Z" fill="#6E58A6"/>
<circle cx="1.78317" cy="1.78317" r="1.78317" transform="matrix(-1 0 0 1 95.2588 42.7197)" fill="#4F4F4F"/>
<path d="M95.4918 64.4092C95.4918 64.4092 90.7356 69.02 88.1106 60.795C88.9039 59.8411 90.9562 57.7825 93.4861 57.5699C96.016 57.3573 95.6754 62.1954 95.4918 64.4092Z" fill="#FF9C76"/>
<ellipse cx="119.104" cy="48.3507" rx="2.10645" ry="2.67476" transform="rotate(40.4783 119.104 48.3507)" fill="#FEBF9F"/>
<path d="M101.3 82.6339C87.6499 139.859 116.21 123.899 137.35 80.3589" stroke="#F1C20D" stroke-width="0.7"/>
<path d="M105.008 41.1701C103.22 44.7207 100.58 51.6873 104.322 51.149C108.999 50.4761 107.703 45.1596 105.008 41.1701Z" fill="#77BBFF"/>
<path d="M109.76 51.4337C108.476 53.9841 106.579 58.9883 109.267 58.6016C112.626 58.1183 111.696 54.2994 109.76 51.4337Z" fill="#77BBFF"/>
<path d="M65.2545 41.9869C67.2006 42.039 68.7882 41.5073 70.0775 40.2295C71.1569 39.1604 71.4616 37.8521 70.9758 36.4128C70.4814 34.9481 69.3459 34.1832 67.8877 34.0108C65.6181 33.7428 63.5462 34.3708 61.7258 35.7572C59.6934 37.3052 59.9564 40.1426 62.2281 41.3509C63.2213 41.8797 64.2936 42.0528 65.2545 41.9869Z" fill="#FFE2BF"/>
<path d="M76.1534 45.1501C77.4928 45.148 78.537 44.1615 78.5497 42.8849C78.5617 41.7033 77.3984 40.6092 76.1189 40.6002C74.6118 40.5891 73.3005 41.6957 73.2998 42.9793C73.2984 44.2497 74.4856 45.1522 76.1534 45.1501Z" fill="#FFE2BF"/>
<path d="M39.3873 45.9826C43.6537 46.1382 47.697 45.2531 51.4462 43.3781C57.5402 40.3304 62.0168 35.7663 63.7039 28.9622C64.7568 24.7144 63.7239 20.7665 61.2622 17.2461C58.3013 13.0113 54.6288 9.47865 49.8747 7.31891C44.2705 4.77328 38.5459 4.47489 32.8055 6.99398C32.576 7.09512 32.3357 7.23141 32.0954 7.24145C28.765 7.37917 26.1512 9.1322 23.7132 11.1191C20.6504 13.6145 18.4261 16.7218 17.5109 20.6582C16.4744 25.1147 16.8825 29.4263 18.6714 33.6281C19.6892 36.0188 20.9388 38.2381 22.846 40.0578C25.3608 42.4571 28.3784 43.9297 31.6478 44.9397C34.1769 45.7208 36.7713 46.1045 39.3873 45.9826Z" fill="#FFE2BF"/>
<path d="M33.3999 17.8234C34.8386 14.7666 38.5958 12.9908 41.8548 13.8787C45.1137 14.7666 47.4601 18.2583 46.9899 21.6036C46.5196 24.9488 43.2467 27.6726 39.8751 27.4679V33.1669" stroke="#4A214A" stroke-width="1.05" stroke-miterlimit="10" stroke-linecap="round" stroke-linejoin="round"/>
<path d="M41.2035 36.6596C41.2035 37.2425 40.7308 37.7153 40.1479 37.7153C39.565 37.7153 39.0923 37.2425 39.0923 36.6596C39.0923 36.0767 39.565 35.604 40.1479 35.604C40.7308 35.604 41.2035 36.0767 41.2035 36.6596Z" fill="#4A214A"/>
<path d="M91.3319 28.7669C91.1927 29.6558 90.8317 30.5421 90.1487 31.1369C89.605 31.6179 89.7531 31.9812 89.05 31.8501C89.3619 29.6335 88.947 26.5341 89.6804 23.6432C91.4694 23.9936 91.5771 27.1326 91.3319 28.7669Z" fill="#AE9DD8"/>
<path d="M96.4837 39.381C96.6406 39.4642 92.5231 40.4482 89.8603 41.4531C88.0853 42.1224 85.8186 42.8145 85.7728 42.7654C85.726 42.717 87.3995 41.3131 91.1098 39.9873C93.424 39.1606 95.6258 38.9177 96.4837 39.381Z" fill="#4F4F4F"/>
</g>
<defs>
<clipPath id="clip0_433_5056">
<rect x="0.5" width="168" height="168" rx="14.35" fill="white"/>
</clipPath>
</defs>
</svg>
