<svg width="32" height="33" viewBox="0 0 32 33" fill="none" xmlns="http://www.w3.org/2000/svg">
<g clip-path="url(#clip0_188_18732)">
<path d="M31 1.66516L21.0438 11.6213M15.8165 30.0746C14.0264 31.6962 11.3021 31.7462 9.39508 30.2639C8.05335 29.2211 6.70398 28.1239 5.45747 26.8774C4.21093 25.6308 3.11386 24.2816 2.07097 22.9398C0.588726 21.0328 0.638789 18.3085 2.26033 16.5184C5.72881 12.6895 9.34362 9.14985 13.2774 5.72671C14.0077 5.09121 14.9091 4.69038 15.8733 4.60357C18.7149 4.34775 24.8311 4.02517 26.5705 5.76443C28.3097 7.50369 27.9871 13.62 27.7312 16.4616C27.6446 17.4258 27.2436 18.3272 26.6081 19.0574C23.185 22.9913 19.6454 26.606 15.8165 30.0746Z" stroke="#1D2939" stroke-width="2" stroke-linecap="round"/>
</g>
<defs>
<clipPath id="clip0_188_18732">
<rect width="32" height="32" fill="white" transform="translate(0 0.5)"/>
</clipPath>
</defs>
</svg>
