<svg width="32" height="33" viewBox="0 0 32 33" fill="none" xmlns="http://www.w3.org/2000/svg">
<g clip-path="url(#clip0_188_18717)">
<path d="M16 31.5V19.3846C16 18.6196 16.3039 17.8859 16.8449 17.3449C17.3859 16.8039 18.1196 16.5 18.8846 16.5C19.6497 16.5 20.3834 16.8039 20.9243 17.3449C21.4653 17.8859 21.7692 18.6196 21.7692 19.3846V25.7308H26.3846C27.6086 25.7308 28.7825 26.217 29.6482 27.0826C30.5138 27.9482 31 29.1222 31 30.3462V31.5M14.2863 7.48878C11.4097 4.32335 7.54974 2.2205 3.33024 1.52019C3.04314 1.47953 2.75066 1.50043 2.47226 1.58148C2.19384 1.66254 1.93586 1.80191 1.71545 1.99032C1.49109 2.18223 1.31096 2.42046 1.18746 2.68865C1.06396 2.9568 1.00002 3.24856 1.00004 3.54378V19.9983C0.996973 20.5036 1.18119 20.9922 1.51715 21.3696C1.8531 21.7471 2.31698 21.9868 2.81922 22.0423C6.11486 22.4893 9.21398 23.7935 11.8191 25.7984M14.2863 7.48878L14.2873 13.8655M14.2863 7.48878C17.1628 4.32335 21.0227 2.2205 25.2421 1.52019C25.5294 1.47953 25.8218 1.50043 26.1001 1.58148C26.3786 1.66254 26.6366 1.80191 26.857 1.99032C27.0813 2.18223 27.2615 2.42046 27.385 2.68865C27.5085 2.9568 27.5724 3.24856 27.5724 3.54378V19.9983C27.5754 20.5036 27.3912 20.9922 27.0552 21.3696C26.7192 21.7471 26.2554 21.9868 25.7532 22.0423" stroke="#1D2939" stroke-width="2" stroke-linecap="round" stroke-linejoin="round"/>
</g>
<defs>
<clipPath id="clip0_188_18717">
<rect width="32" height="32" fill="white" transform="translate(0 0.5)"/>
</clipPath>
</defs>
</svg>
