<svg width="33" height="33" viewBox="0 0 33 33" fill="none" xmlns="http://www.w3.org/2000/svg">
<g clip-path="url(#clip0_188_18725)">
<path d="M25.3075 31.0083C24.6913 31.0083 24.1915 30.5086 24.1915 29.8923C24.1915 29.276 24.6913 28.7763 25.3075 28.7763C25.9238 28.7763 26.4236 29.276 26.4236 29.8923C26.4236 30.5086 25.9238 31.0083 25.3075 31.0083Z" fill="#1D2939"/>
<path d="M10.7992 31.0083C10.1828 31.0083 9.68315 30.5086 9.68315 29.8923C9.68315 29.276 10.1828 28.7763 10.7992 28.7763C11.4155 28.7763 11.9152 29.276 11.9152 29.8923C11.9152 30.5086 11.4155 31.0083 10.7992 31.0083Z" fill="#1D2939"/>
<path d="M2 1.99158H7.45107L9.39296 21.2989C9.47367 21.8311 9.74402 22.3163 10.1542 22.6649C10.5644 23.0136 11.0867 23.2022 11.625 23.1961H25.687C26.1738 23.2216 26.6555 23.0869 27.0584 22.8129C27.4615 22.5388 27.7637 22.1403 27.919 21.6783L30.8877 12.7501C30.9984 12.4144 31.0279 12.0573 30.9734 11.708C30.9192 11.3588 30.7826 11.0274 30.5752 10.7412C30.3591 10.437 30.0701 10.1917 29.7348 10.0279C29.3996 9.86418 29.0284 9.78711 28.6556 9.80378H8.23229M25.3075 31.0083C24.6913 31.0083 24.1915 30.5086 24.1915 29.8923C24.1915 29.276 24.6913 28.7763 25.3075 28.7763C25.9238 28.7763 26.4236 29.276 26.4236 29.8923C26.4236 30.5086 25.9238 31.0083 25.3075 31.0083ZM10.7992 31.0083C10.1828 31.0083 9.68315 30.5086 9.68315 29.8923C9.68315 29.276 10.1828 28.7763 10.7992 28.7763C11.4155 28.7763 11.9152 29.276 11.9152 29.8923C11.9152 30.5086 11.4155 31.0083 10.7992 31.0083Z" stroke="#1D2939" stroke-width="2" stroke-linecap="round" stroke-linejoin="round"/>
</g>
<defs>
<clipPath id="clip0_188_18725">
<rect width="32" height="32" fill="white" transform="translate(0.5 0.5)"/>
</clipPath>
</defs>
</svg>
