<svg width="168" height="168" viewBox="0 0 100 100" fill="none" xmlns="http://www.w3.org/2000/svg">
<g clip-path="url(#clip0_188_6043)">
<path d="M42.9359 109.455C42.9359 109.455 48.8408 112.931 57.1304 109.455C65.42 105.979 57.8117 43.4163 57.8117 43.4163L45.9197 42L41.1759 43.4163L36 85.5582L42.9359 109.455Z" fill="#F17FA2"/>
<path d="M58 44.1783C58 44.1783 54.5648 50 49.5 50C44.4352 50 41 44.1783 41 44.1783C43.5239 40.5189 42.6499 37 42.6499 37L49.5 38.0313L56.3501 37C56.3501 37 55.4761 40.5189 58 44.1783Z" fill="#FEBF9F"/>
<path d="M35 29C37.2091 29 39 27.433 39 25.5C39 23.567 37.2091 22 35 22C32.7909 22 31 23.567 31 25.5C31 27.433 32.7909 29 35 29Z" fill="#FECDB3"/>
<path d="M33 24.0341C33.2357 23.9262 33.493 24.082 33.6732 24.3942C33.8534 24.7061 33.9593 25.1589 33.9898 25.6222C34.0204 26.0855 33.9796 26.5586 33.9007 27" fill="#FEBF9F"/>
<path d="M34 27C33.8719 26.4105 33.6934 26.0485 33.5103 26.0044C33.3271 25.9612 33.1412 26.2369 33 26.7616" fill="#FEBF9F"/>
<path d="M65 28C62.7909 28 61 26.433 61 24.5C61 22.567 62.7909 21 65 21C67.2091 21 69 22.567 69 24.5C69 26.433 67.2091 28 65 28Z" fill="#FECDB3"/>
<path d="M67 23.0455C66.293 22.9015 65.5209 23.1093 64.9804 23.5256C64.4399 23.9415 64.1222 24.5452 64.0305 25.1629C63.9389 25.7806 64.0611 26.4114 64.298 27" fill="#FEBF9F"/>
<path d="M17.244 25.1975C17.5893 24.0489 18.7281 20.6213 17.2951 19.7659C17.0188 19.601 16.655 19.6153 16.3505 19.7283C15.2947 20.1187 14.7327 21.1432 14.3052 22.0603C14.1726 22.3444 14.0436 22.6295 13.9129 22.9143C13.8577 22.5932 13.8043 22.2718 13.7469 21.9508C13.5706 20.9629 13.292 19.8405 12.3703 19.2187C12.1043 19.0391 11.7553 18.9415 11.4445 19.0377C9.83303 19.5376 10.0453 23.1231 10.0816 24.3163C10.1098 25.2386 10.1661 26.1602 10.2387 27.0812C9.80191 26.9128 9.32809 26.8288 8.8565 26.8497C8.02594 26.8863 7.21575 27.237 6.64635 27.8069C6.43853 28.0147 6.26515 28.2475 6.11882 28.4961C5.60278 28.1593 4.92892 28.0206 4.3047 28.1297C3.38781 28.29 2.60689 28.9081 2.14308 29.6694C1.67927 30.4307 1.50478 31.3227 1.48552 32.2C1.46922 32.9603 1.57257 33.739 1.87227 34.44C1.56183 35.0169 1.32215 35.6269 1.16655 36.2568C0.98429 36.9947 0.915384 37.778 1.14803 38.5034C1.41921 39.3494 2.08195 40.0458 2.85065 40.553C3.61935 41.0602 4.49622 41.4001 5.36494 41.7357C4.79296 44.021 4.27839 46.3192 3.82199 48.6275C6.47928 48.982 9.17472 49.0841 11.8535 48.9311C11.9457 48.9259 12.0454 48.9175 12.1154 48.861C12.1839 48.806 12.208 48.7174 12.2288 48.6348C12.2351 48.6097 12.2406 48.5843 12.2469 48.5592C12.7144 48.6616 13.1994 48.6745 13.6739 48.5748L15.0431 48.0705C15.1706 45.3129 15.7537 42.5744 16.765 39.9834C16.954 39.4993 17.1614 38.9977 17.1073 38.4846C17.0658 38.09 16.8728 37.7257 16.6813 37.3726C16.386 36.8281 16.0819 36.2808 15.7626 35.7413C15.5636 34.1845 15.3614 32.6278 15.1506 31.0714C15.9285 29.135 16.6472 27.1819 17.244 25.1975Z" fill="#FECDB3"/>
<path d="M14 35.1055C12.88 33.4037 11.7603 31.7018 10.6402 30C9.51251 30.8913 8.83723 32.3875 9.0339 33.9548C9.18719 35.1768 9.86782 36.3 10.8194 36.9016C10.0793 37.3982 9.52587 38.2397 9.31732 39.1848C9.10876 40.1299 9.2478 41.1673 9.69492 42" stroke="#FEBF9F" stroke-miterlimit="10" stroke-linecap="round" stroke-linejoin="round"/>
<path d="M9 31C8.73661 30.2253 8.39554 29.543 8 29" stroke="#FEBF9F" stroke-miterlimit="10" stroke-linecap="round" stroke-linejoin="round"/>
<path d="M9 35.8546C8.108 36.059 7.10602 36.0777 6.29425 35.7159C5.62973 35.4193 5.16013 34.8999 4.81513 34.3543C3.77398 32.7085 3.72726 30.6758 4.69194 29" stroke="#FEBF9F" stroke-miterlimit="10" stroke-linecap="round" stroke-linejoin="round"/>
<path d="M6 34.5604C5.6181 35.5485 5.01839 36.0949 4.43602 35.9864C3.85337 35.8779 3.30284 35.1157 3 34" stroke="#FEBF9F" stroke-miterlimit="10" stroke-linecap="round" stroke-linejoin="round"/>
<path d="M10 27C10.3745 28.0765 10.6255 28.9235 11 30" stroke="#FEBF9F" stroke-miterlimit="10" stroke-linecap="round" stroke-linejoin="round"/>
<path d="M12 23L13.1429 31L14 29.125C13.1905 28.375 12.3429 24.1 12 23Z" fill="#FEBF9F"/>
<path d="M82.7115 25.1975C82.3866 24.0489 81.3148 20.6213 82.6634 19.7659C82.9235 19.601 83.2659 19.6153 83.5525 19.7283C84.5462 20.1187 85.0751 21.1432 85.4775 22.0603C85.6023 22.3444 85.7236 22.6295 85.8467 22.9143C85.8987 22.5932 85.9489 22.2718 86.0029 21.9508C86.1689 20.9629 86.4311 19.8405 87.2986 19.2187C87.5489 19.0391 87.8773 18.9415 88.1699 19.0377C89.6866 19.5376 89.4868 23.1231 89.4526 24.3163C89.4261 25.2386 89.3731 26.1602 89.3048 27.0812C89.7159 26.9128 90.1618 26.8288 90.6056 26.8497C91.3874 26.8863 92.1499 27.237 92.6858 27.8069C92.8814 28.0147 93.0446 28.2475 93.1823 28.4961C93.668 28.1593 94.3022 28.0206 94.8897 28.1297C95.7526 28.29 96.4876 28.9081 96.9242 29.6694C97.3607 30.4307 97.5249 31.3227 97.543 32.2C97.5584 32.9603 97.4611 33.739 97.179 34.44C97.4712 35.0169 97.6968 35.6269 97.8432 36.2568C98.0148 36.9947 98.0796 37.778 97.8607 38.5034C97.6055 39.3494 96.9817 40.0458 96.2582 40.553C95.5347 41.0602 94.7094 41.4001 93.8918 41.7357C94.4302 44.021 94.9145 46.3192 95.344 48.6275C92.843 48.982 90.3061 49.0841 87.7849 48.9311C87.6981 48.9259 87.6043 48.9175 87.5384 48.861C87.4739 48.806 87.4513 48.7174 87.4317 48.6348C87.4258 48.6097 87.4206 48.5843 87.4147 48.5592C86.9746 48.6616 86.5182 48.6745 86.0716 48.5748L84.7829 48.0705C84.663 45.3129 84.1142 42.5744 83.1623 39.9834C82.9845 39.4993 82.7893 38.9977 82.8402 38.4846C82.8792 38.09 83.0609 37.7257 83.2411 37.3726C83.519 36.8281 83.8053 36.2808 84.1058 35.7413C84.2931 34.1845 84.4834 32.6278 84.6818 31.0714C83.9496 29.135 83.2732 27.1819 82.7115 25.1975Z" fill="#FECDB3"/>
<path d="M86 35.1055C87.12 33.4037 88.2397 31.7018 89.3598 30C90.4875 30.8913 91.1628 32.3875 90.9661 33.9548C90.8128 35.1768 90.1322 36.3 89.1806 36.9016C89.9207 37.3982 90.4741 38.2397 90.6827 39.1848C90.8912 40.1299 90.7522 41.1673 90.3051 42" stroke="#FEBF9F" stroke-miterlimit="10" stroke-linecap="round" stroke-linejoin="round"/>
<path d="M91 31C91 30.2253 91 29.543 91 29" stroke="#FEBF9F" stroke-miterlimit="10" stroke-linecap="round" stroke-linejoin="round"/>
<path d="M91 33.8961C91.5352 34.0422 92.1364 34.0555 92.6234 33.7971C93.0222 33.5852 93.3039 33.2142 93.5109 32.8245C94.1356 31.6489 94.1636 30.197 93.5848 29" stroke="#FEBF9F" stroke-miterlimit="10" stroke-linecap="round" stroke-linejoin="round"/>
<path d="M93 34C93.5092 34 94.3088 34 95.0853 34C95.8622 34 96.5962 34 97 34" stroke="#FEBF9F" stroke-miterlimit="10" stroke-linecap="round" stroke-linejoin="round"/>
<path d="M89 27C89 27.7177 89 28.2823 89 29" stroke="#FEBF9F" stroke-miterlimit="10" stroke-linecap="round" stroke-linejoin="round"/>
<path d="M87 23L85.4571 31L84 28.7396C85.0929 27.9896 86.5371 24.1 87 23Z" fill="#FEBF9F"/>
<path d="M93.1791 34.254C94.7612 35.4558 95.8823 35.1258 96.5702 34.5052L90.194 42C91.2687 38.6984 89.597 36.5397 89 36.1587C89.4776 35.9556 90.0746 35.3122 90.3134 35.0159C91.4597 35.5238 92.7413 34.6772 93.1791 34.254Z" fill="#FEBF9F"/>
<path d="M43.4896 119.974C41.3487 124.661 21.4584 111.771 21.4584 111.771C21.4584 111.771 28.7604 90.9379 24.8575 72.8398C24.8575 72.8398 9.12046 88.3354 2.95147 76.7469C-1.07006 69.1916 -0.167601 57.4328 0.945649 50.1602C1.5418 46.2769 2.19723 43.6745 2.19723 43.6745L15.2894 43.1533L15.049 49.5573L14.6604 59.9501C14.6604 59.9501 25.3845 43 40.354 43C40.354 43 42.7353 75.616 43.6477 98.4489C44.0956 109.612 44.1911 118.434 43.4896 119.974Z" fill="#F7AFE6"/>
<path d="M16 44L15.7486 50.3977L1 51C1.62342 47.1206 2.30884 44.5207 2.30884 44.5207L16 44Z" fill="#968DDF"/>
<path d="M26 73C27.0001 72.3333 27.9999 71.6667 29 71" stroke="#EA8CD4" stroke-width="2" stroke-miterlimit="10" stroke-linecap="round"/>
<path d="M14 61C14 62.6668 14 64.3332 14 66" stroke="#EA8CD4" stroke-width="2" stroke-miterlimit="10" stroke-linecap="round"/>
<path d="M56.5104 119.974C58.6513 124.661 78.5416 111.771 78.5416 111.771C78.5416 111.771 71.2396 90.9379 75.1425 72.8398C75.1425 72.8398 90.8795 88.3354 97.0485 76.7469C101.07 69.1916 100.168 57.4328 99.0543 50.1602C98.4582 46.2769 97.8028 43.6745 97.8028 43.6745L84.7106 43.1533L84.951 49.5573L85.3396 59.9501C85.3396 59.9501 74.6156 43 59.646 43C59.646 43 57.2647 75.616 56.3523 98.4489C55.9044 109.612 55.8089 118.434 56.5104 119.974Z" fill="#F7AFE6"/>
<path d="M84 44L84.2514 50.3977L99 51C98.3766 47.1206 97.6912 44.5207 97.6912 44.5207L84 44Z" fill="#968DDF"/>
<path d="M96 48.4998C96 49.3284 96.2238 50 96.5 50C96.7762 50 97 49.3284 97 48.4998C97 47.6716 96.7762 47 96.5 47C96.2238 46.9996 96 47.6712 96 48.4998Z" fill="#BDBBEA"/>
<path d="M73 73C72.3333 72.3333 71.6667 71.6667 71 71" stroke="#EA8CD4" stroke-width="2" stroke-miterlimit="10" stroke-linecap="round"/>
<path d="M86 61C86 62.6668 86 64.3332 86 66" stroke="#EA8CD4" stroke-width="2" stroke-miterlimit="10" stroke-linecap="round"/>
<path d="M36.2931 27.865C36.2931 27.865 35.0504 32.4892 37.6825 34H38.944C38.944 34 40.7165 29.8115 40.9892 27.865C41.262 25.9187 36.2931 27.865 36.2931 27.865Z" fill="#EB7F37"/>
<path d="M39.9472 38.3064C41.1001 37.1078 42.0341 35.0964 38.625 33C38.625 33 33.9153 35.2735 37.1156 38.3546C36.1379 39.2646 35.3098 40.7013 36.866 42.4057C35.9967 43.335 35.4256 44.6995 36.9455 46.2924C35.9752 47.281 35.2971 48.8014 37.273 50.5787C37.089 50.7585 36.9743 51.0081 36.9743 51.2845C36.9743 51.7156 37.2524 52.0783 37.639 52.2152H37.6307C37.6307 52.2152 36.6526 54.0636 36.5555 56.8654C36.4579 59.6669 37.9327 61.0676 38.5166 63C38.5166 63 42.1528 55.1007 39.4025 52.2154H39.3942C39.7808 52.0787 40.0593 51.7159 40.0593 51.2847C40.0593 51.0061 39.9427 50.7552 39.756 50.5752C40.767 49.6139 41.7818 48.011 40.1079 46.241C40.9535 45.2824 41.5649 43.8821 40.1831 42.3517C41.0316 41.3439 41.5794 39.8853 39.9472 38.3064Z" fill="#EB7F37"/>
<path d="M35.9267 34C35.9204 34 35.9137 34 35.9074 34C34.392 33.994 32.915 33.2267 32.3154 32.1337C31.7658 31.131 31.9433 29.9065 32.7796 28.9379C33.0775 28.5929 33.4272 28.3109 33.8193 28.0992C34.1326 27.9305 34.5702 27.9821 34.797 28.2148C35.0242 28.4476 34.9545 28.7733 34.6416 28.9421C34.3913 29.0772 34.1609 29.2652 33.9575 29.5005C33.3638 30.1882 33.2315 31.0466 33.612 31.7402C33.9971 32.4425 34.9654 32.9549 35.9144 32.9585C36.8159 32.9567 37.7834 32.5648 38.7934 31.7785C39.0601 31.5707 39.5033 31.5629 39.7834 31.7616C40.0631 31.9603 40.0732 32.2899 39.8061 32.4979C38.5266 33.4946 37.2212 34 35.9267 34Z" fill="#EFC04B"/>
<path d="M63.0733 34C63.0796 34 63.0863 34 63.0926 34C64.608 33.993 66.085 33.0978 66.6846 31.8226C67.2342 30.6528 67.0567 29.2242 66.2204 28.0942C65.9225 27.6917 65.5728 27.3627 65.1807 27.1158C64.8674 26.9189 64.4298 26.9791 64.203 27.2506C63.9758 27.5222 64.0455 27.9022 64.3584 28.0991C64.6087 28.2567 64.8391 28.476 65.0425 28.7506C65.6362 29.5529 65.7685 30.5544 65.388 31.3636C65.0029 32.1829 64.0346 32.7807 63.0856 32.7849C62.1841 32.7828 61.2166 32.3256 60.2066 31.4083C59.9399 31.1659 59.4967 31.1568 59.2166 31.3885C58.9369 31.6203 58.9268 32.0049 59.1939 32.2476C60.4734 33.4104 61.7788 34 63.0733 34Z" fill="#EFC04B"/>
<path d="M65.5752 22.6011C65.1818 27.0654 64.5561 31.8504 62.7314 35.7446C60.5808 40.331 56.8415 42.3316 53.1023 43.594C52.9637 43.6449 49.8584 44.1559 49.8584 43.9523C49.8584 44.1559 47.0363 43.6449 46.8977 43.594C43.1584 42.3316 39.4192 40.331 37.2686 35.7446C35.4439 31.8504 34.8182 27.0654 34.4248 22.6011C34.0913 18.8036 33.9265 14.9298 34.0314 11.1069L50 11L65.9686 11.1069C66.0735 14.9298 65.9087 18.8036 65.5752 22.6011Z" fill="#FECDB3"/>
<path d="M41.471 17.2859C41.471 17.2859 43.2706 21.5277 50.7543 24C50.7543 24 46.8472 17.0107 46.4391 15.2254C46.4391 15.2254 50.7458 21.5436 55.2598 22.6424C55.2598 22.6424 52.1884 18.9342 52.3752 17.2859C52.3752 17.2859 53.2703 22.05 64.215 22.8291C64.215 22.8291 65.4915 22.0139 67 22.6424C67 22.6424 66.934 -1.89688 50.3608 0.117571C50.3608 0.117571 32.9966 -1.24365 33 23.1804C33 23.1804 35.785 22.5949 37.0614 23.6487C37.0608 23.6484 41.471 23.1804 41.471 17.2859Z" fill="#EB7F37"/>
<path d="M42.996 29.0115C42.9869 29.7402 43.4769 30.3369 44.0909 30.3446C44.7046 30.3522 45.2092 29.7675 45.2183 29.039C45.2272 28.3103 44.7372 27.7137 44.1234 27.7058C43.5094 27.698 43.0049 28.283 42.996 29.0115Z" fill="#4F4F4F"/>
<path d="M46.7286 27.1613C46.7988 27.2958 44.7392 26.863 43.3819 26.9435C42.4772 26.9967 41.3331 26.9056 41.3143 26.842C41.295 26.7788 42.2011 25.9726 44.0872 25.9331C45.2636 25.9087 46.3455 26.4172 46.7286 27.1613Z" fill="#4F4F4F"/>
<path d="M54.2548 28.924C54.2457 29.6528 54.7357 30.2495 55.3497 30.2572C55.9634 30.2648 56.468 29.6801 56.4771 28.9516C56.486 28.2229 55.996 27.6263 55.3822 27.6184C54.7682 27.6106 54.2637 28.1956 54.2548 28.924Z" fill="#4F4F4F"/>
<path d="M57.9869 27.0739C58.0571 27.2084 55.9975 26.7756 54.6402 26.8561C53.7355 26.9093 52.5914 26.8182 52.5726 26.7546C52.5533 26.6914 53.4594 25.8852 55.3456 25.8457C56.5219 25.8213 57.6038 26.3298 57.9869 27.0739Z" fill="#4F4F4F"/>
<path d="M53 37C52.1053 38.9106 48.8532 40.3299 47 37" stroke="#FF9C76" stroke-width="4" stroke-linecap="round"/>
<path d="M58 10C56.0374 7.28557 52.9596 5.84238 49.5 5.84238C46.0404 5.84238 42.9626 7.28557 41 10C42.6343 6.42886 45.8262 4 49.5 4C53.1738 4 56.3657 6.42886 58 10Z" fill="#EFC04B"/>
<path d="M80.1656 14L78.3511 12.7275L76 12.4713L77.527 10.9596L77.8344 9L79.6484 10.2729L82 10.5287L80.4725 12.0404L80.1656 14Z" fill="#FFE6A9"/>
<path d="M94.559 8L94.4296 5.14349L93 2.8183L95.4488 2.66803L97.441 1L97.5704 3.85723L99 6.1817L96.5512 6.33197L94.559 8Z" fill="#FFE6A9"/>
<path d="M15.1277 8L12.1913 6.47602L9 7.0025L10.3336 3.64767L9.8729 0L12.8087 1.52473L16 0.997515L14.6664 4.35234L15.1277 8Z" fill="#FFE6A9"/>
<path d="M3.00015 18L2.64643 16.0604L2 15L2.64643 13.9387L3.00015 12L3.35357 13.9387L4 15L3.35357 16.0604L3.00015 18Z" fill="#FFE6A9"/>
<path d="M6.88235 34.127C5.32347 35.3288 4.10125 35.1258 3.42348 34.5052L9.70588 42C8.29412 38.546 10.0588 36.9206 11 36.1587C10.5294 35.9556 9.94118 35.1852 9.70588 34.8889C8.57647 35.3968 7.31373 34.5503 6.88235 34.127Z" fill="#FEBF9F"/>
</g>
<defs>
<clipPath id="clip0_188_6043">
<rect width="100" height="100" fill="white"/>
</clipPath>
</defs>
</svg>
